<svg width="1265" height="1265" viewBox="0 0 1265 1265" fill="none" xmlns="http://www.w3.org/2000/svg">
<path d="M1106 610.638L1095 602.138C1089.67 614.305 1080.1 640.238 1054.5 658.638C1022.5 681.638 921.361 667.107 885 615.638C814 515.138 770.5 493.638 796.5 494.138C822.5 494.638 846.5 539.138 909 606.138C971.5 673.138 1079.5 655.638 1040.5 649.638C1001.5 643.638 959.5 576.638 958.5 575.638C957.7 574.838 922.5 526.638 905 502.638C867.8 455.038 814.833 438.138 793 435.638C781 427.238 715 432.138 683.5 435.638C761.1 497.238 788.833 552.305 793 572.138C817 654.638 952 679.638 909 671.638C874.6 665.238 817.333 729.638 793 762.638L683.5 908.138C797.5 924.538 873 876.971 896.5 851.138C930.158 814.138 1026.67 688.638 1054.5 672.638L1106 610.638Z" fill="#6DB545" stroke="#6DB545" stroke-width="5"/>
<path d="M1054 684.638L1096 736.638" stroke="#2589C4" stroke-width="9"/>
<path d="M1131.5 491.138L1038 613.138" stroke="#2589C4" stroke-width="9"/>
<path d="M1131.5 852.638L1038 730.638" stroke="#2589C4" stroke-width="9"/>
<path d="M1055 459.138L1013 514.638M971 570.138L1013 514.638M1013 514.638L1031 555.638L996.5 602.638M1013 514.638H1072L1126.5 442.138L1219.5 443.138L1122.5 570.138" stroke="#2589C4" stroke-width="9"/>
<path d="M1064 893.138L1022 837.638M980 782.138L1022 837.638M1022 837.638L1040 796.638L1005.5 749.638M1022 837.638H1081L1135.5 910.138L1228.5 909.138L1131.5 782.138" stroke="#2589C4" stroke-width="9"/>
<circle cx="1038" cy="613.638" r="19" fill="#2589C4"/>
<circle cx="1132" cy="490.638" r="19" fill="#2589C4"/>
<circle cx="1123" cy="768.638" r="19" fill="#2589C4"/>
<circle cx="1055" cy="883.638" r="19" fill="#2589C4"/>
<circle cx="1038" cy="730.638" r="19" fill="#2589C4"/>
<circle cx="1132" cy="848.638" r="19" fill="#2589C4"/>
<circle cx="1123" cy="570.638" r="19" fill="#2589C4"/>
<circle cx="1055" cy="458.638" r="19" fill="#2589C4"/>
<mask id="path-15-outside-1_1_20" maskUnits="userSpaceOnUse" x="36" y="552" width="733" height="236" fill="black">
<rect fill="white" x="36" y="552" width="733" height="236"/>
<path d="M95 725C104.6 725 112.52 722.76 118.76 718.28C125.16 713.64 128.36 706.44 128.36 696.68C128.36 689.48 126.2 683.48 121.88 678.68C117.72 673.88 110.2 669.88 99.32 666.68L77 659.96C65.8 656.6 57.16 650.84 51.08 642.68C45.16 634.36 42.2 624.04 42.2 611.72C42.2 603.56 44.04 595.96 47.72 588.92C51.56 581.88 57.32 576.2 65 571.88C72.84 567.56 82.68 565.4 94.52 565.4C107.48 565.4 117.96 567.8 125.96 572.6C133.96 577.24 139.56 583.32 142.76 590.84C145.96 598.36 146.76 606.44 145.16 615.08L117.56 620.12C120.12 605.24 119 593.8 114.2 585.8C109.56 577.8 101.96 573.8 91.4 573.8C83.24 573.8 76.68 576.2 71.72 581C66.92 585.8 64.52 592.68 64.52 601.64C64.52 609 66.6 615.48 70.76 621.08C75.08 626.68 82.12 631 91.88 634.04L114.2 640.76C126.36 644.28 135.48 649.64 141.56 656.84C147.64 663.88 150.68 673.72 150.68 686.36C150.68 695.32 148.6 703.4 144.44 710.6C140.44 717.64 134.28 723.24 125.96 727.4C117.8 731.4 107.56 733.4 95.24 733.4C86.28 733.4 77.8 732.12 69.8 729.56C61.8 726.84 55.08 722.44 49.64 716.36C44.36 710.28 41 702.04 39.56 691.64L55.64 685.88C56.44 696.12 58.68 704.12 62.36 709.88C66.2 715.48 70.92 719.4 76.52 721.64C82.28 723.88 88.44 725 95 725ZM201.446 588.68C196.486 588.68 192.486 587.16 189.446 584.12C186.406 580.92 184.886 576.84 184.886 571.88C184.886 566.92 186.406 562.92 189.446 559.88C192.486 556.84 196.486 555.32 201.446 555.32C206.246 555.32 210.246 556.84 213.446 559.88C216.646 562.92 218.246 566.92 218.246 571.88C218.246 576.84 216.646 580.92 213.446 584.12C210.246 587.16 206.246 588.68 201.446 588.68ZM169.286 616.04V609.32H215.366V710.84C215.366 716.28 215.606 719.56 216.086 720.68C216.566 721.64 218.086 722.28 220.646 722.6L233.846 724.28V731H169.286V724.28L182.486 722.6C185.046 722.28 186.566 721.64 187.046 720.68C187.526 719.56 187.766 716.28 187.766 710.84V629.48C187.766 624.04 187.526 620.84 187.046 619.88C186.566 618.76 185.046 618.04 182.486 617.72L169.286 616.04ZM384.474 724.28V731H319.914V724.28L333.114 722.6C335.674 722.28 337.194 721.64 337.674 720.68C338.154 719.56 338.394 716.28 338.394 710.84V650.36C338.394 639.32 336.714 631.32 333.354 626.36C330.154 621.24 325.354 618.68 318.954 618.68C316.234 618.68 313.034 619.4 309.354 620.84C305.834 622.12 302.234 624.52 298.554 628.04C295.034 631.56 291.914 636.76 289.194 643.64V710.84C289.194 716.28 289.434 719.56 289.914 720.68C290.394 721.64 291.914 722.28 294.474 722.6L307.674 724.28V731H243.114V724.28L256.314 722.6C258.874 722.28 260.394 721.64 260.874 720.68C261.354 719.56 261.594 716.28 261.594 710.84V629.48C261.594 624.04 261.354 620.84 260.874 619.88C260.394 618.76 258.874 618.04 256.314 617.72L243.114 616.04V609.32H287.754V630.44C292.394 622.28 298.314 616.36 305.514 612.68C312.874 608.84 320.234 606.92 327.594 606.92C339.434 606.92 348.794 610.68 355.674 618.2C362.554 625.72 365.994 636.36 365.994 650.12V710.84C365.994 716.28 366.234 719.56 366.714 720.68C367.194 721.64 368.714 722.28 371.274 722.6L384.474 724.28ZM500.885 702.44C498.005 713.64 492.645 721.64 484.805 726.44C476.965 731.08 467.845 733.4 457.445 733.4C438.245 733.4 423.845 727.88 414.245 716.84C404.645 705.64 399.845 690.84 399.845 672.44V667.64C399.845 649.24 404.325 634.52 413.285 623.48C422.405 612.44 435.525 606.92 452.645 606.92C462.245 606.92 470.725 608.84 478.085 612.68C485.605 616.36 491.445 621.72 495.605 628.76C499.925 635.8 502.085 644.36 502.085 654.44C502.085 656.84 501.925 659.4 501.605 662.12C501.445 664.84 501.045 667.56 500.405 670.28H429.365V677.24C429.365 694.2 431.765 706.44 436.565 713.96C441.365 721.32 449.125 725 459.845 725C466.725 725 472.565 723 477.365 719C482.165 714.84 484.885 707.88 485.525 698.12L500.885 702.44ZM452.645 615.32C444.805 615.32 438.965 618.92 435.125 626.12C431.285 633.32 429.365 645.24 429.365 661.88H472.805C473.445 658.68 473.845 655.72 474.005 653C474.325 650.12 474.485 647.48 474.485 645.08C474.485 634.84 472.485 627.32 468.485 622.52C464.485 617.72 459.205 615.32 452.645 615.32ZM519.676 616.04V609.32H564.316V629C574.076 614.28 585.676 606.92 599.116 606.92C604.076 606.92 608.876 608.52 613.516 611.72C618.156 614.76 621.996 620.52 625.036 629L603.676 640.52C601.436 633.96 598.796 629.56 595.756 627.32C592.876 624.92 589.756 623.72 586.396 623.72C582.876 623.72 579.436 624.84 576.076 627.08C572.716 629.32 569.276 633.48 565.756 639.56V710.84C565.756 716.28 565.996 719.56 566.476 720.68C566.956 721.64 568.476 722.28 571.036 722.6L589.036 724.28V731H519.676V724.28L532.876 722.6C535.436 722.28 536.956 721.64 537.436 720.68C537.916 719.56 538.156 716.28 538.156 710.84V629.48C538.156 624.04 537.916 620.84 537.436 619.88C536.956 618.76 535.436 618.04 532.876 617.72L519.676 616.04ZM661.016 588.68C656.056 588.68 652.056 587.16 649.016 584.12C645.976 580.92 644.456 576.84 644.456 571.88C644.456 566.92 645.976 562.92 649.016 559.88C652.056 556.84 656.056 555.32 661.016 555.32C665.816 555.32 669.816 556.84 673.016 559.88C676.216 562.92 677.816 566.92 677.816 571.88C677.816 576.84 676.216 580.92 673.016 584.12C669.816 587.16 665.816 588.68 661.016 588.68ZM628.856 616.04V609.32H674.936V739.16C674.936 747.16 673.576 754.6 670.856 761.48C668.136 768.36 663.736 773.88 657.656 778.04C651.576 782.36 643.496 784.52 633.416 784.52C624.616 784.52 617.096 782.28 610.856 777.8C604.616 773.32 600.776 765.72 599.336 755L614.216 750.44C615.016 760.68 616.936 767.48 619.976 770.84C623.016 774.36 626.536 776.12 630.536 776.12C635.816 776.12 639.896 773.8 642.776 769.16C645.816 764.52 647.336 756.12 647.336 743.96V629.48C647.336 624.04 647.096 620.84 646.616 619.88C646.136 618.76 644.616 618.04 642.056 617.72L628.856 616.04ZM733.008 588.68C728.048 588.68 724.048 587.16 721.008 584.12C717.968 580.92 716.448 576.84 716.448 571.88C716.448 566.92 717.968 562.92 721.008 559.88C724.048 556.84 728.048 555.32 733.008 555.32C737.808 555.32 741.808 556.84 745.008 559.88C748.208 562.92 749.808 566.92 749.808 571.88C749.808 576.84 748.208 580.92 745.008 584.12C741.808 587.16 737.808 588.68 733.008 588.68ZM700.848 616.04V609.32H746.928V710.84C746.928 716.28 747.168 719.56 747.648 720.68C748.128 721.64 749.648 722.28 752.208 722.6L765.408 724.28V731H700.848V724.28L714.048 722.6C716.608 722.28 718.128 721.64 718.608 720.68C719.088 719.56 719.328 716.28 719.328 710.84V629.48C719.328 624.04 719.088 620.84 718.608 619.88C718.128 618.76 716.608 618.04 714.048 617.72L700.848 616.04Z"/>
</mask>
<path d="M95 725C104.6 725 112.52 722.76 118.76 718.28C125.16 713.64 128.36 706.44 128.36 696.68C128.36 689.48 126.2 683.48 121.88 678.68C117.72 673.88 110.2 669.88 99.32 666.68L77 659.96C65.8 656.6 57.16 650.84 51.08 642.68C45.16 634.36 42.2 624.04 42.2 611.72C42.2 603.56 44.04 595.96 47.72 588.92C51.56 581.88 57.32 576.2 65 571.88C72.84 567.56 82.68 565.4 94.52 565.4C107.48 565.4 117.96 567.8 125.96 572.6C133.96 577.24 139.56 583.32 142.76 590.84C145.96 598.36 146.76 606.44 145.16 615.08L117.56 620.12C120.12 605.24 119 593.8 114.2 585.8C109.56 577.8 101.96 573.8 91.4 573.8C83.24 573.8 76.68 576.2 71.72 581C66.92 585.8 64.52 592.68 64.52 601.64C64.52 609 66.6 615.48 70.76 621.08C75.08 626.68 82.12 631 91.88 634.04L114.2 640.76C126.36 644.28 135.48 649.64 141.56 656.84C147.64 663.88 150.68 673.72 150.68 686.36C150.68 695.32 148.6 703.4 144.44 710.6C140.44 717.64 134.28 723.24 125.96 727.4C117.8 731.4 107.56 733.4 95.24 733.4C86.28 733.4 77.8 732.12 69.8 729.56C61.8 726.84 55.08 722.44 49.64 716.36C44.36 710.28 41 702.04 39.56 691.64L55.64 685.88C56.44 696.12 58.68 704.12 62.36 709.88C66.2 715.48 70.92 719.4 76.52 721.64C82.28 723.88 88.44 725 95 725ZM201.446 588.68C196.486 588.68 192.486 587.16 189.446 584.12C186.406 580.92 184.886 576.84 184.886 571.88C184.886 566.92 186.406 562.92 189.446 559.88C192.486 556.84 196.486 555.32 201.446 555.32C206.246 555.32 210.246 556.84 213.446 559.88C216.646 562.92 218.246 566.92 218.246 571.88C218.246 576.84 216.646 580.92 213.446 584.12C210.246 587.16 206.246 588.68 201.446 588.68ZM169.286 616.04V609.32H215.366V710.84C215.366 716.28 215.606 719.56 216.086 720.68C216.566 721.64 218.086 722.28 220.646 722.6L233.846 724.28V731H169.286V724.28L182.486 722.6C185.046 722.28 186.566 721.64 187.046 720.68C187.526 719.56 187.766 716.28 187.766 710.84V629.48C187.766 624.04 187.526 620.84 187.046 619.88C186.566 618.76 185.046 618.04 182.486 617.72L169.286 616.04ZM384.474 724.28V731H319.914V724.28L333.114 722.6C335.674 722.28 337.194 721.64 337.674 720.68C338.154 719.56 338.394 716.28 338.394 710.84V650.36C338.394 639.32 336.714 631.32 333.354 626.36C330.154 621.24 325.354 618.68 318.954 618.68C316.234 618.68 313.034 619.4 309.354 620.84C305.834 622.12 302.234 624.52 298.554 628.04C295.034 631.56 291.914 636.76 289.194 643.64V710.84C289.194 716.28 289.434 719.56 289.914 720.68C290.394 721.64 291.914 722.28 294.474 722.6L307.674 724.28V731H243.114V724.28L256.314 722.6C258.874 722.28 260.394 721.64 260.874 720.68C261.354 719.56 261.594 716.28 261.594 710.84V629.48C261.594 624.04 261.354 620.84 260.874 619.88C260.394 618.76 258.874 618.04 256.314 617.72L243.114 616.04V609.32H287.754V630.44C292.394 622.28 298.314 616.36 305.514 612.68C312.874 608.84 320.234 606.92 327.594 606.92C339.434 606.92 348.794 610.68 355.674 618.2C362.554 625.72 365.994 636.36 365.994 650.12V710.84C365.994 716.28 366.234 719.56 366.714 720.68C367.194 721.64 368.714 722.28 371.274 722.6L384.474 724.28ZM500.885 702.44C498.005 713.64 492.645 721.64 484.805 726.44C476.965 731.08 467.845 733.4 457.445 733.4C438.245 733.4 423.845 727.88 414.245 716.84C404.645 705.64 399.845 690.84 399.845 672.44V667.64C399.845 649.24 404.325 634.52 413.285 623.48C422.405 612.44 435.525 606.92 452.645 606.92C462.245 606.92 470.725 608.84 478.085 612.68C485.605 616.36 491.445 621.72 495.605 628.76C499.925 635.8 502.085 644.36 502.085 654.44C502.085 656.84 501.925 659.4 501.605 662.12C501.445 664.84 501.045 667.56 500.405 670.28H429.365V677.24C429.365 694.2 431.765 706.44 436.565 713.96C441.365 721.32 449.125 725 459.845 725C466.725 725 472.565 723 477.365 719C482.165 714.84 484.885 707.88 485.525 698.12L500.885 702.44ZM452.645 615.32C444.805 615.32 438.965 618.92 435.125 626.12C431.285 633.32 429.365 645.24 429.365 661.88H472.805C473.445 658.68 473.845 655.72 474.005 653C474.325 650.12 474.485 647.48 474.485 645.08C474.485 634.84 472.485 627.32 468.485 622.52C464.485 617.72 459.205 615.32 452.645 615.32ZM519.676 616.04V609.32H564.316V629C574.076 614.28 585.676 606.92 599.116 606.92C604.076 606.92 608.876 608.52 613.516 611.72C618.156 614.76 621.996 620.52 625.036 629L603.676 640.52C601.436 633.96 598.796 629.56 595.756 627.32C592.876 624.92 589.756 623.72 586.396 623.72C582.876 623.72 579.436 624.84 576.076 627.08C572.716 629.32 569.276 633.48 565.756 639.56V710.84C565.756 716.28 565.996 719.56 566.476 720.68C566.956 721.64 568.476 722.28 571.036 722.6L589.036 724.28V731H519.676V724.28L532.876 722.6C535.436 722.28 536.956 721.64 537.436 720.68C537.916 719.56 538.156 716.28 538.156 710.84V629.48C538.156 624.04 537.916 620.84 537.436 619.88C536.956 618.76 535.436 618.04 532.876 617.72L519.676 616.04ZM661.016 588.68C656.056 588.68 652.056 587.16 649.016 584.12C645.976 580.92 644.456 576.84 644.456 571.88C644.456 566.92 645.976 562.92 649.016 559.88C652.056 556.84 656.056 555.32 661.016 555.32C665.816 555.32 669.816 556.84 673.016 559.88C676.216 562.92 677.816 566.92 677.816 571.88C677.816 576.84 676.216 580.92 673.016 584.12C669.816 587.16 665.816 588.68 661.016 588.68ZM628.856 616.04V609.32H674.936V739.16C674.936 747.16 673.576 754.6 670.856 761.48C668.136 768.36 663.736 773.88 657.656 778.04C651.576 782.36 643.496 784.52 633.416 784.52C624.616 784.52 617.096 782.28 610.856 777.8C604.616 773.32 600.776 765.72 599.336 755L614.216 750.44C615.016 760.68 616.936 767.48 619.976 770.84C623.016 774.36 626.536 776.12 630.536 776.12C635.816 776.12 639.896 773.8 642.776 769.16C645.816 764.52 647.336 756.12 647.336 743.96V629.48C647.336 624.04 647.096 620.84 646.616 619.88C646.136 618.76 644.616 618.04 642.056 617.72L628.856 616.04ZM733.008 588.68C728.048 588.68 724.048 587.16 721.008 584.12C717.968 580.92 716.448 576.84 716.448 571.88C716.448 566.92 717.968 562.92 721.008 559.88C724.048 556.84 728.048 555.32 733.008 555.32C737.808 555.32 741.808 556.84 745.008 559.88C748.208 562.92 749.808 566.92 749.808 571.88C749.808 576.84 748.208 580.92 745.008 584.12C741.808 587.16 737.808 588.68 733.008 588.68ZM700.848 616.04V609.32H746.928V710.84C746.928 716.28 747.168 719.56 747.648 720.68C748.128 721.64 749.648 722.28 752.208 722.6L765.408 724.28V731H700.848V724.28L714.048 722.6C716.608 722.28 718.128 721.64 718.608 720.68C719.088 719.56 719.328 716.28 719.328 710.84V629.48C719.328 624.04 719.088 620.84 718.608 619.88C718.128 618.76 716.608 618.04 714.048 617.72L700.848 616.04Z" fill="#2589C4"/>
<path d="M118.76 718.28L120.51 720.717L120.521 720.709L118.76 718.28ZM121.88 678.68L119.613 680.645L119.631 680.666L119.65 680.687L121.88 678.68ZM99.32 666.68L98.4551 669.553L98.4643 669.555L98.4735 669.558L99.32 666.68ZM77 659.96L77.8649 657.087L77.862 657.087L77 659.96ZM51.08 642.68L48.6356 644.419L48.6547 644.446L48.6744 644.472L51.08 642.68ZM47.72 588.92L45.0863 587.483L45.0736 587.507L45.0613 587.53L47.72 588.92ZM65 571.88L63.5522 569.252L63.5407 569.259L63.5292 569.265L65 571.88ZM125.96 572.6L124.417 575.172L124.436 575.184L124.455 575.195L125.96 572.6ZM142.76 590.84L145.52 589.665H145.52L142.76 590.84ZM145.16 615.08L145.699 618.031L147.733 617.66L148.11 615.626L145.16 615.08ZM117.56 620.12L114.603 619.611L113.876 623.842L118.099 623.071L117.56 620.12ZM114.2 585.8L111.605 587.305L111.616 587.324L111.628 587.343L114.2 585.8ZM71.72 581L69.6337 578.844L69.6161 578.861L69.5987 578.879L71.72 581ZM70.76 621.08L68.3518 622.869L68.368 622.891L68.3847 622.912L70.76 621.08ZM91.88 634.04L90.9879 636.904L91.0015 636.909L91.0151 636.913L91.88 634.04ZM114.2 640.76L113.335 643.633L113.35 643.637L113.366 643.642L114.2 640.76ZM141.56 656.84L139.268 658.776L139.279 658.788L139.29 658.801L141.56 656.84ZM144.44 710.6L141.842 709.099L141.837 709.109L141.832 709.118L144.44 710.6ZM125.96 727.4L127.28 730.094L127.291 730.089L127.302 730.083L125.96 727.4ZM69.8 729.56L68.8343 732.4L68.8599 732.409L68.8857 732.417L69.8 729.56ZM49.64 716.36L47.3749 718.327L47.3895 718.344L47.4043 718.36L49.64 716.36ZM39.56 691.64L38.5483 688.816L36.2541 689.638L36.5884 692.051L39.56 691.64ZM55.64 685.88L58.6309 685.646L58.325 681.732L54.6283 683.056L55.64 685.88ZM62.36 709.88L59.8319 711.495L59.8582 711.536L59.8858 711.577L62.36 709.88ZM76.52 721.64L75.4058 724.425L75.4192 724.431L75.4327 724.436L76.52 721.64ZM95 725V728C105.069 728 113.645 725.646 120.51 720.717L118.76 718.28L117.01 715.843C111.395 719.874 104.131 722 95 722V725ZM118.76 718.28L120.521 720.709C127.884 715.371 131.36 707.149 131.36 696.68H128.36H125.36C125.36 705.731 122.436 711.909 116.999 715.851L118.76 718.28ZM128.36 696.68H131.36C131.36 688.831 128.984 682.089 124.11 676.673L121.88 678.68L119.65 680.687C123.416 684.871 125.36 690.129 125.36 696.68H128.36ZM121.88 678.68L124.147 676.715C119.417 671.258 111.222 667.053 100.167 663.802L99.32 666.68L98.4735 669.558C109.178 672.707 116.023 676.502 119.613 680.645L121.88 678.68ZM99.32 666.68L100.185 663.807L77.8649 657.087L77 659.96L76.1351 662.833L98.4551 669.553L99.32 666.68ZM77 659.96L77.862 657.087C67.1835 653.883 59.1248 648.456 53.4857 640.888L51.08 642.68L48.6744 644.472C55.1952 653.224 64.4165 659.317 76.138 662.833L77 659.96ZM51.08 642.68L53.5244 640.941C48.0351 633.226 45.2 623.548 45.2 611.72H42.2H39.2C39.2 624.532 42.2849 635.494 48.6356 644.419L51.08 642.68ZM42.2 611.72H45.2C45.2 604.03 46.9291 596.909 50.3787 590.31L47.72 588.92L45.0613 587.53C41.1509 595.011 39.2 603.09 39.2 611.72H42.2ZM47.72 588.92L50.3537 590.357C53.8979 583.859 59.2311 578.567 66.4708 574.495L65 571.88L63.5292 569.265C55.4089 573.833 49.2221 579.901 45.0863 587.483L47.72 588.92ZM65 571.88L66.4478 574.508C73.7241 570.498 83.0285 568.4 94.52 568.4V565.4V562.4C82.3315 562.4 71.9559 564.622 63.5522 569.252L65 571.88ZM94.52 565.4V568.4C107.139 568.4 117.03 570.741 124.417 575.172L125.96 572.6L127.503 570.028C118.89 564.859 107.821 562.4 94.52 562.4V565.4ZM125.96 572.6L124.455 575.195C131.971 579.555 137.086 585.169 140 592.015L142.76 590.84L145.52 589.665C142.034 581.471 135.949 574.925 127.465 570.005L125.96 572.6ZM142.76 590.84L140 592.015C142.951 598.951 143.711 606.428 142.21 614.534L145.16 615.08L148.11 615.626C149.809 606.452 148.969 597.769 145.52 589.665L142.76 590.84ZM145.16 615.08L144.621 612.129L117.021 617.169L117.56 620.12L118.099 623.071L145.699 618.031L145.16 615.08ZM117.56 620.12L120.517 620.629C123.128 605.451 122.111 593.154 116.772 584.257L114.2 585.8L111.628 587.343C115.889 594.446 117.112 605.029 114.603 619.611L117.56 620.12ZM114.2 585.8L116.795 584.295C111.533 575.222 102.848 570.8 91.4 570.8V573.8V576.8C101.072 576.8 107.587 580.378 111.605 587.305L114.2 585.8ZM91.4 573.8V570.8C82.6132 570.8 75.2536 573.406 69.6337 578.844L71.72 581L73.8063 583.156C78.1064 578.994 83.8668 576.8 91.4 576.8V573.8ZM71.72 581L69.5987 578.879C64.0735 584.404 61.52 592.148 61.52 601.64H64.52H67.52C67.52 593.212 69.7665 587.196 73.8413 583.121L71.72 581ZM64.52 601.64H61.52C61.52 609.607 63.7855 616.722 68.3518 622.869L70.76 621.08L73.1682 619.291C69.4145 614.238 67.52 608.393 67.52 601.64H64.52ZM70.76 621.08L68.3847 622.912C73.215 629.174 80.89 633.759 90.9879 636.904L91.88 634.04L92.7722 631.176C83.35 628.241 76.945 624.186 73.1353 619.248L70.76 621.08ZM91.88 634.04L91.0151 636.913L113.335 643.633L114.2 640.76L115.065 637.887L92.7449 631.167L91.88 634.04ZM114.2 640.76L113.366 643.642C125.148 647.052 133.681 652.159 139.268 658.776L141.56 656.84L143.852 654.904C137.279 647.121 127.572 641.508 115.034 637.878L114.2 640.76ZM141.56 656.84L139.29 658.801C144.753 665.127 147.68 674.18 147.68 686.36H150.68H153.68C153.68 673.26 150.527 662.633 143.83 654.879L141.56 656.84ZM150.68 686.36H147.68C147.68 694.835 145.718 702.391 141.842 709.099L144.44 710.6L147.038 712.101C151.482 704.409 153.68 695.805 153.68 686.36H150.68ZM144.44 710.6L141.832 709.118C138.167 715.567 132.488 720.782 124.618 724.717L125.96 727.4L127.302 730.083C136.072 725.698 142.713 719.713 147.048 712.082L144.44 710.6ZM125.96 727.4L124.64 724.706C117.01 728.446 107.257 730.4 95.24 730.4V733.4V736.4C107.863 736.4 118.59 734.354 127.28 730.094L125.96 727.4ZM95.24 733.4V730.4C86.5696 730.4 78.3997 729.162 70.7143 726.703L69.8 729.56L68.8857 732.417C77.2004 735.078 85.9904 736.4 95.24 736.4V733.4ZM69.8 729.56L70.7657 726.72C63.2361 724.16 56.9591 720.041 51.8757 714.36L49.64 716.36L47.4043 718.36C53.2009 724.839 60.3639 729.52 68.8343 732.4L69.8 729.56ZM49.64 716.36L51.9051 714.393C47.1065 708.867 43.9158 701.225 42.5317 691.229L39.56 691.64L36.5884 692.051C38.0842 702.855 41.6135 711.693 47.3749 718.327L49.64 716.36ZM39.56 691.64L40.5717 694.464L56.6517 688.704L55.64 685.88L54.6283 683.056L38.5483 688.816L39.56 691.64ZM55.64 685.88L52.6491 686.114C53.4698 696.618 55.7862 705.163 59.8319 711.495L62.36 709.88L64.8881 708.265C61.5738 703.077 59.4102 695.622 58.6309 685.646L55.64 685.88ZM62.36 709.88L59.8858 711.577C64.0178 717.602 69.1871 721.938 75.4058 724.425L76.52 721.64L77.6342 718.855C72.6529 716.862 68.3822 713.358 64.8342 708.183L62.36 709.88ZM76.52 721.64L75.4327 724.436C81.5602 726.819 88.0911 728 95 728V725V722C88.7889 722 82.9998 720.941 77.6073 718.844L76.52 721.64ZM189.446 584.12L187.271 586.186L187.297 586.214L187.324 586.241L189.446 584.12ZM189.446 559.88L187.324 557.759V557.759L189.446 559.88ZM213.446 559.88L215.512 557.705V557.705L213.446 559.88ZM213.446 584.12L215.512 586.295L215.54 586.269L215.567 586.241L213.446 584.12ZM169.286 616.04H166.286V618.682L168.907 619.016L169.286 616.04ZM169.286 609.32V606.32H166.286V609.32H169.286ZM215.366 609.32H218.366V606.32H215.366V609.32ZM216.086 720.68L213.328 721.862L213.363 721.943L213.402 722.022L216.086 720.68ZM220.646 722.6L221.024 719.624L221.018 719.623L220.646 722.6ZM233.846 724.28H236.846V721.638L234.224 721.304L233.846 724.28ZM233.846 731V734H236.846V731H233.846ZM169.286 731H166.286V734H169.286V731ZM169.286 724.28L168.907 721.304L166.286 721.638V724.28H169.286ZM182.486 722.6L182.114 719.623L182.107 719.624L182.486 722.6ZM187.046 720.68L189.729 722.022L189.768 721.943L189.803 721.862L187.046 720.68ZM187.046 619.88L184.288 621.062L184.323 621.143L184.362 621.222L187.046 619.88ZM182.486 617.72L182.107 620.696L182.114 620.697L182.486 617.72ZM201.446 588.68V585.68C197.149 585.68 193.957 584.389 191.567 581.999L189.446 584.12L187.324 586.241C191.014 589.931 195.822 591.68 201.446 591.68V588.68ZM189.446 584.12L191.621 582.054C189.177 579.482 187.886 576.174 187.886 571.88H184.886H181.886C181.886 577.506 183.634 582.358 187.271 586.186L189.446 584.12ZM184.886 571.88H187.886C187.886 567.583 189.177 564.391 191.567 562.001L189.446 559.88L187.324 557.759C183.634 561.449 181.886 566.257 181.886 571.88H184.886ZM189.446 559.88L191.567 562.001C193.957 559.611 197.149 558.32 201.446 558.32V555.32V552.32C195.822 552.32 191.014 554.069 187.324 557.759L189.446 559.88ZM201.446 555.32V558.32C205.55 558.32 208.788 559.593 211.379 562.055L213.446 559.88L215.512 557.705C211.703 554.087 206.941 552.32 201.446 552.32V555.32ZM213.446 559.88L211.379 562.055C213.907 564.456 215.246 567.63 215.246 571.88H218.246H221.246C221.246 566.21 219.385 561.384 215.512 557.705L213.446 559.88ZM218.246 571.88H215.246C215.246 576.128 213.905 579.418 211.324 581.999L213.446 584.12L215.567 586.241C219.386 582.422 221.246 577.552 221.246 571.88H218.246ZM213.446 584.12L211.379 581.945C208.788 584.407 205.55 585.68 201.446 585.68V588.68V591.68C206.941 591.68 211.703 589.913 215.512 586.295L213.446 584.12ZM169.286 616.04H172.286V609.32H169.286H166.286V616.04H169.286ZM169.286 609.32V612.32H215.366V609.32V606.32H169.286V609.32ZM215.366 609.32H212.366V710.84H215.366H218.366V609.32H215.366ZM215.366 710.84H212.366C212.366 713.593 212.426 715.855 212.554 717.599C212.67 719.189 212.863 720.776 213.328 721.862L216.086 720.68L218.843 719.498C218.867 719.555 218.809 719.424 218.731 718.951C218.661 718.519 218.594 717.93 218.538 717.161C218.425 715.625 218.366 713.527 218.366 710.84H215.366ZM216.086 720.68L213.402 722.022C214.096 723.408 215.34 724.19 216.421 724.645C217.535 725.114 218.856 725.4 220.274 725.577L220.646 722.6L221.018 719.623C219.875 719.48 219.156 719.286 218.75 719.115C218.311 718.93 218.556 718.912 218.769 719.338L216.086 720.68ZM220.646 722.6L220.267 725.576L233.467 727.256L233.846 724.28L234.224 721.304L221.024 719.624L220.646 722.6ZM233.846 724.28H230.846V731H233.846H236.846V724.28H233.846ZM233.846 731V728H169.286V731V734H233.846V731ZM169.286 731H172.286V724.28H169.286H166.286V731H169.286ZM169.286 724.28L169.664 727.256L182.864 725.576L182.486 722.6L182.107 719.624L168.907 721.304L169.286 724.28ZM182.486 722.6L182.858 725.577C184.275 725.4 185.596 725.114 186.71 724.645C187.791 724.19 189.036 723.408 189.729 722.022L187.046 720.68L184.362 719.338C184.576 718.912 184.82 718.93 184.381 719.115C183.975 719.286 183.256 719.48 182.114 719.623L182.486 722.6ZM187.046 720.68L189.803 721.862C190.269 720.776 190.461 719.189 190.578 717.599C190.705 715.855 190.766 713.593 190.766 710.84H187.766H184.766C184.766 713.527 184.706 715.625 184.594 717.161C184.537 717.93 184.471 718.519 184.4 718.951C184.323 719.424 184.264 719.555 184.288 719.498L187.046 720.68ZM187.766 710.84H190.766V629.48H187.766H184.766V710.84H187.766ZM187.766 629.48H190.766C190.766 626.729 190.705 624.484 190.577 622.776C190.513 621.923 190.429 621.159 190.317 620.508C190.215 619.922 190.052 619.185 189.729 618.538L187.046 619.88L184.362 621.222C184.279 621.055 184.326 621.078 184.405 621.532C184.472 621.921 184.538 622.477 184.594 623.224C184.706 624.716 184.766 626.791 184.766 629.48H187.766ZM187.046 619.88L189.803 618.698C189.181 617.248 187.999 616.343 186.83 615.789C185.671 615.24 184.304 614.924 182.858 614.743L182.486 617.72L182.114 620.697C183.227 620.836 183.9 621.04 184.261 621.211C184.612 621.377 184.43 621.392 184.288 621.062L187.046 619.88ZM182.486 617.72L182.864 614.744L169.664 613.064L169.286 616.04L168.907 619.016L182.107 620.696L182.486 617.72ZM384.474 724.28H387.474V721.638L384.853 721.304L384.474 724.28ZM384.474 731V734H387.474V731H384.474ZM319.914 731H316.914V734H319.914V731ZM319.914 724.28L319.535 721.304L316.914 721.638V724.28H319.914ZM333.114 722.6L332.742 719.623L332.735 719.624L333.114 722.6ZM337.674 720.68L340.357 722.022L340.396 721.943L340.431 721.862L337.674 720.68ZM333.354 626.36L330.81 627.95L330.839 627.997L330.87 628.043L333.354 626.36ZM309.354 620.84L310.379 623.659L310.413 623.647L310.447 623.634L309.354 620.84ZM298.554 628.04L296.48 625.872L296.456 625.895L296.432 625.919L298.554 628.04ZM289.194 643.64L286.404 642.537L286.194 643.068V643.64H289.194ZM289.914 720.68L287.156 721.862L287.191 721.943L287.23 722.022L289.914 720.68ZM294.474 722.6L294.853 719.624L294.846 719.623L294.474 722.6ZM307.674 724.28H310.674V721.638L308.053 721.304L307.674 724.28ZM307.674 731V734H310.674V731H307.674ZM243.114 731H240.114V734H243.114V731ZM243.114 724.28L242.735 721.304L240.114 721.638V724.28H243.114ZM256.314 722.6L255.942 719.623L255.935 719.624L256.314 722.6ZM260.874 720.68L263.557 722.022L263.596 721.943L263.631 721.862L260.874 720.68ZM260.874 619.88L258.116 621.062L258.151 621.143L258.19 621.222L260.874 619.88ZM256.314 617.72L255.935 620.696L255.942 620.697L256.314 617.72ZM243.114 616.04H240.114V618.682L242.735 619.016L243.114 616.04ZM243.114 609.32V606.32H240.114V609.32H243.114ZM287.754 609.32H290.754V606.32H287.754V609.32ZM287.754 630.44H284.754V641.785L290.362 631.923L287.754 630.44ZM305.514 612.68L306.879 615.351L306.89 615.346L306.901 615.34L305.514 612.68ZM355.674 618.2L353.46 620.225V620.225L355.674 618.2ZM366.714 720.68L363.956 721.862L363.991 721.943L364.03 722.022L366.714 720.68ZM371.274 722.6L371.653 719.624L371.646 719.623L371.274 722.6ZM384.474 724.28H381.474V731H384.474H387.474V724.28H384.474ZM384.474 731V728H319.914V731V734H384.474V731ZM319.914 731H322.914V724.28H319.914H316.914V731H319.914ZM319.914 724.28L320.293 727.256L333.493 725.576L333.114 722.6L332.735 719.624L319.535 721.304L319.914 724.28ZM333.114 722.6L333.486 725.577C334.903 725.4 336.224 725.114 337.338 724.645C338.419 724.19 339.664 723.408 340.357 722.022L337.674 720.68L334.99 719.338C335.204 718.912 335.449 718.93 335.01 719.115C334.603 719.286 333.884 719.48 332.742 719.623L333.114 722.6ZM337.674 720.68L340.431 721.862C340.897 720.776 341.089 719.189 341.206 717.599C341.333 715.855 341.394 713.593 341.394 710.84H338.394H335.394C335.394 713.527 335.334 715.625 335.222 717.161C335.166 717.93 335.099 718.519 335.028 718.951C334.951 719.424 334.892 719.555 334.916 719.498L337.674 720.68ZM338.394 710.84H341.394V650.36H338.394H335.394V710.84H338.394ZM338.394 650.36H341.394C341.394 639.155 339.715 630.401 335.838 624.677L333.354 626.36L330.87 628.043C333.712 632.239 335.394 639.485 335.394 650.36H338.394ZM333.354 626.36L335.898 624.77C332.111 618.711 326.313 615.68 318.954 615.68V618.68V621.68C324.394 621.68 328.197 623.769 330.81 627.95L333.354 626.36ZM318.954 618.68V615.68C315.731 615.68 312.145 616.526 308.261 618.046L309.354 620.84L310.447 623.634C313.923 622.274 316.736 621.68 318.954 621.68V618.68ZM309.354 620.84L308.329 618.021C304.304 619.484 300.359 622.162 296.48 625.872L298.554 628.04L300.627 630.208C304.109 626.878 307.363 624.756 310.379 623.659L309.354 620.84ZM298.554 628.04L296.432 625.919C292.517 629.834 289.208 635.444 286.404 642.537L289.194 643.64L291.984 644.743C294.62 638.076 297.551 633.286 300.675 630.161L298.554 628.04ZM289.194 643.64H286.194V710.84H289.194H292.194V643.64H289.194ZM289.194 710.84H286.194C286.194 713.593 286.254 715.855 286.382 717.599C286.498 719.189 286.691 720.776 287.156 721.862L289.914 720.68L292.671 719.498C292.695 719.555 292.637 719.424 292.559 718.951C292.489 718.519 292.422 717.93 292.366 717.161C292.253 715.625 292.194 713.527 292.194 710.84H289.194ZM289.914 720.68L287.23 722.022C287.924 723.408 289.169 724.19 290.25 724.645C291.363 725.114 292.684 725.4 294.102 725.577L294.474 722.6L294.846 719.623C293.703 719.48 292.984 719.286 292.578 719.115C292.139 718.93 292.384 718.912 292.597 719.338L289.914 720.68ZM294.474 722.6L294.095 725.576L307.295 727.256L307.674 724.28L308.053 721.304L294.853 719.624L294.474 722.6ZM307.674 724.28H304.674V731H307.674H310.674V724.28H307.674ZM307.674 731V728H243.114V731V734H307.674V731ZM243.114 731H246.114V724.28H243.114H240.114V731H243.114ZM243.114 724.28L243.493 727.256L256.693 725.576L256.314 722.6L255.935 719.624L242.735 721.304L243.114 724.28ZM256.314 722.6L256.686 725.577C258.103 725.4 259.424 725.114 260.538 724.645C261.619 724.19 262.864 723.408 263.557 722.022L260.874 720.68L258.19 719.338C258.404 718.912 258.649 718.93 258.21 719.115C257.803 719.286 257.084 719.48 255.942 719.623L256.314 722.6ZM260.874 720.68L263.631 721.862C264.097 720.776 264.289 719.189 264.406 717.599C264.533 715.855 264.594 713.593 264.594 710.84H261.594H258.594C258.594 713.527 258.534 715.625 258.422 717.161C258.366 717.93 258.299 718.519 258.228 718.951C258.151 719.424 258.092 719.555 258.116 719.498L260.874 720.68ZM261.594 710.84H264.594V629.48H261.594H258.594V710.84H261.594ZM261.594 629.48H264.594C264.594 626.729 264.533 624.484 264.405 622.776C264.341 621.923 264.257 621.159 264.145 620.508C264.043 619.922 263.88 619.185 263.557 618.538L260.874 619.88L258.19 621.222C258.107 621.055 258.154 621.078 258.233 621.532C258.3 621.921 258.366 622.477 258.422 623.224C258.534 624.716 258.594 626.791 258.594 629.48H261.594ZM260.874 619.88L263.631 618.698C263.009 617.248 261.827 616.343 260.658 615.789C259.499 615.24 258.132 614.924 256.686 614.743L256.314 617.72L255.942 620.697C257.055 620.836 257.728 621.04 258.089 621.211C258.44 621.377 258.258 621.392 258.116 621.062L260.874 619.88ZM256.314 617.72L256.693 614.744L243.493 613.064L243.114 616.04L242.735 619.016L255.935 620.696L256.314 617.72ZM243.114 616.04H246.114V609.32H243.114H240.114V616.04H243.114ZM243.114 609.32V612.32H287.754V609.32V606.32H243.114V609.32ZM287.754 609.32H284.754V630.44H287.754H290.754V609.32H287.754ZM287.754 630.44L290.362 631.923C294.76 624.188 300.28 618.724 306.879 615.351L305.514 612.68L304.148 610.009C296.347 613.996 290.028 620.372 285.146 628.957L287.754 630.44ZM305.514 612.68L306.901 615.34C313.888 611.694 320.776 609.92 327.594 609.92V606.92V603.92C319.692 603.92 311.859 605.986 304.126 610.02L305.514 612.68ZM327.594 606.92V609.92C338.741 609.92 347.242 613.428 353.46 620.225L355.674 618.2L357.887 616.175C350.345 607.932 340.126 603.92 327.594 603.92V606.92ZM355.674 618.2L353.46 620.225C359.68 627.023 362.994 636.843 362.994 650.12H365.994H368.994C368.994 635.877 365.428 624.417 357.887 616.175L355.674 618.2ZM365.994 650.12H362.994V710.84H365.994H368.994V650.12H365.994ZM365.994 710.84H362.994C362.994 713.593 363.054 715.855 363.182 717.599C363.298 719.189 363.491 720.776 363.956 721.862L366.714 720.68L369.471 719.498C369.495 719.555 369.437 719.424 369.359 718.951C369.289 718.519 369.222 717.93 369.166 717.161C369.053 715.625 368.994 713.527 368.994 710.84H365.994ZM366.714 720.68L364.03 722.022C364.724 723.408 365.969 724.19 367.05 724.645C368.163 725.114 369.484 725.4 370.902 725.577L371.274 722.6L371.646 719.623C370.503 719.48 369.784 719.286 369.378 719.115C368.939 718.93 369.184 718.912 369.397 719.338L366.714 720.68ZM371.274 722.6L370.895 725.576L384.095 727.256L384.474 724.28L384.853 721.304L371.653 719.624L371.274 722.6ZM500.885 702.44L503.79 703.187L504.521 700.346L501.697 699.552L500.885 702.44ZM484.805 726.44L486.333 729.022L486.352 729.01L486.371 728.999L484.805 726.44ZM414.245 716.84L411.967 718.792L411.974 718.8L411.981 718.809L414.245 716.84ZM413.285 623.48L410.972 621.569L410.964 621.579L410.956 621.589L413.285 623.48ZM478.085 612.68L476.697 615.34L476.732 615.358L476.766 615.375L478.085 612.68ZM495.605 628.76L493.022 630.286L493.035 630.308L493.048 630.329L495.605 628.76ZM501.605 662.12L498.626 661.769L498.615 661.856L498.61 661.944L501.605 662.12ZM500.405 670.28V673.28H502.781L503.325 670.967L500.405 670.28ZM429.365 670.28V667.28H426.365V670.28H429.365ZM436.565 713.96L434.036 715.574L434.044 715.586L434.052 715.599L436.565 713.96ZM477.365 719L479.286 721.305L479.308 721.286L479.33 721.267L477.365 719ZM485.525 698.12L486.337 695.232L482.774 694.23L482.531 697.924L485.525 698.12ZM435.125 626.12L437.772 627.532L435.125 626.12ZM429.365 661.88H426.365V664.88H429.365V661.88ZM472.805 661.88V664.88H475.264L475.747 662.468L472.805 661.88ZM474.005 653L471.023 652.669L471.015 652.746L471.01 652.824L474.005 653ZM500.885 702.44L497.98 701.693C495.241 712.342 490.253 719.587 483.239 723.881L484.805 726.44L486.371 728.999C495.037 723.693 500.769 714.938 503.79 703.187L500.885 702.44ZM484.805 726.44L483.277 723.858C475.962 728.188 467.385 730.4 457.445 730.4V733.4V736.4C468.305 736.4 477.968 733.973 486.333 729.022L484.805 726.44ZM457.445 733.4V730.4C438.825 730.4 425.374 725.066 416.509 714.871L414.245 716.84L411.981 718.809C422.316 730.694 437.665 736.4 457.445 736.4V733.4ZM414.245 716.84L416.523 714.888C407.496 704.356 402.845 690.307 402.845 672.44H399.845H396.845C396.845 691.373 401.794 706.924 411.967 718.792L414.245 716.84ZM399.845 672.44H402.845V667.64H399.845H396.845V672.44H399.845ZM399.845 667.64H402.845C402.845 649.723 407.202 635.736 415.614 625.371L413.285 623.48L410.956 621.589C401.448 633.304 396.845 648.757 396.845 667.64H399.845ZM413.285 623.48L415.598 625.391C424.035 615.177 436.226 609.92 452.645 609.92V606.92V603.92C434.824 603.92 420.775 609.703 410.972 621.569L413.285 623.48ZM452.645 606.92V609.92C461.838 609.92 469.828 611.756 476.697 615.34L478.085 612.68L479.473 610.02C471.622 605.924 462.652 603.92 452.645 603.92V606.92ZM478.085 612.68L476.766 615.375C483.773 618.804 489.168 623.763 493.022 630.286L495.605 628.76L498.188 627.234C493.722 619.677 487.437 613.916 479.404 609.985L478.085 612.68ZM495.605 628.76L493.048 630.329C497.02 636.803 499.085 644.792 499.085 654.44H502.085H505.085C505.085 643.928 502.83 634.797 498.162 627.191L495.605 628.76ZM502.085 654.44H499.085C499.085 656.708 498.934 659.15 498.626 661.769L501.605 662.12L504.584 662.471C504.916 659.65 505.085 656.972 505.085 654.44H502.085ZM501.605 662.12L498.61 661.944C498.461 664.487 498.086 667.036 497.485 669.593L500.405 670.28L503.325 670.967C504.004 668.084 504.429 665.193 504.6 662.296L501.605 662.12ZM500.405 670.28V667.28H429.365V670.28V673.28H500.405V670.28ZM429.365 670.28H426.365V677.24H429.365H432.365V670.28H429.365ZM429.365 677.24H426.365C426.365 694.337 428.757 707.304 434.036 715.574L436.565 713.96L439.094 712.346C434.773 705.576 432.365 694.063 432.365 677.24H429.365ZM436.565 713.96L434.052 715.599C439.533 724.002 448.367 728 459.845 728V725V722C449.883 722 443.197 718.638 439.078 712.321L436.565 713.96ZM459.845 725V728C467.351 728 473.891 725.8 479.286 721.305L477.365 719L475.444 716.695C471.239 720.2 466.099 722 459.845 722V725ZM477.365 719L479.33 721.267C484.995 716.358 487.854 708.453 488.519 698.316L485.525 698.12L482.531 697.924C481.916 707.307 479.335 713.322 475.4 716.733L477.365 719ZM485.525 698.12L484.713 701.008L500.073 705.328L500.885 702.44L501.697 699.552L486.337 695.232L485.525 698.12ZM452.645 615.32V612.32C448.25 612.32 444.269 613.335 440.811 615.466C437.359 617.594 434.6 620.729 432.478 624.708L435.125 626.12L437.772 627.532C439.49 624.311 441.571 622.046 443.959 620.574C446.341 619.105 449.2 618.32 452.645 618.32V615.32ZM435.125 626.12L432.478 624.708C428.269 632.6 426.365 645.159 426.365 661.88H429.365H432.365C432.365 645.321 434.301 634.04 437.772 627.532L435.125 626.12ZM429.365 661.88V664.88H472.805V661.88V658.88H429.365V661.88ZM472.805 661.88L475.747 662.468C476.409 659.158 476.83 656.058 477 653.176L474.005 653L471.01 652.824C470.86 655.382 470.481 658.202 469.863 661.292L472.805 661.88ZM474.005 653L476.987 653.331C477.316 650.363 477.485 647.611 477.485 645.08H474.485H471.485C471.485 647.349 471.334 649.877 471.023 652.669L474.005 653ZM474.485 645.08H477.485C477.485 634.555 475.448 626.189 470.79 620.599L468.485 622.52L466.18 624.441C469.522 628.451 471.485 635.125 471.485 645.08H474.485ZM468.485 622.52L470.79 620.599C466.188 615.077 460.044 612.32 452.645 612.32V615.32V618.32C458.366 618.32 462.782 620.363 466.18 624.441L468.485 622.52ZM519.676 616.04H516.676V618.682L519.297 619.016L519.676 616.04ZM519.676 609.32V606.32H516.676V609.32H519.676ZM564.316 609.32H567.316V606.32H564.316V609.32ZM564.316 629H561.316V638.953L566.817 630.658L564.316 629ZM613.516 611.72L611.813 614.19L611.842 614.21L611.872 614.229L613.516 611.72ZM625.036 629L626.46 631.64L628.731 630.416L627.86 627.988L625.036 629ZM603.676 640.52L600.837 641.489L601.982 644.842L605.1 643.16L603.676 640.52ZM595.756 627.32L593.836 629.625L593.905 629.682L593.977 629.735L595.756 627.32ZM565.756 639.56L563.16 638.057L562.756 638.754V639.56H565.756ZM566.476 720.68L563.719 721.862L563.754 721.943L563.793 722.022L566.476 720.68ZM571.036 722.6L570.664 725.577L570.711 725.583L570.757 725.587L571.036 722.6ZM589.036 724.28H592.036V721.547L589.315 721.293L589.036 724.28ZM589.036 731V734H592.036V731H589.036ZM519.676 731H516.676V734H519.676V731ZM519.676 724.28L519.297 721.304L516.676 721.638V724.28H519.676ZM532.876 722.6L532.504 719.623L532.497 719.624L532.876 722.6ZM537.436 720.68L540.12 722.022L540.159 721.943L540.194 721.862L537.436 720.68ZM537.436 619.88L534.679 621.062L534.714 621.143L534.753 621.222L537.436 619.88ZM532.876 617.72L532.497 620.696L532.504 620.697L532.876 617.72ZM519.676 616.04H522.676V609.32H519.676H516.676V616.04H519.676ZM519.676 609.32V612.32H564.316V609.32V606.32H519.676V609.32ZM564.316 609.32H561.316V629H564.316H567.316V609.32H564.316ZM564.316 629L566.817 630.658C576.215 616.482 586.99 609.92 599.116 609.92V606.92V603.92C584.363 603.92 571.937 612.078 561.816 627.342L564.316 629ZM599.116 606.92V609.92C603.387 609.92 607.603 611.286 611.813 614.19L613.516 611.72L615.219 609.25C610.149 605.754 604.765 603.92 599.116 603.92V606.92ZM613.516 611.72L611.872 614.229C615.72 616.75 619.266 621.794 622.212 630.012L625.036 629L627.86 627.988C624.727 619.246 620.593 612.77 615.16 609.211L613.516 611.72ZM625.036 629L623.612 626.36L602.252 637.88L603.676 640.52L605.1 643.16L626.46 631.64L625.036 629ZM603.676 640.52L606.515 639.551C604.22 632.83 601.332 627.702 597.536 624.905L595.756 627.32L593.977 629.735C596.26 631.418 598.652 635.09 600.837 641.489L603.676 640.52ZM595.756 627.32L597.677 625.015C594.324 622.221 590.54 620.72 586.396 620.72V623.72V626.72C588.973 626.72 591.428 627.619 593.836 629.625L595.756 627.32ZM586.396 623.72V620.72C582.2 620.72 578.19 622.065 574.412 624.584L576.076 627.08L577.74 629.576C580.682 627.615 583.552 626.72 586.396 626.72V623.72ZM576.076 627.08L574.412 624.584C570.484 627.203 566.764 631.832 563.16 638.057L565.756 639.56L568.353 641.063C571.789 635.128 574.949 631.437 577.74 629.576L576.076 627.08ZM565.756 639.56H562.756V710.84H565.756H568.756V639.56H565.756ZM565.756 710.84H562.756C562.756 713.593 562.817 715.855 562.944 717.599C563.061 719.189 563.253 720.776 563.719 721.862L566.476 720.68L569.234 719.498C569.258 719.555 569.199 719.424 569.122 718.951C569.051 718.519 568.984 717.93 568.928 717.161C568.816 715.625 568.756 713.527 568.756 710.84H565.756ZM566.476 720.68L563.793 722.022C564.486 723.408 565.731 724.19 566.812 724.645C567.926 725.114 569.247 725.4 570.664 725.577L571.036 722.6L571.408 719.623C570.266 719.48 569.547 719.286 569.14 719.115C568.701 718.93 568.946 718.912 569.16 719.338L566.476 720.68ZM571.036 722.6L570.757 725.587L588.757 727.267L589.036 724.28L589.315 721.293L571.315 719.613L571.036 722.6ZM589.036 724.28H586.036V731H589.036H592.036V724.28H589.036ZM589.036 731V728H519.676V731V734H589.036V731ZM519.676 731H522.676V724.28H519.676H516.676V731H519.676ZM519.676 724.28L520.055 727.256L533.255 725.576L532.876 722.6L532.497 719.624L519.297 721.304L519.676 724.28ZM532.876 722.6L533.248 725.577C534.666 725.4 535.987 725.114 537.1 724.645C538.181 724.19 539.426 723.408 540.12 722.022L537.436 720.68L534.753 719.338C534.966 718.912 535.211 718.93 534.772 719.115C534.366 719.286 533.647 719.48 532.504 719.623L532.876 722.6ZM537.436 720.68L540.194 721.862C540.659 720.776 540.852 719.189 540.968 717.599C541.096 715.855 541.156 713.593 541.156 710.84H538.156H535.156C535.156 713.527 535.097 715.625 534.984 717.161C534.928 717.93 534.861 718.519 534.791 718.951C534.713 719.424 534.655 719.555 534.679 719.498L537.436 720.68ZM538.156 710.84H541.156V629.48H538.156H535.156V710.84H538.156ZM538.156 629.48H541.156C541.156 626.729 541.096 624.484 540.968 622.776C540.904 621.923 540.82 621.159 540.707 620.508C540.606 619.922 540.443 619.185 540.12 618.538L537.436 619.88L534.753 621.222C534.67 621.055 534.717 621.078 534.795 621.532C534.863 621.921 534.929 622.477 534.985 623.224C535.097 624.716 535.156 626.791 535.156 629.48H538.156ZM537.436 619.88L540.194 618.698C539.572 617.248 538.39 616.343 537.221 615.789C536.062 615.24 534.695 614.924 533.248 614.743L532.876 617.72L532.504 620.697C533.618 620.836 534.291 621.04 534.652 621.211C535.003 621.377 534.821 621.392 534.679 621.062L537.436 619.88ZM532.876 617.72L533.255 614.744L520.055 613.064L519.676 616.04L519.297 619.016L532.497 620.696L532.876 617.72ZM649.016 584.12L646.841 586.186L646.867 586.214L646.894 586.241L649.016 584.12ZM649.016 559.88L646.894 557.759V557.759L649.016 559.88ZM673.016 559.88L675.082 557.705V557.705L673.016 559.88ZM673.016 584.12L675.082 586.295L675.11 586.269L675.137 586.241L673.016 584.12ZM628.856 616.04H625.856V618.682L628.477 619.016L628.856 616.04ZM628.856 609.32V606.32H625.856V609.32H628.856ZM674.936 609.32H677.936V606.32H674.936V609.32ZM670.856 761.48L673.646 762.583V762.583L670.856 761.48ZM657.656 778.04L655.962 775.564L655.94 775.579L655.918 775.594L657.656 778.04ZM610.856 777.8L609.106 780.237L610.856 777.8ZM599.336 755L598.457 752.132L596.024 752.877L596.362 755.399L599.336 755ZM614.216 750.44L617.206 750.206L616.915 746.475L613.337 747.572L614.216 750.44ZM619.976 770.84L622.246 768.879L622.223 768.853L622.2 768.827L619.976 770.84ZM642.776 769.16L640.266 767.516L640.246 767.547L640.227 767.578L642.776 769.16ZM646.616 619.88L643.858 621.062L643.893 621.143L643.932 621.222L646.616 619.88ZM642.056 617.72L641.677 620.696L641.684 620.697L642.056 617.72ZM661.016 588.68V585.68C656.719 585.68 653.527 584.389 651.137 581.999L649.016 584.12L646.894 586.241C650.584 589.931 655.392 591.68 661.016 591.68V588.68ZM649.016 584.12L651.191 582.054C648.747 579.482 647.456 576.174 647.456 571.88H644.456H641.456C641.456 577.506 643.204 582.358 646.841 586.186L649.016 584.12ZM644.456 571.88H647.456C647.456 567.583 648.747 564.391 651.137 562.001L649.016 559.88L646.894 557.759C643.204 561.449 641.456 566.257 641.456 571.88H644.456ZM649.016 559.88L651.137 562.001C653.527 559.611 656.719 558.32 661.016 558.32V555.32V552.32C655.392 552.32 650.584 554.069 646.894 557.759L649.016 559.88ZM661.016 555.32V558.32C665.12 558.32 668.358 559.593 670.949 562.055L673.016 559.88L675.082 557.705C671.273 554.087 666.511 552.32 661.016 552.32V555.32ZM673.016 559.88L670.949 562.055C673.477 564.456 674.816 567.63 674.816 571.88H677.816H680.816C680.816 566.21 678.955 561.384 675.082 557.705L673.016 559.88ZM677.816 571.88H674.816C674.816 576.128 673.475 579.418 670.894 581.999L673.016 584.12L675.137 586.241C678.956 582.422 680.816 577.552 680.816 571.88H677.816ZM673.016 584.12L670.949 581.945C668.358 584.407 665.12 585.68 661.016 585.68V588.68V591.68C666.511 591.68 671.273 589.913 675.082 586.295L673.016 584.12ZM628.856 616.04H631.856V609.32H628.856H625.856V616.04H628.856ZM628.856 609.32V612.32H674.936V609.32V606.32H628.856V609.32ZM674.936 609.32H671.936V739.16H674.936H677.936V609.32H674.936ZM674.936 739.16H671.936C671.936 746.813 670.636 753.876 668.066 760.377L670.856 761.48L673.646 762.583C676.515 755.324 677.936 747.507 677.936 739.16H674.936ZM670.856 761.48L668.066 760.377C665.565 766.703 661.545 771.744 655.962 775.564L657.656 778.04L659.35 780.516C665.926 776.016 670.706 770.017 673.646 762.583L670.856 761.48ZM657.656 778.04L655.918 775.594C650.497 779.447 643.088 781.52 633.416 781.52V784.52V787.52C643.903 787.52 652.655 785.273 659.393 780.486L657.656 778.04ZM633.416 784.52V781.52C625.149 781.52 618.263 779.425 612.605 775.363L610.856 777.8L609.106 780.237C615.928 785.135 624.083 787.52 633.416 787.52V784.52ZM610.856 777.8L612.605 775.363C607.272 771.534 603.685 764.843 602.309 754.601L599.336 755L596.362 755.399C597.866 766.597 601.959 775.106 609.106 780.237L610.856 777.8ZM599.336 755L600.215 757.868L615.095 753.308L614.216 750.44L613.337 747.572L598.457 752.132L599.336 755ZM614.216 750.44L611.225 750.674C611.634 755.91 612.337 760.381 613.369 764.035C614.391 767.656 615.795 770.691 617.751 772.853L619.976 770.84L622.2 768.827C621.116 767.629 620.04 765.584 619.143 762.405C618.255 759.259 617.597 755.21 617.206 750.206L614.216 750.44ZM619.976 770.84L617.705 772.801C621.212 776.862 625.518 779.12 630.536 779.12V776.12V773.12C627.553 773.12 624.819 771.858 622.246 768.879L619.976 770.84ZM630.536 776.12V779.12C636.896 779.12 641.92 776.227 645.325 770.742L642.776 769.16L640.227 767.578C637.871 771.373 634.735 773.12 630.536 773.12V776.12ZM642.776 769.16L645.285 770.804C648.851 765.361 650.336 756.156 650.336 743.96H647.336H644.336C644.336 756.084 642.78 763.679 640.266 767.516L642.776 769.16ZM647.336 743.96H650.336V629.48H647.336H644.336V743.96H647.336ZM647.336 629.48H650.336C650.336 626.729 650.275 624.484 650.147 622.776C650.083 621.923 649.999 621.159 649.887 620.508C649.785 619.922 649.622 619.185 649.299 618.538L646.616 619.88L643.932 621.222C643.849 621.055 643.896 621.078 643.975 621.532C644.042 621.921 644.108 622.477 644.164 623.224C644.276 624.716 644.336 626.791 644.336 629.48H647.336ZM646.616 619.88L649.373 618.698C648.751 617.248 647.569 616.343 646.4 615.789C645.241 615.24 643.874 614.924 642.428 614.743L642.056 617.72L641.684 620.697C642.797 620.836 643.47 621.04 643.831 621.211C644.182 621.377 644 621.392 643.858 621.062L646.616 619.88ZM642.056 617.72L642.434 614.744L629.234 613.064L628.856 616.04L628.477 619.016L641.677 620.696L642.056 617.72ZM721.008 584.12L718.833 586.186L718.86 586.214L718.887 586.241L721.008 584.12ZM721.008 559.88L718.887 557.759V557.759L721.008 559.88ZM745.008 559.88L747.074 557.705V557.705L745.008 559.88ZM745.008 584.12L747.074 586.295L747.102 586.269L747.129 586.241L745.008 584.12ZM700.848 616.04H697.848V618.682L700.469 619.016L700.848 616.04ZM700.848 609.32V606.32H697.848V609.32H700.848ZM746.928 609.32H749.928V606.32H746.928V609.32ZM747.648 720.68L744.891 721.862L744.925 721.943L744.965 722.022L747.648 720.68ZM752.208 722.6L752.587 719.624L752.58 719.623L752.208 722.6ZM765.408 724.28H768.408V721.638L765.787 721.304L765.408 724.28ZM765.408 731V734H768.408V731H765.408ZM700.848 731H697.848V734H700.848V731ZM700.848 724.28L700.469 721.304L697.848 721.638V724.28H700.848ZM714.048 722.6L713.676 719.623L713.669 719.624L714.048 722.6ZM718.608 720.68L721.291 722.022L721.331 721.943L721.366 721.862L718.608 720.68ZM718.608 619.88L715.851 621.062L715.885 621.143L715.925 621.222L718.608 619.88ZM714.048 617.72L713.669 620.696L713.676 620.697L714.048 617.72ZM733.008 588.68V585.68C728.711 585.68 725.52 584.389 723.129 581.999L721.008 584.12L718.887 586.241C722.577 589.931 727.385 591.68 733.008 591.68V588.68ZM721.008 584.12L723.183 582.054C720.74 579.482 719.448 576.174 719.448 571.88H716.448H713.448C713.448 577.506 715.196 582.358 718.833 586.186L721.008 584.12ZM716.448 571.88H719.448C719.448 567.583 720.739 564.391 723.129 562.001L721.008 559.88L718.887 557.759C715.197 561.449 713.448 566.257 713.448 571.88H716.448ZM721.008 559.88L723.129 562.001C725.52 559.611 728.711 558.32 733.008 558.32V555.32V552.32C727.385 552.32 722.577 554.069 718.887 557.759L721.008 559.88ZM733.008 555.32V558.32C737.113 558.32 740.351 559.593 742.942 562.055L745.008 559.88L747.074 557.705C743.266 554.087 738.504 552.32 733.008 552.32V555.32ZM745.008 559.88L742.942 562.055C745.469 564.456 746.808 567.63 746.808 571.88H749.808H752.808C752.808 566.21 750.947 561.384 747.074 557.705L745.008 559.88ZM749.808 571.88H746.808C746.808 576.128 745.467 579.418 742.887 581.999L745.008 584.12L747.129 586.241C750.949 582.422 752.808 577.552 752.808 571.88H749.808ZM745.008 584.12L742.942 581.945C740.351 584.407 737.113 585.68 733.008 585.68V588.68V591.68C738.504 591.68 743.266 589.913 747.074 586.295L745.008 584.12ZM700.848 616.04H703.848V609.32H700.848H697.848V616.04H700.848ZM700.848 609.32V612.32H746.928V609.32V606.32H700.848V609.32ZM746.928 609.32H743.928V710.84H746.928H749.928V609.32H746.928ZM746.928 710.84H743.928C743.928 713.593 743.988 715.855 744.116 717.599C744.232 719.189 744.425 720.776 744.891 721.862L747.648 720.68L750.406 719.498C750.43 719.555 750.371 719.424 750.294 718.951C750.223 718.519 750.156 717.93 750.1 717.161C749.988 715.625 749.928 713.527 749.928 710.84H746.928ZM747.648 720.68L744.965 722.022C745.658 723.408 746.903 724.19 747.984 724.645C749.098 725.114 750.419 725.4 751.836 725.577L752.208 722.6L752.58 719.623C751.438 719.48 750.719 719.286 750.312 719.115C749.873 718.93 750.118 718.912 750.331 719.338L747.648 720.68ZM752.208 722.6L751.829 725.576L765.029 727.256L765.408 724.28L765.787 721.304L752.587 719.624L752.208 722.6ZM765.408 724.28H762.408V731H765.408H768.408V724.28H765.408ZM765.408 731V728H700.848V731V734H765.408V731ZM700.848 731H703.848V724.28H700.848H697.848V731H700.848ZM700.848 724.28L701.227 727.256L714.427 725.576L714.048 722.6L713.669 719.624L700.469 721.304L700.848 724.28ZM714.048 722.6L714.42 725.577C715.838 725.4 717.159 725.114 718.272 724.645C719.353 724.19 720.598 723.408 721.291 722.022L718.608 720.68L715.925 719.338C716.138 718.912 716.383 718.93 715.944 719.115C715.538 719.286 714.818 719.48 713.676 719.623L714.048 722.6ZM718.608 720.68L721.366 721.862C721.831 720.776 722.024 719.189 722.14 717.599C722.268 715.855 722.328 713.593 722.328 710.84H719.328H716.328C716.328 713.527 716.268 715.625 716.156 717.161C716.1 717.93 716.033 718.519 715.963 718.951C715.885 719.424 715.827 719.555 715.851 719.498L718.608 720.68ZM719.328 710.84H722.328V629.48H719.328H716.328V710.84H719.328ZM719.328 629.48H722.328C722.328 626.729 722.268 624.484 722.14 622.776C722.076 621.923 721.992 621.159 721.879 620.508C721.778 619.922 721.615 619.185 721.291 618.538L718.608 619.88L715.925 621.222C715.841 621.055 715.889 621.078 715.967 621.532C716.034 621.921 716.1 622.477 716.157 623.224C716.268 624.716 716.328 626.791 716.328 629.48H719.328ZM718.608 619.88L721.366 618.698C720.744 617.248 719.562 616.343 718.392 615.789C717.234 615.24 715.866 614.924 714.42 614.743L714.048 617.72L713.676 620.697C714.79 620.836 715.463 621.04 715.824 621.211C716.175 621.377 715.992 621.392 715.851 621.062L718.608 619.88ZM714.048 617.72L714.427 614.744L701.227 613.064L700.848 616.04L700.469 619.016L713.669 620.696L714.048 617.72Z" fill="#2E7DA9" mask="url(#path-15-outside-1_1_20)"/>
</svg>
