<svg width="1349" height="688" viewBox="0 0 1349 688" fill="none" xmlns="http://www.w3.org/2000/svg">
<path d="M1136 271.638L1125 263.138C1119.67 275.305 1110.1 301.238 1084.5 319.638C1052.5 342.638 951.361 328.107 915 276.638C844 176.138 800.5 154.638 826.5 155.138C852.5 155.638 876.5 200.138 939 267.138C1001.5 334.138 1109.5 316.638 1070.5 310.638C1031.5 304.638 989.5 237.638 988.5 236.638C987.7 235.838 952.5 187.638 935 163.638C897.8 116.038 844.833 99.1381 823 96.6381C811 88.2381 745 93.1381 713.5 96.6381C791.1 158.238 818.833 213.305 823 233.138C847 315.638 982 340.638 939 332.638C904.6 326.238 847.333 390.638 823 423.638L713.5 569.138C827.5 585.538 903 537.971 926.5 512.138C960.158 475.138 1056.67 349.638 1084.5 333.638L1136 271.638Z" fill="#6DB545" stroke="#6DB545" stroke-width="5"/>
<path d="M1084 345.638L1126 397.638" stroke="#2589C4" stroke-width="9"/>
<path d="M1161.5 152.138L1068 274.138" stroke="#2589C4" stroke-width="9"/>
<path d="M1161.5 513.638L1068 391.638" stroke="#2589C4" stroke-width="9"/>
<path d="M1085 120.138L1043 175.638M1001 231.138L1043 175.638M1043 175.638L1061 216.638L1026.5 263.638M1043 175.638H1102L1156.5 103.138L1249.5 104.138L1152.5 231.138" stroke="#2589C4" stroke-width="9"/>
<path d="M1094 554.138L1052 498.638M1010 443.138L1052 498.638M1052 498.638L1070 457.638L1035.5 410.638M1052 498.638H1111L1165.5 571.138L1258.5 570.138L1161.5 443.138" stroke="#2589C4" stroke-width="9"/>
<circle cx="1068" cy="274.638" r="19" fill="#2589C4"/>
<circle cx="1162" cy="151.638" r="19" fill="#2589C4"/>
<circle cx="1153" cy="429.638" r="19" fill="#2589C4"/>
<circle cx="1085" cy="544.638" r="19" fill="#2589C4"/>
<circle cx="1068" cy="391.638" r="19" fill="#2589C4"/>
<circle cx="1162" cy="509.638" r="19" fill="#2589C4"/>
<circle cx="1153" cy="231.638" r="19" fill="#2589C4"/>
<circle cx="1085" cy="119.638" r="19" fill="#2589C4"/>
<mask id="path-15-outside-1_8_23" maskUnits="userSpaceOnUse" x="66" y="213" width="733" height="236" fill="black">
<rect fill="white" x="66" y="213" width="733" height="236"/>
<path d="M125 386C134.6 386 142.52 383.76 148.76 379.28C155.16 374.64 158.36 367.44 158.36 357.68C158.36 350.48 156.2 344.48 151.88 339.68C147.72 334.88 140.2 330.88 129.32 327.68L107 320.96C95.8 317.6 87.16 311.84 81.08 303.68C75.16 295.36 72.2 285.04 72.2 272.72C72.2 264.56 74.04 256.96 77.72 249.92C81.56 242.88 87.32 237.2 95 232.88C102.84 228.56 112.68 226.4 124.52 226.4C137.48 226.4 147.96 228.8 155.96 233.6C163.96 238.24 169.56 244.32 172.76 251.84C175.96 259.36 176.76 267.44 175.16 276.08L147.56 281.12C150.12 266.24 149 254.8 144.2 246.8C139.56 238.8 131.96 234.8 121.4 234.8C113.24 234.8 106.68 237.2 101.72 242C96.92 246.8 94.52 253.68 94.52 262.64C94.52 270 96.6 276.48 100.76 282.08C105.08 287.68 112.12 292 121.88 295.04L144.2 301.76C156.36 305.28 165.48 310.64 171.56 317.84C177.64 324.88 180.68 334.72 180.68 347.36C180.68 356.32 178.6 364.4 174.44 371.6C170.44 378.64 164.28 384.24 155.96 388.4C147.8 392.4 137.56 394.4 125.24 394.4C116.28 394.4 107.8 393.12 99.8 390.56C91.8 387.84 85.08 383.44 79.64 377.36C74.36 371.28 71 363.04 69.56 352.64L85.64 346.88C86.44 357.12 88.68 365.12 92.36 370.88C96.2 376.48 100.92 380.4 106.52 382.64C112.28 384.88 118.44 386 125 386ZM231.446 249.68C226.486 249.68 222.486 248.16 219.446 245.12C216.406 241.92 214.886 237.84 214.886 232.88C214.886 227.92 216.406 223.92 219.446 220.88C222.486 217.84 226.486 216.32 231.446 216.32C236.246 216.32 240.246 217.84 243.446 220.88C246.646 223.92 248.246 227.92 248.246 232.88C248.246 237.84 246.646 241.92 243.446 245.12C240.246 248.16 236.246 249.68 231.446 249.68ZM199.286 277.04V270.32H245.366V371.84C245.366 377.28 245.606 380.56 246.086 381.68C246.566 382.64 248.086 383.28 250.646 383.6L263.846 385.28V392H199.286V385.28L212.486 383.6C215.046 383.28 216.566 382.64 217.046 381.68C217.526 380.56 217.766 377.28 217.766 371.84V290.48C217.766 285.04 217.526 281.84 217.046 280.88C216.566 279.76 215.046 279.04 212.486 278.72L199.286 277.04ZM414.474 385.28V392H349.914V385.28L363.114 383.6C365.674 383.28 367.194 382.64 367.674 381.68C368.154 380.56 368.394 377.28 368.394 371.84V311.36C368.394 300.32 366.714 292.32 363.354 287.36C360.154 282.24 355.354 279.68 348.954 279.68C346.234 279.68 343.034 280.4 339.354 281.84C335.834 283.12 332.234 285.52 328.554 289.04C325.034 292.56 321.914 297.76 319.194 304.64V371.84C319.194 377.28 319.434 380.56 319.914 381.68C320.394 382.64 321.914 383.28 324.474 383.6L337.674 385.28V392H273.114V385.28L286.314 383.6C288.874 383.28 290.394 382.64 290.874 381.68C291.354 380.56 291.594 377.28 291.594 371.84V290.48C291.594 285.04 291.354 281.84 290.874 280.88C290.394 279.76 288.874 279.04 286.314 278.72L273.114 277.04V270.32H317.754V291.44C322.394 283.28 328.314 277.36 335.514 273.68C342.874 269.84 350.234 267.92 357.594 267.92C369.434 267.92 378.794 271.68 385.674 279.2C392.554 286.72 395.994 297.36 395.994 311.12V371.84C395.994 377.28 396.234 380.56 396.714 381.68C397.194 382.64 398.714 383.28 401.274 383.6L414.474 385.28ZM530.885 363.44C528.005 374.64 522.645 382.64 514.805 387.44C506.965 392.08 497.845 394.4 487.445 394.4C468.245 394.4 453.845 388.88 444.245 377.84C434.645 366.64 429.845 351.84 429.845 333.44V328.64C429.845 310.24 434.325 295.52 443.285 284.48C452.405 273.44 465.525 267.92 482.645 267.92C492.245 267.92 500.725 269.84 508.085 273.68C515.605 277.36 521.445 282.72 525.605 289.76C529.925 296.8 532.085 305.36 532.085 315.44C532.085 317.84 531.925 320.4 531.605 323.12C531.445 325.84 531.045 328.56 530.405 331.28H459.365V338.24C459.365 355.2 461.765 367.44 466.565 374.96C471.365 382.32 479.125 386 489.845 386C496.725 386 502.565 384 507.365 380C512.165 375.84 514.885 368.88 515.525 359.12L530.885 363.44ZM482.645 276.32C474.805 276.32 468.965 279.92 465.125 287.12C461.285 294.32 459.365 306.24 459.365 322.88H502.805C503.445 319.68 503.845 316.72 504.005 314C504.325 311.12 504.485 308.48 504.485 306.08C504.485 295.84 502.485 288.32 498.485 283.52C494.485 278.72 489.205 276.32 482.645 276.32ZM549.676 277.04V270.32H594.316V290C604.076 275.28 615.676 267.92 629.116 267.92C634.076 267.92 638.876 269.52 643.516 272.72C648.156 275.76 651.996 281.52 655.036 290L633.676 301.52C631.436 294.96 628.796 290.56 625.756 288.32C622.876 285.92 619.756 284.72 616.396 284.72C612.876 284.72 609.436 285.84 606.076 288.08C602.716 290.32 599.276 294.48 595.756 300.56V371.84C595.756 377.28 595.996 380.56 596.476 381.68C596.956 382.64 598.476 383.28 601.036 383.6L619.036 385.28V392H549.676V385.28L562.876 383.6C565.436 383.28 566.956 382.64 567.436 381.68C567.916 380.56 568.156 377.28 568.156 371.84V290.48C568.156 285.04 567.916 281.84 567.436 280.88C566.956 279.76 565.436 279.04 562.876 278.72L549.676 277.04ZM691.016 249.68C686.056 249.68 682.056 248.16 679.016 245.12C675.976 241.92 674.456 237.84 674.456 232.88C674.456 227.92 675.976 223.92 679.016 220.88C682.056 217.84 686.056 216.32 691.016 216.32C695.816 216.32 699.816 217.84 703.016 220.88C706.216 223.92 707.816 227.92 707.816 232.88C707.816 237.84 706.216 241.92 703.016 245.12C699.816 248.16 695.816 249.68 691.016 249.68ZM658.856 277.04V270.32H704.936V400.16C704.936 408.16 703.576 415.6 700.856 422.48C698.136 429.36 693.736 434.88 687.656 439.04C681.576 443.36 673.496 445.52 663.416 445.52C654.616 445.52 647.096 443.28 640.856 438.8C634.616 434.32 630.776 426.72 629.336 416L644.216 411.44C645.016 421.68 646.936 428.48 649.976 431.84C653.016 435.36 656.536 437.12 660.536 437.12C665.816 437.12 669.896 434.8 672.776 430.16C675.816 425.52 677.336 417.12 677.336 404.96V290.48C677.336 285.04 677.096 281.84 676.616 280.88C676.136 279.76 674.616 279.04 672.056 278.72L658.856 277.04ZM763.008 249.68C758.048 249.68 754.048 248.16 751.008 245.12C747.968 241.92 746.448 237.84 746.448 232.88C746.448 227.92 747.968 223.92 751.008 220.88C754.048 217.84 758.048 216.32 763.008 216.32C767.808 216.32 771.808 217.84 775.008 220.88C778.208 223.92 779.808 227.92 779.808 232.88C779.808 237.84 778.208 241.92 775.008 245.12C771.808 248.16 767.808 249.68 763.008 249.68ZM730.848 277.04V270.32H776.928V371.84C776.928 377.28 777.168 380.56 777.648 381.68C778.128 382.64 779.648 383.28 782.208 383.6L795.408 385.28V392H730.848V385.28L744.048 383.6C746.608 383.28 748.128 382.64 748.608 381.68C749.088 380.56 749.328 377.28 749.328 371.84V290.48C749.328 285.04 749.088 281.84 748.608 280.88C748.128 279.76 746.608 279.04 744.048 278.72L730.848 277.04Z"/>
</mask>
<path d="M125 386C134.6 386 142.52 383.76 148.76 379.28C155.16 374.64 158.36 367.44 158.36 357.68C158.36 350.48 156.2 344.48 151.88 339.68C147.72 334.88 140.2 330.88 129.32 327.68L107 320.96C95.8 317.6 87.16 311.84 81.08 303.68C75.16 295.36 72.2 285.04 72.2 272.72C72.2 264.56 74.04 256.96 77.72 249.92C81.56 242.88 87.32 237.2 95 232.88C102.84 228.56 112.68 226.4 124.52 226.4C137.48 226.4 147.96 228.8 155.96 233.6C163.96 238.24 169.56 244.32 172.76 251.84C175.96 259.36 176.76 267.44 175.16 276.08L147.56 281.12C150.12 266.24 149 254.8 144.2 246.8C139.56 238.8 131.96 234.8 121.4 234.8C113.24 234.8 106.68 237.2 101.72 242C96.92 246.8 94.52 253.68 94.52 262.64C94.52 270 96.6 276.48 100.76 282.08C105.08 287.68 112.12 292 121.88 295.04L144.2 301.76C156.36 305.28 165.48 310.64 171.56 317.84C177.64 324.88 180.68 334.72 180.68 347.36C180.68 356.32 178.6 364.4 174.44 371.6C170.44 378.64 164.28 384.24 155.96 388.4C147.8 392.4 137.56 394.4 125.24 394.4C116.28 394.4 107.8 393.12 99.8 390.56C91.8 387.84 85.08 383.44 79.64 377.36C74.36 371.28 71 363.04 69.56 352.64L85.64 346.88C86.44 357.12 88.68 365.12 92.36 370.88C96.2 376.48 100.92 380.4 106.52 382.64C112.28 384.88 118.44 386 125 386ZM231.446 249.68C226.486 249.68 222.486 248.16 219.446 245.12C216.406 241.92 214.886 237.84 214.886 232.88C214.886 227.92 216.406 223.92 219.446 220.88C222.486 217.84 226.486 216.32 231.446 216.32C236.246 216.32 240.246 217.84 243.446 220.88C246.646 223.92 248.246 227.92 248.246 232.88C248.246 237.84 246.646 241.92 243.446 245.12C240.246 248.16 236.246 249.68 231.446 249.68ZM199.286 277.04V270.32H245.366V371.84C245.366 377.28 245.606 380.56 246.086 381.68C246.566 382.64 248.086 383.28 250.646 383.6L263.846 385.28V392H199.286V385.28L212.486 383.6C215.046 383.28 216.566 382.64 217.046 381.68C217.526 380.56 217.766 377.28 217.766 371.84V290.48C217.766 285.04 217.526 281.84 217.046 280.88C216.566 279.76 215.046 279.04 212.486 278.72L199.286 277.04ZM414.474 385.28V392H349.914V385.28L363.114 383.6C365.674 383.28 367.194 382.64 367.674 381.68C368.154 380.56 368.394 377.28 368.394 371.84V311.36C368.394 300.32 366.714 292.32 363.354 287.36C360.154 282.24 355.354 279.68 348.954 279.68C346.234 279.68 343.034 280.4 339.354 281.84C335.834 283.12 332.234 285.52 328.554 289.04C325.034 292.56 321.914 297.76 319.194 304.64V371.84C319.194 377.28 319.434 380.56 319.914 381.68C320.394 382.64 321.914 383.28 324.474 383.6L337.674 385.28V392H273.114V385.28L286.314 383.6C288.874 383.28 290.394 382.64 290.874 381.68C291.354 380.56 291.594 377.28 291.594 371.84V290.48C291.594 285.04 291.354 281.84 290.874 280.88C290.394 279.76 288.874 279.04 286.314 278.72L273.114 277.04V270.32H317.754V291.44C322.394 283.28 328.314 277.36 335.514 273.68C342.874 269.84 350.234 267.92 357.594 267.92C369.434 267.92 378.794 271.68 385.674 279.2C392.554 286.72 395.994 297.36 395.994 311.12V371.84C395.994 377.28 396.234 380.56 396.714 381.68C397.194 382.64 398.714 383.28 401.274 383.6L414.474 385.28ZM530.885 363.44C528.005 374.64 522.645 382.64 514.805 387.44C506.965 392.08 497.845 394.4 487.445 394.4C468.245 394.4 453.845 388.88 444.245 377.84C434.645 366.64 429.845 351.84 429.845 333.44V328.64C429.845 310.24 434.325 295.52 443.285 284.48C452.405 273.44 465.525 267.92 482.645 267.92C492.245 267.92 500.725 269.84 508.085 273.68C515.605 277.36 521.445 282.72 525.605 289.76C529.925 296.8 532.085 305.36 532.085 315.44C532.085 317.84 531.925 320.4 531.605 323.12C531.445 325.84 531.045 328.56 530.405 331.28H459.365V338.24C459.365 355.2 461.765 367.44 466.565 374.96C471.365 382.32 479.125 386 489.845 386C496.725 386 502.565 384 507.365 380C512.165 375.84 514.885 368.88 515.525 359.12L530.885 363.44ZM482.645 276.32C474.805 276.32 468.965 279.92 465.125 287.12C461.285 294.32 459.365 306.24 459.365 322.88H502.805C503.445 319.68 503.845 316.72 504.005 314C504.325 311.12 504.485 308.48 504.485 306.08C504.485 295.84 502.485 288.32 498.485 283.52C494.485 278.72 489.205 276.32 482.645 276.32ZM549.676 277.04V270.32H594.316V290C604.076 275.28 615.676 267.92 629.116 267.92C634.076 267.92 638.876 269.52 643.516 272.72C648.156 275.76 651.996 281.52 655.036 290L633.676 301.52C631.436 294.96 628.796 290.56 625.756 288.32C622.876 285.92 619.756 284.72 616.396 284.72C612.876 284.72 609.436 285.84 606.076 288.08C602.716 290.32 599.276 294.48 595.756 300.56V371.84C595.756 377.28 595.996 380.56 596.476 381.68C596.956 382.64 598.476 383.28 601.036 383.6L619.036 385.28V392H549.676V385.28L562.876 383.6C565.436 383.28 566.956 382.64 567.436 381.68C567.916 380.56 568.156 377.28 568.156 371.84V290.48C568.156 285.04 567.916 281.84 567.436 280.88C566.956 279.76 565.436 279.04 562.876 278.72L549.676 277.04ZM691.016 249.68C686.056 249.68 682.056 248.16 679.016 245.12C675.976 241.92 674.456 237.84 674.456 232.88C674.456 227.92 675.976 223.92 679.016 220.88C682.056 217.84 686.056 216.32 691.016 216.32C695.816 216.32 699.816 217.84 703.016 220.88C706.216 223.92 707.816 227.92 707.816 232.88C707.816 237.84 706.216 241.92 703.016 245.12C699.816 248.16 695.816 249.68 691.016 249.68ZM658.856 277.04V270.32H704.936V400.16C704.936 408.16 703.576 415.6 700.856 422.48C698.136 429.36 693.736 434.88 687.656 439.04C681.576 443.36 673.496 445.52 663.416 445.52C654.616 445.52 647.096 443.28 640.856 438.8C634.616 434.32 630.776 426.72 629.336 416L644.216 411.44C645.016 421.68 646.936 428.48 649.976 431.84C653.016 435.36 656.536 437.12 660.536 437.12C665.816 437.12 669.896 434.8 672.776 430.16C675.816 425.52 677.336 417.12 677.336 404.96V290.48C677.336 285.04 677.096 281.84 676.616 280.88C676.136 279.76 674.616 279.04 672.056 278.72L658.856 277.04ZM763.008 249.68C758.048 249.68 754.048 248.16 751.008 245.12C747.968 241.92 746.448 237.84 746.448 232.88C746.448 227.92 747.968 223.92 751.008 220.88C754.048 217.84 758.048 216.32 763.008 216.32C767.808 216.32 771.808 217.84 775.008 220.88C778.208 223.92 779.808 227.92 779.808 232.88C779.808 237.84 778.208 241.92 775.008 245.12C771.808 248.16 767.808 249.68 763.008 249.68ZM730.848 277.04V270.32H776.928V371.84C776.928 377.28 777.168 380.56 777.648 381.68C778.128 382.64 779.648 383.28 782.208 383.6L795.408 385.28V392H730.848V385.28L744.048 383.6C746.608 383.28 748.128 382.64 748.608 381.68C749.088 380.56 749.328 377.28 749.328 371.84V290.48C749.328 285.04 749.088 281.84 748.608 280.88C748.128 279.76 746.608 279.04 744.048 278.72L730.848 277.04Z" fill="#2589C4"/>
<path d="M148.76 379.28L150.51 381.717L150.521 381.709L148.76 379.28ZM151.88 339.68L149.613 341.645L149.631 341.666L149.65 341.687L151.88 339.68ZM129.32 327.68L128.455 330.553L128.464 330.555L128.474 330.558L129.32 327.68ZM107 320.96L107.865 318.087L107.862 318.087L107 320.96ZM81.08 303.68L78.6356 305.419L78.6547 305.446L78.6744 305.472L81.08 303.68ZM77.72 249.92L75.0863 248.483L75.0736 248.507L75.0613 248.53L77.72 249.92ZM95 232.88L93.5522 230.252L93.5407 230.259L93.5292 230.265L95 232.88ZM155.96 233.6L154.417 236.172L154.436 236.184L154.455 236.195L155.96 233.6ZM172.76 251.84L175.52 250.665H175.52L172.76 251.84ZM175.16 276.08L175.699 279.031L177.733 278.66L178.11 276.626L175.16 276.08ZM147.56 281.12L144.603 280.611L143.876 284.842L148.099 284.071L147.56 281.12ZM144.2 246.8L141.605 248.305L141.616 248.324L141.628 248.343L144.2 246.8ZM101.72 242L99.6337 239.844L99.6161 239.861L99.5987 239.879L101.72 242ZM100.76 282.08L98.3518 283.869L98.368 283.891L98.3847 283.912L100.76 282.08ZM121.88 295.04L120.988 297.904L121.001 297.909L121.015 297.913L121.88 295.04ZM144.2 301.76L143.335 304.633L143.35 304.637L143.366 304.642L144.2 301.76ZM171.56 317.84L169.268 319.776L169.279 319.788L169.29 319.801L171.56 317.84ZM174.44 371.6L171.842 370.099L171.837 370.109L171.832 370.118L174.44 371.6ZM155.96 388.4L157.28 391.094L157.291 391.089L157.302 391.083L155.96 388.4ZM99.8 390.56L98.8343 393.4L98.8599 393.409L98.8857 393.417L99.8 390.56ZM79.64 377.36L77.3749 379.327L77.3895 379.344L77.4043 379.36L79.64 377.36ZM69.56 352.64L68.5483 349.816L66.2541 350.638L66.5884 353.051L69.56 352.64ZM85.64 346.88L88.6309 346.646L88.325 342.732L84.6283 344.056L85.64 346.88ZM92.36 370.88L89.8319 372.495L89.8582 372.536L89.8858 372.577L92.36 370.88ZM106.52 382.64L105.406 385.425L105.419 385.431L105.433 385.436L106.52 382.64ZM125 386V389C135.069 389 143.645 386.646 150.51 381.717L148.76 379.28L147.01 376.843C141.395 380.874 134.131 383 125 383V386ZM148.76 379.28L150.521 381.709C157.884 376.371 161.36 368.149 161.36 357.68H158.36H155.36C155.36 366.731 152.436 372.909 146.999 376.851L148.76 379.28ZM158.36 357.68H161.36C161.36 349.831 158.984 343.089 154.11 337.673L151.88 339.68L149.65 341.687C153.416 345.871 155.36 351.129 155.36 357.68H158.36ZM151.88 339.68L154.147 337.715C149.417 332.258 141.222 328.053 130.167 324.802L129.32 327.68L128.474 330.558C139.178 333.707 146.023 337.502 149.613 341.645L151.88 339.68ZM129.32 327.68L130.185 324.807L107.865 318.087L107 320.96L106.135 323.833L128.455 330.553L129.32 327.68ZM107 320.96L107.862 318.087C97.1835 314.883 89.1248 309.456 83.4857 301.888L81.08 303.68L78.6744 305.472C85.1952 314.224 94.4165 320.317 106.138 323.833L107 320.96ZM81.08 303.68L83.5244 301.941C78.0351 294.226 75.2 284.548 75.2 272.72H72.2H69.2C69.2 285.532 72.2849 296.494 78.6356 305.419L81.08 303.68ZM72.2 272.72H75.2C75.2 265.03 76.9291 257.909 80.3787 251.31L77.72 249.92L75.0613 248.53C71.1509 256.011 69.2 264.09 69.2 272.72H72.2ZM77.72 249.92L80.3537 251.357C83.8979 244.859 89.2311 239.567 96.4708 235.495L95 232.88L93.5292 230.265C85.4089 234.833 79.2221 240.901 75.0863 248.483L77.72 249.92ZM95 232.88L96.4478 235.508C103.724 231.498 113.029 229.4 124.52 229.4V226.4V223.4C112.331 223.4 101.956 225.622 93.5522 230.252L95 232.88ZM124.52 226.4V229.4C137.139 229.4 147.03 231.741 154.417 236.172L155.96 233.6L157.503 231.028C148.89 225.859 137.821 223.4 124.52 223.4V226.4ZM155.96 233.6L154.455 236.195C161.971 240.555 167.086 246.169 170 253.015L172.76 251.84L175.52 250.665C172.034 242.471 165.949 235.925 157.465 231.005L155.96 233.6ZM172.76 251.84L170 253.015C172.951 259.951 173.711 267.428 172.21 275.534L175.16 276.08L178.11 276.626C179.809 267.452 178.969 258.769 175.52 250.665L172.76 251.84ZM175.16 276.08L174.621 273.129L147.021 278.169L147.56 281.12L148.099 284.071L175.699 279.031L175.16 276.08ZM147.56 281.12L150.517 281.629C153.128 266.451 152.111 254.154 146.772 245.257L144.2 246.8L141.628 248.343C145.889 255.446 147.112 266.029 144.603 280.611L147.56 281.12ZM144.2 246.8L146.795 245.295C141.533 236.222 132.848 231.8 121.4 231.8V234.8V237.8C131.072 237.8 137.587 241.378 141.605 248.305L144.2 246.8ZM121.4 234.8V231.8C112.613 231.8 105.254 234.406 99.6337 239.844L101.72 242L103.806 244.156C108.106 239.994 113.867 237.8 121.4 237.8V234.8ZM101.72 242L99.5987 239.879C94.0735 245.404 91.52 253.148 91.52 262.64H94.52H97.52C97.52 254.212 99.7665 248.196 103.841 244.121L101.72 242ZM94.52 262.64H91.52C91.52 270.607 93.7855 277.722 98.3518 283.869L100.76 282.08L103.168 280.291C99.4145 275.238 97.52 269.393 97.52 262.64H94.52ZM100.76 282.08L98.3847 283.912C103.215 290.174 110.89 294.759 120.988 297.904L121.88 295.04L122.772 292.176C113.35 289.241 106.945 285.186 103.135 280.248L100.76 282.08ZM121.88 295.04L121.015 297.913L143.335 304.633L144.2 301.76L145.065 298.887L122.745 292.167L121.88 295.04ZM144.2 301.76L143.366 304.642C155.148 308.052 163.681 313.159 169.268 319.776L171.56 317.84L173.852 315.904C167.279 308.121 157.572 302.508 145.034 298.878L144.2 301.76ZM171.56 317.84L169.29 319.801C174.753 326.127 177.68 335.18 177.68 347.36H180.68H183.68C183.68 334.26 180.527 323.633 173.83 315.879L171.56 317.84ZM180.68 347.36H177.68C177.68 355.835 175.718 363.391 171.842 370.099L174.44 371.6L177.038 373.101C181.482 365.409 183.68 356.805 183.68 347.36H180.68ZM174.44 371.6L171.832 370.118C168.167 376.567 162.488 381.782 154.618 385.717L155.96 388.4L157.302 391.083C166.072 386.698 172.713 380.713 177.048 373.082L174.44 371.6ZM155.96 388.4L154.64 385.706C147.01 389.446 137.257 391.4 125.24 391.4V394.4V397.4C137.863 397.4 148.59 395.354 157.28 391.094L155.96 388.4ZM125.24 394.4V391.4C116.57 391.4 108.4 390.162 100.714 387.703L99.8 390.56L98.8857 393.417C107.2 396.078 115.99 397.4 125.24 397.4V394.4ZM99.8 390.56L100.766 387.72C93.2361 385.16 86.9591 381.041 81.8757 375.36L79.64 377.36L77.4043 379.36C83.2009 385.839 90.3639 390.52 98.8343 393.4L99.8 390.56ZM79.64 377.36L81.9051 375.393C77.1065 369.867 73.9158 362.225 72.5317 352.229L69.56 352.64L66.5884 353.051C68.0842 363.855 71.6135 372.693 77.3749 379.327L79.64 377.36ZM69.56 352.64L70.5717 355.464L86.6517 349.704L85.64 346.88L84.6283 344.056L68.5483 349.816L69.56 352.64ZM85.64 346.88L82.6491 347.114C83.4698 357.618 85.7862 366.163 89.8319 372.495L92.36 370.88L94.8881 369.265C91.5738 364.077 89.4102 356.622 88.6309 346.646L85.64 346.88ZM92.36 370.88L89.8858 372.577C94.0178 378.602 99.1871 382.938 105.406 385.425L106.52 382.64L107.634 379.855C102.653 377.862 98.3822 374.358 94.8342 369.183L92.36 370.88ZM106.52 382.64L105.433 385.436C111.56 387.819 118.091 389 125 389V386V383C118.789 383 113 381.941 107.607 379.844L106.52 382.64ZM219.446 245.12L217.271 247.186L217.297 247.214L217.324 247.241L219.446 245.12ZM219.446 220.88L217.324 218.759V218.759L219.446 220.88ZM243.446 220.88L245.512 218.705V218.705L243.446 220.88ZM243.446 245.12L245.512 247.295L245.54 247.269L245.567 247.241L243.446 245.12ZM199.286 277.04H196.286V279.682L198.907 280.016L199.286 277.04ZM199.286 270.32V267.32H196.286V270.32H199.286ZM245.366 270.32H248.366V267.32H245.366V270.32ZM246.086 381.68L243.328 382.862L243.363 382.943L243.402 383.022L246.086 381.68ZM250.646 383.6L251.024 380.624L251.018 380.623L250.646 383.6ZM263.846 385.28H266.846V382.638L264.224 382.304L263.846 385.28ZM263.846 392V395H266.846V392H263.846ZM199.286 392H196.286V395H199.286V392ZM199.286 385.28L198.907 382.304L196.286 382.638V385.28H199.286ZM212.486 383.6L212.114 380.623L212.107 380.624L212.486 383.6ZM217.046 381.68L219.729 383.022L219.768 382.943L219.803 382.862L217.046 381.68ZM217.046 280.88L214.288 282.062L214.323 282.143L214.362 282.222L217.046 280.88ZM212.486 278.72L212.107 281.696L212.114 281.697L212.486 278.72ZM231.446 249.68V246.68C227.149 246.68 223.957 245.389 221.567 242.999L219.446 245.12L217.324 247.241C221.014 250.931 225.822 252.68 231.446 252.68V249.68ZM219.446 245.12L221.621 243.054C219.177 240.482 217.886 237.174 217.886 232.88H214.886H211.886C211.886 238.506 213.634 243.358 217.271 247.186L219.446 245.12ZM214.886 232.88H217.886C217.886 228.583 219.177 225.391 221.567 223.001L219.446 220.88L217.324 218.759C213.634 222.449 211.886 227.257 211.886 232.88H214.886ZM219.446 220.88L221.567 223.001C223.957 220.611 227.149 219.32 231.446 219.32V216.32V213.32C225.822 213.32 221.014 215.069 217.324 218.759L219.446 220.88ZM231.446 216.32V219.32C235.55 219.32 238.788 220.593 241.379 223.055L243.446 220.88L245.512 218.705C241.703 215.087 236.941 213.32 231.446 213.32V216.32ZM243.446 220.88L241.379 223.055C243.907 225.456 245.246 228.63 245.246 232.88H248.246H251.246C251.246 227.21 249.385 222.384 245.512 218.705L243.446 220.88ZM248.246 232.88H245.246C245.246 237.128 243.905 240.418 241.324 242.999L243.446 245.12L245.567 247.241C249.386 243.422 251.246 238.552 251.246 232.88H248.246ZM243.446 245.12L241.379 242.945C238.788 245.407 235.55 246.68 231.446 246.68V249.68V252.68C236.941 252.68 241.703 250.913 245.512 247.295L243.446 245.12ZM199.286 277.04H202.286V270.32H199.286H196.286V277.04H199.286ZM199.286 270.32V273.32H245.366V270.32V267.32H199.286V270.32ZM245.366 270.32H242.366V371.84H245.366H248.366V270.32H245.366ZM245.366 371.84H242.366C242.366 374.593 242.426 376.855 242.554 378.599C242.67 380.189 242.863 381.776 243.328 382.862L246.086 381.68L248.843 380.498C248.867 380.555 248.809 380.424 248.731 379.951C248.661 379.519 248.594 378.93 248.538 378.161C248.425 376.625 248.366 374.527 248.366 371.84H245.366ZM246.086 381.68L243.402 383.022C244.096 384.408 245.34 385.19 246.421 385.645C247.535 386.114 248.856 386.4 250.274 386.577L250.646 383.6L251.018 380.623C249.875 380.48 249.156 380.286 248.75 380.115C248.311 379.93 248.556 379.912 248.769 380.338L246.086 381.68ZM250.646 383.6L250.267 386.576L263.467 388.256L263.846 385.28L264.224 382.304L251.024 380.624L250.646 383.6ZM263.846 385.28H260.846V392H263.846H266.846V385.28H263.846ZM263.846 392V389H199.286V392V395H263.846V392ZM199.286 392H202.286V385.28H199.286H196.286V392H199.286ZM199.286 385.28L199.664 388.256L212.864 386.576L212.486 383.6L212.107 380.624L198.907 382.304L199.286 385.28ZM212.486 383.6L212.858 386.577C214.275 386.4 215.596 386.114 216.71 385.645C217.791 385.19 219.036 384.408 219.729 383.022L217.046 381.68L214.362 380.338C214.576 379.912 214.82 379.93 214.381 380.115C213.975 380.286 213.256 380.48 212.114 380.623L212.486 383.6ZM217.046 381.68L219.803 382.862C220.269 381.776 220.461 380.189 220.578 378.599C220.705 376.855 220.766 374.593 220.766 371.84H217.766H214.766C214.766 374.527 214.706 376.625 214.594 378.161C214.537 378.93 214.471 379.519 214.4 379.951C214.323 380.424 214.264 380.555 214.288 380.498L217.046 381.68ZM217.766 371.84H220.766V290.48H217.766H214.766V371.84H217.766ZM217.766 290.48H220.766C220.766 287.729 220.705 285.484 220.577 283.776C220.513 282.923 220.429 282.159 220.317 281.508C220.215 280.922 220.052 280.185 219.729 279.538L217.046 280.88L214.362 282.222C214.279 282.055 214.326 282.078 214.405 282.532C214.472 282.921 214.538 283.477 214.594 284.224C214.706 285.716 214.766 287.791 214.766 290.48H217.766ZM217.046 280.88L219.803 279.698C219.181 278.248 217.999 277.343 216.83 276.789C215.671 276.24 214.304 275.924 212.858 275.743L212.486 278.72L212.114 281.697C213.227 281.836 213.9 282.04 214.261 282.211C214.612 282.377 214.43 282.392 214.288 282.062L217.046 280.88ZM212.486 278.72L212.864 275.744L199.664 274.064L199.286 277.04L198.907 280.016L212.107 281.696L212.486 278.72ZM414.474 385.28H417.474V382.638L414.853 382.304L414.474 385.28ZM414.474 392V395H417.474V392H414.474ZM349.914 392H346.914V395H349.914V392ZM349.914 385.28L349.535 382.304L346.914 382.638V385.28H349.914ZM363.114 383.6L362.742 380.623L362.735 380.624L363.114 383.6ZM367.674 381.68L370.357 383.022L370.396 382.943L370.431 382.862L367.674 381.68ZM363.354 287.36L360.81 288.95L360.839 288.997L360.87 289.043L363.354 287.36ZM339.354 281.84L340.379 284.659L340.413 284.647L340.447 284.634L339.354 281.84ZM328.554 289.04L326.48 286.872L326.456 286.895L326.432 286.919L328.554 289.04ZM319.194 304.64L316.404 303.537L316.194 304.068V304.64H319.194ZM319.914 381.68L317.156 382.862L317.191 382.943L317.23 383.022L319.914 381.68ZM324.474 383.6L324.853 380.624L324.846 380.623L324.474 383.6ZM337.674 385.28H340.674V382.638L338.053 382.304L337.674 385.28ZM337.674 392V395H340.674V392H337.674ZM273.114 392H270.114V395H273.114V392ZM273.114 385.28L272.735 382.304L270.114 382.638V385.28H273.114ZM286.314 383.6L285.942 380.623L285.935 380.624L286.314 383.6ZM290.874 381.68L293.557 383.022L293.596 382.943L293.631 382.862L290.874 381.68ZM290.874 280.88L288.116 282.062L288.151 282.143L288.19 282.222L290.874 280.88ZM286.314 278.72L285.935 281.696L285.942 281.697L286.314 278.72ZM273.114 277.04H270.114V279.682L272.735 280.016L273.114 277.04ZM273.114 270.32V267.32H270.114V270.32H273.114ZM317.754 270.32H320.754V267.32H317.754V270.32ZM317.754 291.44H314.754V302.785L320.362 292.923L317.754 291.44ZM335.514 273.68L336.879 276.351L336.89 276.346L336.901 276.34L335.514 273.68ZM385.674 279.2L383.46 281.225V281.225L385.674 279.2ZM396.714 381.68L393.956 382.862L393.991 382.943L394.03 383.022L396.714 381.68ZM401.274 383.6L401.653 380.624L401.646 380.623L401.274 383.6ZM414.474 385.28H411.474V392H414.474H417.474V385.28H414.474ZM414.474 392V389H349.914V392V395H414.474V392ZM349.914 392H352.914V385.28H349.914H346.914V392H349.914ZM349.914 385.28L350.293 388.256L363.493 386.576L363.114 383.6L362.735 380.624L349.535 382.304L349.914 385.28ZM363.114 383.6L363.486 386.577C364.903 386.4 366.224 386.114 367.338 385.645C368.419 385.19 369.664 384.408 370.357 383.022L367.674 381.68L364.99 380.338C365.204 379.912 365.449 379.93 365.01 380.115C364.603 380.286 363.884 380.48 362.742 380.623L363.114 383.6ZM367.674 381.68L370.431 382.862C370.897 381.776 371.089 380.189 371.206 378.599C371.333 376.855 371.394 374.593 371.394 371.84H368.394H365.394C365.394 374.527 365.334 376.625 365.222 378.161C365.166 378.93 365.099 379.519 365.028 379.951C364.951 380.424 364.892 380.555 364.916 380.498L367.674 381.68ZM368.394 371.84H371.394V311.36H368.394H365.394V371.84H368.394ZM368.394 311.36H371.394C371.394 300.155 369.715 291.401 365.838 285.677L363.354 287.36L360.87 289.043C363.712 293.239 365.394 300.485 365.394 311.36H368.394ZM363.354 287.36L365.898 285.77C362.111 279.711 356.313 276.68 348.954 276.68V279.68V282.68C354.394 282.68 358.197 284.769 360.81 288.95L363.354 287.36ZM348.954 279.68V276.68C345.731 276.68 342.145 277.526 338.261 279.046L339.354 281.84L340.447 284.634C343.923 283.274 346.736 282.68 348.954 282.68V279.68ZM339.354 281.84L338.329 279.021C334.304 280.484 330.359 283.162 326.48 286.872L328.554 289.04L330.627 291.208C334.109 287.878 337.363 285.756 340.379 284.659L339.354 281.84ZM328.554 289.04L326.432 286.919C322.517 290.834 319.208 296.444 316.404 303.537L319.194 304.64L321.984 305.743C324.62 299.076 327.551 294.286 330.675 291.161L328.554 289.04ZM319.194 304.64H316.194V371.84H319.194H322.194V304.64H319.194ZM319.194 371.84H316.194C316.194 374.593 316.254 376.855 316.382 378.599C316.498 380.189 316.691 381.776 317.156 382.862L319.914 381.68L322.671 380.498C322.695 380.555 322.637 380.424 322.559 379.951C322.489 379.519 322.422 378.93 322.366 378.161C322.253 376.625 322.194 374.527 322.194 371.84H319.194ZM319.914 381.68L317.23 383.022C317.924 384.408 319.169 385.19 320.25 385.645C321.363 386.114 322.684 386.4 324.102 386.577L324.474 383.6L324.846 380.623C323.703 380.48 322.984 380.286 322.578 380.115C322.139 379.93 322.384 379.912 322.597 380.338L319.914 381.68ZM324.474 383.6L324.095 386.576L337.295 388.256L337.674 385.28L338.053 382.304L324.853 380.624L324.474 383.6ZM337.674 385.28H334.674V392H337.674H340.674V385.28H337.674ZM337.674 392V389H273.114V392V395H337.674V392ZM273.114 392H276.114V385.28H273.114H270.114V392H273.114ZM273.114 385.28L273.493 388.256L286.693 386.576L286.314 383.6L285.935 380.624L272.735 382.304L273.114 385.28ZM286.314 383.6L286.686 386.577C288.103 386.4 289.424 386.114 290.538 385.645C291.619 385.19 292.864 384.408 293.557 383.022L290.874 381.68L288.19 380.338C288.404 379.912 288.649 379.93 288.21 380.115C287.803 380.286 287.084 380.48 285.942 380.623L286.314 383.6ZM290.874 381.68L293.631 382.862C294.097 381.776 294.289 380.189 294.406 378.599C294.533 376.855 294.594 374.593 294.594 371.84H291.594H288.594C288.594 374.527 288.534 376.625 288.422 378.161C288.366 378.93 288.299 379.519 288.228 379.951C288.151 380.424 288.092 380.555 288.116 380.498L290.874 381.68ZM291.594 371.84H294.594V290.48H291.594H288.594V371.84H291.594ZM291.594 290.48H294.594C294.594 287.729 294.533 285.484 294.405 283.776C294.341 282.923 294.257 282.159 294.145 281.508C294.043 280.922 293.88 280.185 293.557 279.538L290.874 280.88L288.19 282.222C288.107 282.055 288.154 282.078 288.233 282.532C288.3 282.921 288.366 283.477 288.422 284.224C288.534 285.716 288.594 287.791 288.594 290.48H291.594ZM290.874 280.88L293.631 279.698C293.009 278.248 291.827 277.343 290.658 276.789C289.499 276.24 288.132 275.924 286.686 275.743L286.314 278.72L285.942 281.697C287.055 281.836 287.728 282.04 288.089 282.211C288.44 282.377 288.258 282.392 288.116 282.062L290.874 280.88ZM286.314 278.72L286.693 275.744L273.493 274.064L273.114 277.04L272.735 280.016L285.935 281.696L286.314 278.72ZM273.114 277.04H276.114V270.32H273.114H270.114V277.04H273.114ZM273.114 270.32V273.32H317.754V270.32V267.32H273.114V270.32ZM317.754 270.32H314.754V291.44H317.754H320.754V270.32H317.754ZM317.754 291.44L320.362 292.923C324.76 285.188 330.28 279.724 336.879 276.351L335.514 273.68L334.148 271.009C326.347 274.996 320.028 281.372 315.146 289.957L317.754 291.44ZM335.514 273.68L336.901 276.34C343.888 272.694 350.776 270.92 357.594 270.92V267.92V264.92C349.692 264.92 341.859 266.986 334.126 271.02L335.514 273.68ZM357.594 267.92V270.92C368.741 270.92 377.242 274.428 383.46 281.225L385.674 279.2L387.887 277.175C380.345 268.932 370.126 264.92 357.594 264.92V267.92ZM385.674 279.2L383.46 281.225C389.68 288.023 392.994 297.843 392.994 311.12H395.994H398.994C398.994 296.877 395.428 285.417 387.887 277.175L385.674 279.2ZM395.994 311.12H392.994V371.84H395.994H398.994V311.12H395.994ZM395.994 371.84H392.994C392.994 374.593 393.054 376.855 393.182 378.599C393.298 380.189 393.491 381.776 393.956 382.862L396.714 381.68L399.471 380.498C399.495 380.555 399.437 380.424 399.359 379.951C399.289 379.519 399.222 378.93 399.166 378.161C399.053 376.625 398.994 374.527 398.994 371.84H395.994ZM396.714 381.68L394.03 383.022C394.724 384.408 395.969 385.19 397.05 385.645C398.163 386.114 399.484 386.4 400.902 386.577L401.274 383.6L401.646 380.623C400.503 380.48 399.784 380.286 399.378 380.115C398.939 379.93 399.184 379.912 399.397 380.338L396.714 381.68ZM401.274 383.6L400.895 386.576L414.095 388.256L414.474 385.28L414.853 382.304L401.653 380.624L401.274 383.6ZM530.885 363.44L533.79 364.187L534.521 361.346L531.697 360.552L530.885 363.44ZM514.805 387.44L516.333 390.022L516.352 390.01L516.371 389.999L514.805 387.44ZM444.245 377.84L441.967 379.792L441.974 379.8L441.981 379.809L444.245 377.84ZM443.285 284.48L440.972 282.569L440.964 282.579L440.956 282.589L443.285 284.48ZM508.085 273.68L506.697 276.34L506.732 276.358L506.766 276.375L508.085 273.68ZM525.605 289.76L523.022 291.286L523.035 291.308L523.048 291.329L525.605 289.76ZM531.605 323.12L528.626 322.769L528.615 322.856L528.61 322.944L531.605 323.12ZM530.405 331.28V334.28H532.781L533.325 331.967L530.405 331.28ZM459.365 331.28V328.28H456.365V331.28H459.365ZM466.565 374.96L464.036 376.574L464.044 376.586L464.052 376.599L466.565 374.96ZM507.365 380L509.286 382.305L509.308 382.286L509.33 382.267L507.365 380ZM515.525 359.12L516.337 356.232L512.774 355.23L512.531 358.924L515.525 359.12ZM465.125 287.12L467.772 288.532L465.125 287.12ZM459.365 322.88H456.365V325.88H459.365V322.88ZM502.805 322.88V325.88H505.264L505.747 323.468L502.805 322.88ZM504.005 314L501.023 313.669L501.015 313.746L501.01 313.824L504.005 314ZM530.885 363.44L527.98 362.693C525.241 373.342 520.253 380.587 513.239 384.881L514.805 387.44L516.371 389.999C525.037 384.693 530.769 375.938 533.79 364.187L530.885 363.44ZM514.805 387.44L513.277 384.858C505.962 389.188 497.385 391.4 487.445 391.4V394.4V397.4C498.305 397.4 507.968 394.973 516.333 390.022L514.805 387.44ZM487.445 394.4V391.4C468.825 391.4 455.374 386.066 446.509 375.871L444.245 377.84L441.981 379.809C452.316 391.694 467.665 397.4 487.445 397.4V394.4ZM444.245 377.84L446.523 375.888C437.496 365.356 432.845 351.307 432.845 333.44H429.845H426.845C426.845 352.373 431.794 367.924 441.967 379.792L444.245 377.84ZM429.845 333.44H432.845V328.64H429.845H426.845V333.44H429.845ZM429.845 328.64H432.845C432.845 310.723 437.202 296.736 445.614 286.371L443.285 284.48L440.956 282.589C431.448 294.304 426.845 309.757 426.845 328.64H429.845ZM443.285 284.48L445.598 286.391C454.035 276.177 466.226 270.92 482.645 270.92V267.92V264.92C464.824 264.92 450.775 270.703 440.972 282.569L443.285 284.48ZM482.645 267.92V270.92C491.838 270.92 499.828 272.756 506.697 276.34L508.085 273.68L509.473 271.02C501.622 266.924 492.652 264.92 482.645 264.92V267.92ZM508.085 273.68L506.766 276.375C513.773 279.804 519.168 284.763 523.022 291.286L525.605 289.76L528.188 288.234C523.722 280.677 517.437 274.916 509.404 270.985L508.085 273.68ZM525.605 289.76L523.048 291.329C527.02 297.803 529.085 305.792 529.085 315.44H532.085H535.085C535.085 304.928 532.83 295.797 528.162 288.191L525.605 289.76ZM532.085 315.44H529.085C529.085 317.708 528.934 320.15 528.626 322.769L531.605 323.12L534.584 323.471C534.916 320.65 535.085 317.972 535.085 315.44H532.085ZM531.605 323.12L528.61 322.944C528.461 325.487 528.086 328.036 527.485 330.593L530.405 331.28L533.325 331.967C534.004 329.084 534.429 326.193 534.6 323.296L531.605 323.12ZM530.405 331.28V328.28H459.365V331.28V334.28H530.405V331.28ZM459.365 331.28H456.365V338.24H459.365H462.365V331.28H459.365ZM459.365 338.24H456.365C456.365 355.337 458.757 368.304 464.036 376.574L466.565 374.96L469.094 373.346C464.773 366.576 462.365 355.063 462.365 338.24H459.365ZM466.565 374.96L464.052 376.599C469.533 385.002 478.367 389 489.845 389V386V383C479.883 383 473.197 379.638 469.078 373.321L466.565 374.96ZM489.845 386V389C497.351 389 503.891 386.8 509.286 382.305L507.365 380L505.444 377.695C501.239 381.2 496.099 383 489.845 383V386ZM507.365 380L509.33 382.267C514.995 377.358 517.854 369.453 518.519 359.316L515.525 359.12L512.531 358.924C511.916 368.307 509.335 374.322 505.4 377.733L507.365 380ZM515.525 359.12L514.713 362.008L530.073 366.328L530.885 363.44L531.697 360.552L516.337 356.232L515.525 359.12ZM482.645 276.32V273.32C478.25 273.32 474.269 274.335 470.811 276.466C467.359 278.594 464.6 281.729 462.478 285.708L465.125 287.12L467.772 288.532C469.49 285.311 471.571 283.046 473.959 281.574C476.341 280.105 479.2 279.32 482.645 279.32V276.32ZM465.125 287.12L462.478 285.708C458.269 293.6 456.365 306.159 456.365 322.88H459.365H462.365C462.365 306.321 464.301 295.04 467.772 288.532L465.125 287.12ZM459.365 322.88V325.88H502.805V322.88V319.88H459.365V322.88ZM502.805 322.88L505.747 323.468C506.409 320.158 506.83 317.058 507 314.176L504.005 314L501.01 313.824C500.86 316.382 500.481 319.202 499.863 322.292L502.805 322.88ZM504.005 314L506.987 314.331C507.316 311.363 507.485 308.611 507.485 306.08H504.485H501.485C501.485 308.349 501.334 310.877 501.023 313.669L504.005 314ZM504.485 306.08H507.485C507.485 295.555 505.448 287.189 500.79 281.599L498.485 283.52L496.18 285.441C499.522 289.451 501.485 296.125 501.485 306.08H504.485ZM498.485 283.52L500.79 281.599C496.188 276.077 490.044 273.32 482.645 273.32V276.32V279.32C488.366 279.32 492.782 281.363 496.18 285.441L498.485 283.52ZM549.676 277.04H546.676V279.682L549.297 280.016L549.676 277.04ZM549.676 270.32V267.32H546.676V270.32H549.676ZM594.316 270.32H597.316V267.32H594.316V270.32ZM594.316 290H591.316V299.953L596.817 291.658L594.316 290ZM643.516 272.72L641.813 275.19L641.842 275.21L641.872 275.229L643.516 272.72ZM655.036 290L656.46 292.64L658.731 291.416L657.86 288.988L655.036 290ZM633.676 301.52L630.837 302.489L631.982 305.842L635.1 304.16L633.676 301.52ZM625.756 288.32L623.836 290.625L623.905 290.682L623.977 290.735L625.756 288.32ZM595.756 300.56L593.16 299.057L592.756 299.754V300.56H595.756ZM596.476 381.68L593.719 382.862L593.754 382.943L593.793 383.022L596.476 381.68ZM601.036 383.6L600.664 386.577L600.711 386.583L600.757 386.587L601.036 383.6ZM619.036 385.28H622.036V382.547L619.315 382.293L619.036 385.28ZM619.036 392V395H622.036V392H619.036ZM549.676 392H546.676V395H549.676V392ZM549.676 385.28L549.297 382.304L546.676 382.638V385.28H549.676ZM562.876 383.6L562.504 380.623L562.497 380.624L562.876 383.6ZM567.436 381.68L570.12 383.022L570.159 382.943L570.194 382.862L567.436 381.68ZM567.436 280.88L564.679 282.062L564.714 282.143L564.753 282.222L567.436 280.88ZM562.876 278.72L562.497 281.696L562.504 281.697L562.876 278.72ZM549.676 277.04H552.676V270.32H549.676H546.676V277.04H549.676ZM549.676 270.32V273.32H594.316V270.32V267.32H549.676V270.32ZM594.316 270.32H591.316V290H594.316H597.316V270.32H594.316ZM594.316 290L596.817 291.658C606.215 277.482 616.99 270.92 629.116 270.92V267.92V264.92C614.363 264.92 601.937 273.078 591.816 288.342L594.316 290ZM629.116 267.92V270.92C633.387 270.92 637.603 272.286 641.813 275.19L643.516 272.72L645.219 270.25C640.149 266.754 634.765 264.92 629.116 264.92V267.92ZM643.516 272.72L641.872 275.229C645.72 277.75 649.266 282.794 652.212 291.012L655.036 290L657.86 288.988C654.727 280.246 650.593 273.77 645.16 270.211L643.516 272.72ZM655.036 290L653.612 287.36L632.252 298.88L633.676 301.52L635.1 304.16L656.46 292.64L655.036 290ZM633.676 301.52L636.515 300.551C634.22 293.83 631.332 288.702 627.536 285.905L625.756 288.32L623.977 290.735C626.26 292.418 628.652 296.09 630.837 302.489L633.676 301.52ZM625.756 288.32L627.677 286.015C624.324 283.221 620.54 281.72 616.396 281.72V284.72V287.72C618.973 287.72 621.428 288.619 623.836 290.625L625.756 288.32ZM616.396 284.72V281.72C612.2 281.72 608.19 283.065 604.412 285.584L606.076 288.08L607.74 290.576C610.682 288.615 613.552 287.72 616.396 287.72V284.72ZM606.076 288.08L604.412 285.584C600.484 288.203 596.764 292.832 593.16 299.057L595.756 300.56L598.353 302.063C601.789 296.128 604.949 292.437 607.74 290.576L606.076 288.08ZM595.756 300.56H592.756V371.84H595.756H598.756V300.56H595.756ZM595.756 371.84H592.756C592.756 374.593 592.817 376.855 592.944 378.599C593.061 380.189 593.253 381.776 593.719 382.862L596.476 381.68L599.234 380.498C599.258 380.555 599.199 380.424 599.122 379.951C599.051 379.519 598.984 378.93 598.928 378.161C598.816 376.625 598.756 374.527 598.756 371.84H595.756ZM596.476 381.68L593.793 383.022C594.486 384.408 595.731 385.19 596.812 385.645C597.926 386.114 599.247 386.4 600.664 386.577L601.036 383.6L601.408 380.623C600.266 380.48 599.547 380.286 599.14 380.115C598.701 379.93 598.946 379.912 599.16 380.338L596.476 381.68ZM601.036 383.6L600.757 386.587L618.757 388.267L619.036 385.28L619.315 382.293L601.315 380.613L601.036 383.6ZM619.036 385.28H616.036V392H619.036H622.036V385.28H619.036ZM619.036 392V389H549.676V392V395H619.036V392ZM549.676 392H552.676V385.28H549.676H546.676V392H549.676ZM549.676 385.28L550.055 388.256L563.255 386.576L562.876 383.6L562.497 380.624L549.297 382.304L549.676 385.28ZM562.876 383.6L563.248 386.577C564.666 386.4 565.987 386.114 567.1 385.645C568.181 385.19 569.426 384.408 570.12 383.022L567.436 381.68L564.753 380.338C564.966 379.912 565.211 379.93 564.772 380.115C564.366 380.286 563.647 380.48 562.504 380.623L562.876 383.6ZM567.436 381.68L570.194 382.862C570.659 381.776 570.852 380.189 570.968 378.599C571.096 376.855 571.156 374.593 571.156 371.84H568.156H565.156C565.156 374.527 565.097 376.625 564.984 378.161C564.928 378.93 564.861 379.519 564.791 379.951C564.713 380.424 564.655 380.555 564.679 380.498L567.436 381.68ZM568.156 371.84H571.156V290.48H568.156H565.156V371.84H568.156ZM568.156 290.48H571.156C571.156 287.729 571.096 285.484 570.968 283.776C570.904 282.923 570.82 282.159 570.707 281.508C570.606 280.922 570.443 280.185 570.12 279.538L567.436 280.88L564.753 282.222C564.67 282.055 564.717 282.078 564.795 282.532C564.863 282.921 564.929 283.477 564.985 284.224C565.097 285.716 565.156 287.791 565.156 290.48H568.156ZM567.436 280.88L570.194 279.698C569.572 278.248 568.39 277.343 567.221 276.789C566.062 276.24 564.695 275.924 563.248 275.743L562.876 278.72L562.504 281.697C563.618 281.836 564.291 282.04 564.652 282.211C565.003 282.377 564.821 282.392 564.679 282.062L567.436 280.88ZM562.876 278.72L563.255 275.744L550.055 274.064L549.676 277.04L549.297 280.016L562.497 281.696L562.876 278.72ZM679.016 245.12L676.841 247.186L676.867 247.214L676.894 247.241L679.016 245.12ZM679.016 220.88L676.894 218.759V218.759L679.016 220.88ZM703.016 220.88L705.082 218.705V218.705L703.016 220.88ZM703.016 245.12L705.082 247.295L705.11 247.269L705.137 247.241L703.016 245.12ZM658.856 277.04H655.856V279.682L658.477 280.016L658.856 277.04ZM658.856 270.32V267.32H655.856V270.32H658.856ZM704.936 270.32H707.936V267.32H704.936V270.32ZM700.856 422.48L703.646 423.583V423.583L700.856 422.48ZM687.656 439.04L685.962 436.564L685.94 436.579L685.918 436.594L687.656 439.04ZM640.856 438.8L639.106 441.237L640.856 438.8ZM629.336 416L628.457 413.132L626.024 413.877L626.362 416.399L629.336 416ZM644.216 411.44L647.206 411.206L646.915 407.475L643.337 408.572L644.216 411.44ZM649.976 431.84L652.246 429.879L652.223 429.853L652.2 429.827L649.976 431.84ZM672.776 430.16L670.266 428.516L670.246 428.547L670.227 428.578L672.776 430.16ZM676.616 280.88L673.858 282.062L673.893 282.143L673.932 282.222L676.616 280.88ZM672.056 278.72L671.677 281.696L671.684 281.697L672.056 278.72ZM691.016 249.68V246.68C686.719 246.68 683.527 245.389 681.137 242.999L679.016 245.12L676.894 247.241C680.584 250.931 685.392 252.68 691.016 252.68V249.68ZM679.016 245.12L681.191 243.054C678.747 240.482 677.456 237.174 677.456 232.88H674.456H671.456C671.456 238.506 673.204 243.358 676.841 247.186L679.016 245.12ZM674.456 232.88H677.456C677.456 228.583 678.747 225.391 681.137 223.001L679.016 220.88L676.894 218.759C673.204 222.449 671.456 227.257 671.456 232.88H674.456ZM679.016 220.88L681.137 223.001C683.527 220.611 686.719 219.32 691.016 219.32V216.32V213.32C685.392 213.32 680.584 215.069 676.894 218.759L679.016 220.88ZM691.016 216.32V219.32C695.12 219.32 698.358 220.593 700.949 223.055L703.016 220.88L705.082 218.705C701.273 215.087 696.511 213.32 691.016 213.32V216.32ZM703.016 220.88L700.949 223.055C703.477 225.456 704.816 228.63 704.816 232.88H707.816H710.816C710.816 227.21 708.955 222.384 705.082 218.705L703.016 220.88ZM707.816 232.88H704.816C704.816 237.128 703.475 240.418 700.894 242.999L703.016 245.12L705.137 247.241C708.956 243.422 710.816 238.552 710.816 232.88H707.816ZM703.016 245.12L700.949 242.945C698.358 245.407 695.12 246.68 691.016 246.68V249.68V252.68C696.511 252.68 701.273 250.913 705.082 247.295L703.016 245.12ZM658.856 277.04H661.856V270.32H658.856H655.856V277.04H658.856ZM658.856 270.32V273.32H704.936V270.32V267.32H658.856V270.32ZM704.936 270.32H701.936V400.16H704.936H707.936V270.32H704.936ZM704.936 400.16H701.936C701.936 407.813 700.636 414.876 698.066 421.377L700.856 422.48L703.646 423.583C706.515 416.324 707.936 408.507 707.936 400.16H704.936ZM700.856 422.48L698.066 421.377C695.565 427.703 691.545 432.744 685.962 436.564L687.656 439.04L689.35 441.516C695.926 437.016 700.706 431.017 703.646 423.583L700.856 422.48ZM687.656 439.04L685.918 436.594C680.497 440.447 673.088 442.52 663.416 442.52V445.52V448.52C673.903 448.52 682.655 446.273 689.393 441.486L687.656 439.04ZM663.416 445.52V442.52C655.149 442.52 648.263 440.425 642.605 436.363L640.856 438.8L639.106 441.237C645.928 446.135 654.083 448.52 663.416 448.52V445.52ZM640.856 438.8L642.605 436.363C637.272 432.534 633.685 425.843 632.309 415.601L629.336 416L626.362 416.399C627.866 427.597 631.959 436.106 639.106 441.237L640.856 438.8ZM629.336 416L630.215 418.868L645.095 414.308L644.216 411.44L643.337 408.572L628.457 413.132L629.336 416ZM644.216 411.44L641.225 411.674C641.634 416.91 642.337 421.381 643.369 425.035C644.391 428.656 645.795 431.691 647.751 433.853L649.976 431.84L652.2 429.827C651.116 428.629 650.04 426.584 649.143 423.405C648.255 420.259 647.597 416.21 647.206 411.206L644.216 411.44ZM649.976 431.84L647.705 433.801C651.212 437.862 655.518 440.12 660.536 440.12V437.12V434.12C657.553 434.12 654.819 432.858 652.246 429.879L649.976 431.84ZM660.536 437.12V440.12C666.896 440.12 671.92 437.227 675.325 431.742L672.776 430.16L670.227 428.578C667.871 432.373 664.735 434.12 660.536 434.12V437.12ZM672.776 430.16L675.285 431.804C678.851 426.361 680.336 417.156 680.336 404.96H677.336H674.336C674.336 417.084 672.78 424.679 670.266 428.516L672.776 430.16ZM677.336 404.96H680.336V290.48H677.336H674.336V404.96H677.336ZM677.336 290.48H680.336C680.336 287.729 680.275 285.484 680.147 283.776C680.083 282.923 679.999 282.159 679.887 281.508C679.785 280.922 679.622 280.185 679.299 279.538L676.616 280.88L673.932 282.222C673.849 282.055 673.896 282.078 673.975 282.532C674.042 282.921 674.108 283.477 674.164 284.224C674.276 285.716 674.336 287.791 674.336 290.48H677.336ZM676.616 280.88L679.373 279.698C678.751 278.248 677.569 277.343 676.4 276.789C675.241 276.24 673.874 275.924 672.428 275.743L672.056 278.72L671.684 281.697C672.797 281.836 673.47 282.04 673.831 282.211C674.182 282.377 674 282.392 673.858 282.062L676.616 280.88ZM672.056 278.72L672.434 275.744L659.234 274.064L658.856 277.04L658.477 280.016L671.677 281.696L672.056 278.72ZM751.008 245.12L748.833 247.186L748.86 247.214L748.887 247.241L751.008 245.12ZM751.008 220.88L748.887 218.759V218.759L751.008 220.88ZM775.008 220.88L777.074 218.705V218.705L775.008 220.88ZM775.008 245.12L777.074 247.295L777.102 247.269L777.129 247.241L775.008 245.12ZM730.848 277.04H727.848V279.682L730.469 280.016L730.848 277.04ZM730.848 270.32V267.32H727.848V270.32H730.848ZM776.928 270.32H779.928V267.32H776.928V270.32ZM777.648 381.68L774.891 382.862L774.925 382.943L774.965 383.022L777.648 381.68ZM782.208 383.6L782.587 380.624L782.58 380.623L782.208 383.6ZM795.408 385.28H798.408V382.638L795.787 382.304L795.408 385.28ZM795.408 392V395H798.408V392H795.408ZM730.848 392H727.848V395H730.848V392ZM730.848 385.28L730.469 382.304L727.848 382.638V385.28H730.848ZM744.048 383.6L743.676 380.623L743.669 380.624L744.048 383.6ZM748.608 381.68L751.291 383.022L751.331 382.943L751.366 382.862L748.608 381.68ZM748.608 280.88L745.851 282.062L745.885 282.143L745.925 282.222L748.608 280.88ZM744.048 278.72L743.669 281.696L743.676 281.697L744.048 278.72ZM763.008 249.68V246.68C758.711 246.68 755.52 245.389 753.129 242.999L751.008 245.12L748.887 247.241C752.577 250.931 757.385 252.68 763.008 252.68V249.68ZM751.008 245.12L753.183 243.054C750.74 240.482 749.448 237.174 749.448 232.88H746.448H743.448C743.448 238.506 745.196 243.358 748.833 247.186L751.008 245.12ZM746.448 232.88H749.448C749.448 228.583 750.739 225.391 753.129 223.001L751.008 220.88L748.887 218.759C745.197 222.449 743.448 227.257 743.448 232.88H746.448ZM751.008 220.88L753.129 223.001C755.52 220.611 758.711 219.32 763.008 219.32V216.32V213.32C757.385 213.32 752.577 215.069 748.887 218.759L751.008 220.88ZM763.008 216.32V219.32C767.113 219.32 770.351 220.593 772.942 223.055L775.008 220.88L777.074 218.705C773.266 215.087 768.504 213.32 763.008 213.32V216.32ZM775.008 220.88L772.942 223.055C775.469 225.456 776.808 228.63 776.808 232.88H779.808H782.808C782.808 227.21 780.947 222.384 777.074 218.705L775.008 220.88ZM779.808 232.88H776.808C776.808 237.128 775.467 240.418 772.887 242.999L775.008 245.12L777.129 247.241C780.949 243.422 782.808 238.552 782.808 232.88H779.808ZM775.008 245.12L772.942 242.945C770.351 245.407 767.113 246.68 763.008 246.68V249.68V252.68C768.504 252.68 773.266 250.913 777.074 247.295L775.008 245.12ZM730.848 277.04H733.848V270.32H730.848H727.848V277.04H730.848ZM730.848 270.32V273.32H776.928V270.32V267.32H730.848V270.32ZM776.928 270.32H773.928V371.84H776.928H779.928V270.32H776.928ZM776.928 371.84H773.928C773.928 374.593 773.988 376.855 774.116 378.599C774.232 380.189 774.425 381.776 774.891 382.862L777.648 381.68L780.406 380.498C780.43 380.555 780.371 380.424 780.294 379.951C780.223 379.519 780.156 378.93 780.1 378.161C779.988 376.625 779.928 374.527 779.928 371.84H776.928ZM777.648 381.68L774.965 383.022C775.658 384.408 776.903 385.19 777.984 385.645C779.098 386.114 780.419 386.4 781.836 386.577L782.208 383.6L782.58 380.623C781.438 380.48 780.719 380.286 780.312 380.115C779.873 379.93 780.118 379.912 780.331 380.338L777.648 381.68ZM782.208 383.6L781.829 386.576L795.029 388.256L795.408 385.28L795.787 382.304L782.587 380.624L782.208 383.6ZM795.408 385.28H792.408V392H795.408H798.408V385.28H795.408ZM795.408 392V389H730.848V392V395H795.408V392ZM730.848 392H733.848V385.28H730.848H727.848V392H730.848ZM730.848 385.28L731.227 388.256L744.427 386.576L744.048 383.6L743.669 380.624L730.469 382.304L730.848 385.28ZM744.048 383.6L744.42 386.577C745.838 386.4 747.159 386.114 748.272 385.645C749.353 385.19 750.598 384.408 751.291 383.022L748.608 381.68L745.925 380.338C746.138 379.912 746.383 379.93 745.944 380.115C745.538 380.286 744.818 380.48 743.676 380.623L744.048 383.6ZM748.608 381.68L751.366 382.862C751.831 381.776 752.024 380.189 752.14 378.599C752.268 376.855 752.328 374.593 752.328 371.84H749.328H746.328C746.328 374.527 746.268 376.625 746.156 378.161C746.1 378.93 746.033 379.519 745.963 379.951C745.885 380.424 745.827 380.555 745.851 380.498L748.608 381.68ZM749.328 371.84H752.328V290.48H749.328H746.328V371.84H749.328ZM749.328 290.48H752.328C752.328 287.729 752.268 285.484 752.14 283.776C752.076 282.923 751.992 282.159 751.879 281.508C751.778 280.922 751.615 280.185 751.291 279.538L748.608 280.88L745.925 282.222C745.841 282.055 745.889 282.078 745.967 282.532C746.034 282.921 746.1 283.477 746.157 284.224C746.268 285.716 746.328 287.791 746.328 290.48H749.328ZM748.608 280.88L751.366 279.698C750.744 278.248 749.562 277.343 748.392 276.789C747.234 276.24 745.866 275.924 744.42 275.743L744.048 278.72L743.676 281.697C744.79 281.836 745.463 282.04 745.824 282.211C746.175 282.377 745.992 282.392 745.851 282.062L748.608 280.88ZM744.048 278.72L744.427 275.744L731.227 274.064L730.848 277.04L730.469 280.016L743.669 281.696L744.048 278.72Z" fill="#2E7DA9" mask="url(#path-15-outside-1_8_23)"/>
</svg>
