<svg width="1028" height="1028" viewBox="0 0 1028 1028" fill="none" xmlns="http://www.w3.org/2000/svg">
<path d="M640 332.638L629 324.138C623.667 336.305 614.1 362.238 588.5 380.638C556.5 403.638 455.361 389.107 419 337.638C348 237.138 304.5 215.638 330.5 216.138C356.5 216.638 380.5 261.138 443 328.138C505.5 395.138 613.5 377.638 574.5 371.638C535.5 365.638 493.5 298.638 492.5 297.638C491.7 296.838 456.5 248.638 439 224.638C401.8 177.038 348.833 160.138 327 157.638C315 149.238 249 154.138 217.5 157.638C295.1 219.238 322.833 274.305 327 294.138C351 376.638 486 401.638 443 393.638C408.6 387.238 351.333 451.638 327 484.638L217.5 630.138C331.5 646.538 407 598.971 430.5 573.138C464.158 536.138 560.667 410.638 588.5 394.638L640 332.638Z" fill="#6DB545" stroke="#6DB545" stroke-width="5"/>
<path d="M588 406.638L630 458.638" stroke="#2589C4" stroke-width="9"/>
<path d="M665.5 213.138L572 335.138" stroke="#2589C4" stroke-width="9"/>
<path d="M665.5 574.638L572 452.638" stroke="#2589C4" stroke-width="9"/>
<path d="M589 181.138L547 236.638M505 292.138L547 236.638M547 236.638L565 277.638L530.5 324.638M547 236.638H606L660.5 164.138L753.5 165.138L656.5 292.138" stroke="#2589C4" stroke-width="9"/>
<path d="M598 615.138L556 559.638M514 504.138L556 559.638M556 559.638L574 518.638L539.5 471.638M556 559.638H615L669.5 632.138L762.5 631.138L665.5 504.138" stroke="#2589C4" stroke-width="9"/>
<circle cx="572" cy="335.638" r="19" fill="#2589C4"/>
<circle cx="666" cy="212.638" r="19" fill="#2589C4"/>
<circle cx="657" cy="490.638" r="19" fill="#2589C4"/>
<circle cx="589" cy="605.638" r="19" fill="#2589C4"/>
<circle cx="572" cy="452.638" r="19" fill="#2589C4"/>
<circle cx="666" cy="570.638" r="19" fill="#2589C4"/>
<circle cx="657" cy="292.638" r="19" fill="#2589C4"/>
<circle cx="589" cy="180.638" r="19" fill="#2589C4"/>
<mask id="path-15-outside-1_1_20" maskUnits="userSpaceOnUse" x="59" y="660.638" width="733" height="236" fill="black">
<rect fill="white" x="59" y="660.638" width="733" height="236"/>
<path d="M118 833.638C127.6 833.638 135.52 831.398 141.76 826.918C148.16 822.278 151.36 815.078 151.36 805.318C151.36 798.118 149.2 792.118 144.88 787.318C140.72 782.518 133.2 778.518 122.32 775.318L100 768.598C88.8 765.238 80.16 759.478 74.08 751.318C68.16 742.998 65.2 732.678 65.2 720.358C65.2 712.198 67.04 704.598 70.72 697.558C74.56 690.518 80.32 684.838 88 680.518C95.84 676.198 105.68 674.038 117.52 674.038C130.48 674.038 140.96 676.438 148.96 681.238C156.96 685.878 162.56 691.958 165.76 699.478C168.96 706.998 169.76 715.078 168.16 723.718L140.56 728.758C143.12 713.878 142 702.438 137.2 694.438C132.56 686.438 124.96 682.438 114.4 682.438C106.24 682.438 99.68 684.838 94.72 689.638C89.92 694.438 87.52 701.318 87.52 710.278C87.52 717.638 89.6 724.118 93.76 729.718C98.08 735.318 105.12 739.638 114.88 742.678L137.2 749.398C149.36 752.918 158.48 758.278 164.56 765.478C170.64 772.518 173.68 782.358 173.68 794.998C173.68 803.958 171.6 812.038 167.44 819.238C163.44 826.278 157.28 831.878 148.96 836.038C140.8 840.038 130.56 842.038 118.24 842.038C109.28 842.038 100.8 840.758 92.8 838.198C84.8 835.478 78.08 831.078 72.64 824.998C67.36 818.918 64 810.678 62.56 800.278L78.64 794.518C79.44 804.758 81.68 812.758 85.36 818.518C89.2 824.118 93.92 828.038 99.52 830.278C105.28 832.518 111.44 833.638 118 833.638ZM224.446 697.318C219.486 697.318 215.486 695.798 212.446 692.758C209.406 689.558 207.886 685.478 207.886 680.518C207.886 675.558 209.406 671.558 212.446 668.518C215.486 665.478 219.486 663.958 224.446 663.958C229.246 663.958 233.246 665.478 236.446 668.518C239.646 671.558 241.246 675.558 241.246 680.518C241.246 685.478 239.646 689.558 236.446 692.758C233.246 695.798 229.246 697.318 224.446 697.318ZM192.286 724.678V717.958H238.366V819.478C238.366 824.918 238.606 828.198 239.086 829.318C239.566 830.278 241.086 830.918 243.646 831.238L256.846 832.918V839.638H192.286V832.918L205.486 831.238C208.046 830.918 209.566 830.278 210.046 829.318C210.526 828.198 210.766 824.918 210.766 819.478V738.118C210.766 732.678 210.526 729.478 210.046 728.518C209.566 727.398 208.046 726.678 205.486 726.358L192.286 724.678ZM407.474 832.918V839.638H342.914V832.918L356.114 831.238C358.674 830.918 360.194 830.278 360.674 829.318C361.154 828.198 361.394 824.918 361.394 819.478V758.998C361.394 747.958 359.714 739.958 356.354 734.998C353.154 729.878 348.354 727.318 341.954 727.318C339.234 727.318 336.034 728.038 332.354 729.478C328.834 730.758 325.234 733.158 321.554 736.678C318.034 740.198 314.914 745.398 312.194 752.278V819.478C312.194 824.918 312.434 828.198 312.914 829.318C313.394 830.278 314.914 830.918 317.474 831.238L330.674 832.918V839.638H266.114V832.918L279.314 831.238C281.874 830.918 283.394 830.278 283.874 829.318C284.354 828.198 284.594 824.918 284.594 819.478V738.118C284.594 732.678 284.354 729.478 283.874 728.518C283.394 727.398 281.874 726.678 279.314 726.358L266.114 724.678V717.958H310.754V739.078C315.394 730.918 321.314 724.998 328.514 721.318C335.874 717.478 343.234 715.558 350.594 715.558C362.434 715.558 371.794 719.318 378.674 726.838C385.554 734.358 388.994 744.998 388.994 758.758V819.478C388.994 824.918 389.234 828.198 389.714 829.318C390.194 830.278 391.714 830.918 394.274 831.238L407.474 832.918ZM523.885 811.078C521.005 822.278 515.645 830.278 507.805 835.078C499.965 839.718 490.845 842.038 480.445 842.038C461.245 842.038 446.845 836.518 437.245 825.478C427.645 814.278 422.845 799.478 422.845 781.078V776.278C422.845 757.878 427.325 743.158 436.285 732.118C445.405 721.078 458.525 715.558 475.645 715.558C485.245 715.558 493.725 717.478 501.085 721.318C508.605 724.998 514.445 730.358 518.605 737.398C522.925 744.438 525.085 752.998 525.085 763.078C525.085 765.478 524.925 768.038 524.605 770.758C524.445 773.478 524.045 776.198 523.405 778.918H452.365V785.878C452.365 802.838 454.765 815.078 459.565 822.598C464.365 829.958 472.125 833.638 482.845 833.638C489.725 833.638 495.565 831.638 500.365 827.638C505.165 823.478 507.885 816.518 508.525 806.758L523.885 811.078ZM475.645 723.958C467.805 723.958 461.965 727.558 458.125 734.758C454.285 741.958 452.365 753.878 452.365 770.518H495.805C496.445 767.318 496.845 764.358 497.005 761.638C497.325 758.758 497.485 756.118 497.485 753.718C497.485 743.478 495.485 735.958 491.485 731.158C487.485 726.358 482.205 723.958 475.645 723.958ZM542.676 724.678V717.958H587.316V737.638C597.076 722.918 608.676 715.558 622.116 715.558C627.076 715.558 631.876 717.158 636.516 720.358C641.156 723.398 644.996 729.158 648.036 737.638L626.676 749.158C624.436 742.598 621.796 738.198 618.756 735.958C615.876 733.558 612.756 732.358 609.396 732.358C605.876 732.358 602.436 733.478 599.076 735.718C595.716 737.958 592.276 742.118 588.756 748.198V819.478C588.756 824.918 588.996 828.198 589.476 829.318C589.956 830.278 591.476 830.918 594.036 831.238L612.036 832.918V839.638H542.676V832.918L555.876 831.238C558.436 830.918 559.956 830.278 560.436 829.318C560.916 828.198 561.156 824.918 561.156 819.478V738.118C561.156 732.678 560.916 729.478 560.436 728.518C559.956 727.398 558.436 726.678 555.876 726.358L542.676 724.678ZM684.016 697.318C679.056 697.318 675.056 695.798 672.016 692.758C668.976 689.558 667.456 685.478 667.456 680.518C667.456 675.558 668.976 671.558 672.016 668.518C675.056 665.478 679.056 663.958 684.016 663.958C688.816 663.958 692.816 665.478 696.016 668.518C699.216 671.558 700.816 675.558 700.816 680.518C700.816 685.478 699.216 689.558 696.016 692.758C692.816 695.798 688.816 697.318 684.016 697.318ZM651.856 724.678V717.958H697.936V847.798C697.936 855.798 696.576 863.238 693.856 870.118C691.136 876.998 686.736 882.518 680.656 886.678C674.576 890.998 666.496 893.158 656.416 893.158C647.616 893.158 640.096 890.918 633.856 886.438C627.616 881.958 623.776 874.358 622.336 863.638L637.216 859.078C638.016 869.318 639.936 876.118 642.976 879.478C646.016 882.998 649.536 884.758 653.536 884.758C658.816 884.758 662.896 882.438 665.776 877.798C668.816 873.158 670.336 864.758 670.336 852.598V738.118C670.336 732.678 670.096 729.478 669.616 728.518C669.136 727.398 667.616 726.678 665.056 726.358L651.856 724.678ZM756.008 697.318C751.048 697.318 747.048 695.798 744.008 692.758C740.968 689.558 739.448 685.478 739.448 680.518C739.448 675.558 740.968 671.558 744.008 668.518C747.048 665.478 751.048 663.958 756.008 663.958C760.808 663.958 764.808 665.478 768.008 668.518C771.208 671.558 772.808 675.558 772.808 680.518C772.808 685.478 771.208 689.558 768.008 692.758C764.808 695.798 760.808 697.318 756.008 697.318ZM723.848 724.678V717.958H769.928V819.478C769.928 824.918 770.168 828.198 770.648 829.318C771.128 830.278 772.648 830.918 775.208 831.238L788.408 832.918V839.638H723.848V832.918L737.048 831.238C739.608 830.918 741.128 830.278 741.608 829.318C742.088 828.198 742.328 824.918 742.328 819.478V738.118C742.328 732.678 742.088 729.478 741.608 728.518C741.128 727.398 739.608 726.678 737.048 726.358L723.848 724.678Z"/>
</mask>
<path d="M118 833.638C127.6 833.638 135.52 831.398 141.76 826.918C148.16 822.278 151.36 815.078 151.36 805.318C151.36 798.118 149.2 792.118 144.88 787.318C140.72 782.518 133.2 778.518 122.32 775.318L100 768.598C88.8 765.238 80.16 759.478 74.08 751.318C68.16 742.998 65.2 732.678 65.2 720.358C65.2 712.198 67.04 704.598 70.72 697.558C74.56 690.518 80.32 684.838 88 680.518C95.84 676.198 105.68 674.038 117.52 674.038C130.48 674.038 140.96 676.438 148.96 681.238C156.96 685.878 162.56 691.958 165.76 699.478C168.96 706.998 169.76 715.078 168.16 723.718L140.56 728.758C143.12 713.878 142 702.438 137.2 694.438C132.56 686.438 124.96 682.438 114.4 682.438C106.24 682.438 99.68 684.838 94.72 689.638C89.92 694.438 87.52 701.318 87.52 710.278C87.52 717.638 89.6 724.118 93.76 729.718C98.08 735.318 105.12 739.638 114.88 742.678L137.2 749.398C149.36 752.918 158.48 758.278 164.56 765.478C170.64 772.518 173.68 782.358 173.68 794.998C173.68 803.958 171.6 812.038 167.44 819.238C163.44 826.278 157.28 831.878 148.96 836.038C140.8 840.038 130.56 842.038 118.24 842.038C109.28 842.038 100.8 840.758 92.8 838.198C84.8 835.478 78.08 831.078 72.64 824.998C67.36 818.918 64 810.678 62.56 800.278L78.64 794.518C79.44 804.758 81.68 812.758 85.36 818.518C89.2 824.118 93.92 828.038 99.52 830.278C105.28 832.518 111.44 833.638 118 833.638ZM224.446 697.318C219.486 697.318 215.486 695.798 212.446 692.758C209.406 689.558 207.886 685.478 207.886 680.518C207.886 675.558 209.406 671.558 212.446 668.518C215.486 665.478 219.486 663.958 224.446 663.958C229.246 663.958 233.246 665.478 236.446 668.518C239.646 671.558 241.246 675.558 241.246 680.518C241.246 685.478 239.646 689.558 236.446 692.758C233.246 695.798 229.246 697.318 224.446 697.318ZM192.286 724.678V717.958H238.366V819.478C238.366 824.918 238.606 828.198 239.086 829.318C239.566 830.278 241.086 830.918 243.646 831.238L256.846 832.918V839.638H192.286V832.918L205.486 831.238C208.046 830.918 209.566 830.278 210.046 829.318C210.526 828.198 210.766 824.918 210.766 819.478V738.118C210.766 732.678 210.526 729.478 210.046 728.518C209.566 727.398 208.046 726.678 205.486 726.358L192.286 724.678ZM407.474 832.918V839.638H342.914V832.918L356.114 831.238C358.674 830.918 360.194 830.278 360.674 829.318C361.154 828.198 361.394 824.918 361.394 819.478V758.998C361.394 747.958 359.714 739.958 356.354 734.998C353.154 729.878 348.354 727.318 341.954 727.318C339.234 727.318 336.034 728.038 332.354 729.478C328.834 730.758 325.234 733.158 321.554 736.678C318.034 740.198 314.914 745.398 312.194 752.278V819.478C312.194 824.918 312.434 828.198 312.914 829.318C313.394 830.278 314.914 830.918 317.474 831.238L330.674 832.918V839.638H266.114V832.918L279.314 831.238C281.874 830.918 283.394 830.278 283.874 829.318C284.354 828.198 284.594 824.918 284.594 819.478V738.118C284.594 732.678 284.354 729.478 283.874 728.518C283.394 727.398 281.874 726.678 279.314 726.358L266.114 724.678V717.958H310.754V739.078C315.394 730.918 321.314 724.998 328.514 721.318C335.874 717.478 343.234 715.558 350.594 715.558C362.434 715.558 371.794 719.318 378.674 726.838C385.554 734.358 388.994 744.998 388.994 758.758V819.478C388.994 824.918 389.234 828.198 389.714 829.318C390.194 830.278 391.714 830.918 394.274 831.238L407.474 832.918ZM523.885 811.078C521.005 822.278 515.645 830.278 507.805 835.078C499.965 839.718 490.845 842.038 480.445 842.038C461.245 842.038 446.845 836.518 437.245 825.478C427.645 814.278 422.845 799.478 422.845 781.078V776.278C422.845 757.878 427.325 743.158 436.285 732.118C445.405 721.078 458.525 715.558 475.645 715.558C485.245 715.558 493.725 717.478 501.085 721.318C508.605 724.998 514.445 730.358 518.605 737.398C522.925 744.438 525.085 752.998 525.085 763.078C525.085 765.478 524.925 768.038 524.605 770.758C524.445 773.478 524.045 776.198 523.405 778.918H452.365V785.878C452.365 802.838 454.765 815.078 459.565 822.598C464.365 829.958 472.125 833.638 482.845 833.638C489.725 833.638 495.565 831.638 500.365 827.638C505.165 823.478 507.885 816.518 508.525 806.758L523.885 811.078ZM475.645 723.958C467.805 723.958 461.965 727.558 458.125 734.758C454.285 741.958 452.365 753.878 452.365 770.518H495.805C496.445 767.318 496.845 764.358 497.005 761.638C497.325 758.758 497.485 756.118 497.485 753.718C497.485 743.478 495.485 735.958 491.485 731.158C487.485 726.358 482.205 723.958 475.645 723.958ZM542.676 724.678V717.958H587.316V737.638C597.076 722.918 608.676 715.558 622.116 715.558C627.076 715.558 631.876 717.158 636.516 720.358C641.156 723.398 644.996 729.158 648.036 737.638L626.676 749.158C624.436 742.598 621.796 738.198 618.756 735.958C615.876 733.558 612.756 732.358 609.396 732.358C605.876 732.358 602.436 733.478 599.076 735.718C595.716 737.958 592.276 742.118 588.756 748.198V819.478C588.756 824.918 588.996 828.198 589.476 829.318C589.956 830.278 591.476 830.918 594.036 831.238L612.036 832.918V839.638H542.676V832.918L555.876 831.238C558.436 830.918 559.956 830.278 560.436 829.318C560.916 828.198 561.156 824.918 561.156 819.478V738.118C561.156 732.678 560.916 729.478 560.436 728.518C559.956 727.398 558.436 726.678 555.876 726.358L542.676 724.678ZM684.016 697.318C679.056 697.318 675.056 695.798 672.016 692.758C668.976 689.558 667.456 685.478 667.456 680.518C667.456 675.558 668.976 671.558 672.016 668.518C675.056 665.478 679.056 663.958 684.016 663.958C688.816 663.958 692.816 665.478 696.016 668.518C699.216 671.558 700.816 675.558 700.816 680.518C700.816 685.478 699.216 689.558 696.016 692.758C692.816 695.798 688.816 697.318 684.016 697.318ZM651.856 724.678V717.958H697.936V847.798C697.936 855.798 696.576 863.238 693.856 870.118C691.136 876.998 686.736 882.518 680.656 886.678C674.576 890.998 666.496 893.158 656.416 893.158C647.616 893.158 640.096 890.918 633.856 886.438C627.616 881.958 623.776 874.358 622.336 863.638L637.216 859.078C638.016 869.318 639.936 876.118 642.976 879.478C646.016 882.998 649.536 884.758 653.536 884.758C658.816 884.758 662.896 882.438 665.776 877.798C668.816 873.158 670.336 864.758 670.336 852.598V738.118C670.336 732.678 670.096 729.478 669.616 728.518C669.136 727.398 667.616 726.678 665.056 726.358L651.856 724.678ZM756.008 697.318C751.048 697.318 747.048 695.798 744.008 692.758C740.968 689.558 739.448 685.478 739.448 680.518C739.448 675.558 740.968 671.558 744.008 668.518C747.048 665.478 751.048 663.958 756.008 663.958C760.808 663.958 764.808 665.478 768.008 668.518C771.208 671.558 772.808 675.558 772.808 680.518C772.808 685.478 771.208 689.558 768.008 692.758C764.808 695.798 760.808 697.318 756.008 697.318ZM723.848 724.678V717.958H769.928V819.478C769.928 824.918 770.168 828.198 770.648 829.318C771.128 830.278 772.648 830.918 775.208 831.238L788.408 832.918V839.638H723.848V832.918L737.048 831.238C739.608 830.918 741.128 830.278 741.608 829.318C742.088 828.198 742.328 824.918 742.328 819.478V738.118C742.328 732.678 742.088 729.478 741.608 728.518C741.128 727.398 739.608 726.678 737.048 726.358L723.848 724.678Z" fill="#2589C4"/>
<path d="M141.76 826.918L143.51 829.355L143.521 829.347L141.76 826.918ZM144.88 787.318L142.613 789.283L142.631 789.304L142.65 789.325L144.88 787.318ZM122.32 775.318L121.455 778.191L121.464 778.193L121.474 778.196L122.32 775.318ZM100 768.598L100.865 765.725L100.862 765.725L100 768.598ZM74.08 751.318L71.6356 753.057L71.6547 753.084L71.6744 753.111L74.08 751.318ZM70.72 697.558L68.0863 696.122L68.0736 696.145L68.0613 696.168L70.72 697.558ZM88 680.518L86.5522 677.891L86.5407 677.897L86.5292 677.903L88 680.518ZM148.96 681.238L147.417 683.811L147.436 683.822L147.455 683.833L148.96 681.238ZM165.76 699.478L168.52 698.303H168.52L165.76 699.478ZM168.16 723.718L168.699 726.669L170.733 726.298L171.11 724.264L168.16 723.718ZM140.56 728.758L137.603 728.249L136.876 732.48L141.099 731.709L140.56 728.758ZM137.2 694.438L134.605 695.943L134.616 695.962L134.628 695.982L137.2 694.438ZM94.72 689.638L92.6337 687.482L92.6161 687.499L92.5987 687.517L94.72 689.638ZM93.76 729.718L91.3518 731.507L91.368 731.529L91.3847 731.55L93.76 729.718ZM114.88 742.678L113.988 745.542L114.001 745.547L114.015 745.551L114.88 742.678ZM137.2 749.398L136.335 752.271L136.35 752.275L136.366 752.28L137.2 749.398ZM164.56 765.478L162.268 767.414L162.279 767.426L162.29 767.439L164.56 765.478ZM167.44 819.238L164.842 817.737L164.837 817.747L164.832 817.756L167.44 819.238ZM148.96 836.038L150.28 838.732L150.291 838.727L150.302 838.721L148.96 836.038ZM92.8 838.198L91.8343 841.038L91.8599 841.047L91.8857 841.055L92.8 838.198ZM72.64 824.998L70.3749 826.965L70.3895 826.982L70.4043 826.998L72.64 824.998ZM62.56 800.278L61.5483 797.454L59.2541 798.276L59.5884 800.69L62.56 800.278ZM78.64 794.518L81.6309 794.284L81.325 790.37L77.6283 791.694L78.64 794.518ZM85.36 818.518L82.8319 820.133L82.8582 820.174L82.8858 820.215L85.36 818.518ZM99.52 830.278L98.4058 833.063L98.4192 833.069L98.4327 833.074L99.52 830.278ZM118 833.638V836.638C128.069 836.638 136.645 834.284 143.51 829.355L141.76 826.918L140.01 824.481C134.395 828.512 127.131 830.638 118 830.638V833.638ZM141.76 826.918L143.521 829.347C150.884 824.009 154.36 815.787 154.36 805.318H151.36H148.36C148.36 814.369 145.436 820.547 139.999 824.489L141.76 826.918ZM151.36 805.318H154.36C154.36 797.469 151.984 790.727 147.11 785.311L144.88 787.318L142.65 789.325C146.416 793.509 148.36 798.767 148.36 805.318H151.36ZM144.88 787.318L147.147 785.353C142.417 779.896 134.222 775.691 123.167 772.44L122.32 775.318L121.474 778.196C132.178 781.345 139.023 785.14 142.613 789.283L144.88 787.318ZM122.32 775.318L123.185 772.445L100.865 765.725L100 768.598L99.1351 771.471L121.455 778.191L122.32 775.318ZM100 768.598L100.862 765.725C90.1835 762.521 82.1248 757.094 76.4857 749.526L74.08 751.318L71.6744 753.111C78.1952 761.862 87.4165 767.955 99.138 771.472L100 768.598ZM74.08 751.318L76.5244 749.579C71.0351 741.864 68.2 732.186 68.2 720.358H65.2H62.2C62.2 733.17 65.2849 744.132 71.6356 753.057L74.08 751.318ZM65.2 720.358H68.2C68.2 712.668 69.9291 705.547 73.3787 698.948L70.72 697.558L68.0613 696.168C64.1509 703.649 62.2 711.728 62.2 720.358H65.2ZM70.72 697.558L73.3537 698.995C76.8979 692.497 82.2311 687.205 89.4708 683.133L88 680.518L86.5292 677.903C78.4089 682.471 72.2221 688.539 68.0863 696.122L70.72 697.558ZM88 680.518L89.4478 683.146C96.7241 679.136 106.029 677.038 117.52 677.038V674.038V671.038C105.331 671.038 94.9559 673.26 86.5522 677.891L88 680.518ZM117.52 674.038V677.038C130.139 677.038 140.03 679.379 147.417 683.811L148.96 681.238L150.503 678.666C141.89 673.497 130.821 671.038 117.52 671.038V674.038ZM148.96 681.238L147.455 683.833C154.971 688.193 160.086 693.807 163 700.653L165.76 699.478L168.52 698.303C165.034 690.109 158.949 683.563 150.465 678.643L148.96 681.238ZM165.76 699.478L163 700.653C165.951 707.589 166.711 715.066 165.21 723.172L168.16 723.718L171.11 724.264C172.809 715.09 171.969 706.407 168.52 698.303L165.76 699.478ZM168.16 723.718L167.621 720.767L140.021 725.807L140.56 728.758L141.099 731.709L168.699 726.669L168.16 723.718ZM140.56 728.758L143.517 729.267C146.128 714.089 145.111 701.792 139.772 692.895L137.2 694.438L134.628 695.982C138.889 703.084 140.112 713.667 137.603 728.249L140.56 728.758ZM137.2 694.438L139.795 692.933C134.533 683.86 125.848 679.438 114.4 679.438V682.438V685.438C124.072 685.438 130.587 689.016 134.605 695.943L137.2 694.438ZM114.4 682.438V679.438C105.613 679.438 98.2536 682.044 92.6337 687.482L94.72 689.638L96.8063 691.794C101.106 687.632 106.867 685.438 114.4 685.438V682.438ZM94.72 689.638L92.5987 687.517C87.0735 693.042 84.52 700.786 84.52 710.278H87.52H90.52C90.52 701.85 92.7665 695.834 96.8413 691.759L94.72 689.638ZM87.52 710.278H84.52C84.52 718.245 86.7855 725.36 91.3518 731.507L93.76 729.718L96.1682 727.929C92.4145 722.876 90.52 717.031 90.52 710.278H87.52ZM93.76 729.718L91.3847 731.55C96.215 737.812 103.89 742.397 113.988 745.542L114.88 742.678L115.772 739.814C106.35 736.879 99.945 732.824 96.1353 727.886L93.76 729.718ZM114.88 742.678L114.015 745.551L136.335 752.271L137.2 749.398L138.065 746.525L115.745 739.805L114.88 742.678ZM137.2 749.398L136.366 752.28C148.148 755.69 156.681 760.797 162.268 767.414L164.56 765.478L166.852 763.543C160.279 755.759 150.572 750.146 138.034 746.516L137.2 749.398ZM164.56 765.478L162.29 767.439C167.753 773.765 170.68 782.819 170.68 794.998H173.68H176.68C176.68 781.898 173.527 771.271 166.83 763.517L164.56 765.478ZM173.68 794.998H170.68C170.68 803.473 168.718 811.029 164.842 817.737L167.44 819.238L170.038 820.739C174.482 813.047 176.68 804.443 176.68 794.998H173.68ZM167.44 819.238L164.832 817.756C161.167 824.205 155.488 829.42 147.618 833.355L148.96 836.038L150.302 838.721C159.072 834.336 165.713 828.351 170.048 820.72L167.44 819.238ZM148.96 836.038L147.64 833.344C140.01 837.084 130.257 839.038 118.24 839.038V842.038V845.038C130.863 845.038 141.59 842.992 150.28 838.732L148.96 836.038ZM118.24 842.038V839.038C109.57 839.038 101.4 837.8 93.7143 835.341L92.8 838.198L91.8857 841.055C100.2 843.716 108.99 845.038 118.24 845.038V842.038ZM92.8 838.198L93.7657 835.358C86.2361 832.798 79.9591 828.679 74.8757 822.998L72.64 824.998L70.4043 826.998C76.2009 833.477 83.3639 838.158 91.8343 841.038L92.8 838.198ZM72.64 824.998L74.9051 823.031C70.1065 817.505 66.9158 809.863 65.5317 799.867L62.56 800.278L59.5884 800.69C61.0842 811.493 64.6135 820.331 70.3749 826.965L72.64 824.998ZM62.56 800.278L63.5717 803.102L79.6517 797.342L78.64 794.518L77.6283 791.694L61.5483 797.454L62.56 800.278ZM78.64 794.518L75.6491 794.752C76.4698 805.256 78.7862 813.801 82.8319 820.133L85.36 818.518L87.8881 816.903C84.5738 811.715 82.4102 804.26 81.6309 794.284L78.64 794.518ZM85.36 818.518L82.8858 820.215C87.0178 826.24 92.1871 830.576 98.4058 833.063L99.52 830.278L100.634 827.493C95.6529 825.5 91.3822 821.996 87.8342 816.821L85.36 818.518ZM99.52 830.278L98.4327 833.074C104.56 835.457 111.091 836.638 118 836.638V833.638V830.638C111.789 830.638 106 829.579 100.607 827.482L99.52 830.278ZM212.446 692.758L210.271 694.824L210.297 694.852L210.324 694.879L212.446 692.758ZM212.446 668.518L210.324 666.397V666.397L212.446 668.518ZM236.446 668.518L238.512 666.343V666.343L236.446 668.518ZM236.446 692.758L238.512 694.933L238.54 694.907L238.567 694.879L236.446 692.758ZM192.286 724.678H189.286V727.32L191.907 727.654L192.286 724.678ZM192.286 717.958V714.958H189.286V717.958H192.286ZM238.366 717.958H241.366V714.958H238.366V717.958ZM239.086 829.318L236.328 830.5L236.363 830.581L236.402 830.66L239.086 829.318ZM243.646 831.238L244.024 828.262L244.018 828.261L243.646 831.238ZM256.846 832.918H259.846V830.276L257.224 829.942L256.846 832.918ZM256.846 839.638V842.638H259.846V839.638H256.846ZM192.286 839.638H189.286V842.638H192.286V839.638ZM192.286 832.918L191.907 829.942L189.286 830.276V832.918H192.286ZM205.486 831.238L205.114 828.261L205.107 828.262L205.486 831.238ZM210.046 829.318L212.729 830.66L212.768 830.581L212.803 830.5L210.046 829.318ZM210.046 728.518L207.288 729.7L207.323 729.781L207.362 729.86L210.046 728.518ZM205.486 726.358L205.107 729.334L205.114 729.335L205.486 726.358ZM224.446 697.318V694.318C220.149 694.318 216.957 693.027 214.567 690.637L212.446 692.758L210.324 694.879C214.014 698.569 218.822 700.318 224.446 700.318V697.318ZM212.446 692.758L214.621 690.692C212.177 688.12 210.886 684.812 210.886 680.518H207.886H204.886C204.886 686.144 206.634 690.996 210.271 694.824L212.446 692.758ZM207.886 680.518H210.886C210.886 676.221 212.177 673.03 214.567 670.639L212.446 668.518L210.324 666.397C206.634 670.087 204.886 674.895 204.886 680.518H207.886ZM212.446 668.518L214.567 670.639C216.957 668.249 220.149 666.958 224.446 666.958V663.958V660.958C218.822 660.958 214.014 662.707 210.324 666.397L212.446 668.518ZM224.446 663.958V666.958C228.55 666.958 231.788 668.231 234.379 670.693L236.446 668.518L238.512 666.343C234.703 662.725 229.941 660.958 224.446 660.958V663.958ZM236.446 668.518L234.379 670.693C236.907 673.094 238.246 676.268 238.246 680.518H241.246H244.246C244.246 674.848 242.385 670.022 238.512 666.343L236.446 668.518ZM241.246 680.518H238.246C238.246 684.766 236.905 688.056 234.324 690.637L236.446 692.758L238.567 694.879C242.386 691.06 244.246 686.19 244.246 680.518H241.246ZM236.446 692.758L234.379 690.583C231.788 693.045 228.55 694.318 224.446 694.318V697.318V700.318C229.941 700.318 234.703 698.551 238.512 694.933L236.446 692.758ZM192.286 724.678H195.286V717.958H192.286H189.286V724.678H192.286ZM192.286 717.958V720.958H238.366V717.958V714.958H192.286V717.958ZM238.366 717.958H235.366V819.478H238.366H241.366V717.958H238.366ZM238.366 819.478H235.366C235.366 822.231 235.426 824.493 235.554 826.237C235.67 827.827 235.863 829.414 236.328 830.5L239.086 829.318L241.843 828.136C241.867 828.193 241.809 828.062 241.731 827.589C241.661 827.157 241.594 826.568 241.538 825.799C241.425 824.264 241.366 822.165 241.366 819.478H238.366ZM239.086 829.318L236.402 830.66C237.096 832.046 238.34 832.828 239.421 833.283C240.535 833.752 241.856 834.038 243.274 834.215L243.646 831.238L244.018 828.261C242.875 828.118 242.156 827.924 241.75 827.753C241.311 827.568 241.556 827.55 241.769 827.976L239.086 829.318ZM243.646 831.238L243.267 834.214L256.467 835.894L256.846 832.918L257.224 829.942L244.024 828.262L243.646 831.238ZM256.846 832.918H253.846V839.638H256.846H259.846V832.918H256.846ZM256.846 839.638V836.638H192.286V839.638V842.638H256.846V839.638ZM192.286 839.638H195.286V832.918H192.286H189.286V839.638H192.286ZM192.286 832.918L192.664 835.894L205.864 834.214L205.486 831.238L205.107 828.262L191.907 829.942L192.286 832.918ZM205.486 831.238L205.858 834.215C207.275 834.038 208.596 833.752 209.71 833.283C210.791 832.828 212.036 832.046 212.729 830.66L210.046 829.318L207.362 827.976C207.576 827.55 207.82 827.568 207.381 827.753C206.975 827.924 206.256 828.118 205.114 828.261L205.486 831.238ZM210.046 829.318L212.803 830.5C213.269 829.414 213.461 827.827 213.578 826.237C213.705 824.493 213.766 822.231 213.766 819.478H210.766H207.766C207.766 822.165 207.706 824.264 207.594 825.799C207.537 826.568 207.471 827.157 207.4 827.589C207.323 828.062 207.264 828.193 207.288 828.136L210.046 829.318ZM210.766 819.478H213.766V738.118H210.766H207.766V819.478H210.766ZM210.766 738.118H213.766C213.766 735.367 213.705 733.122 213.577 731.414C213.513 730.561 213.429 729.797 213.317 729.146C213.215 728.56 213.052 727.823 212.729 727.176L210.046 728.518L207.362 729.86C207.279 729.693 207.326 729.716 207.405 730.17C207.472 730.559 207.538 731.115 207.594 731.862C207.706 733.354 207.766 735.429 207.766 738.118H210.766ZM210.046 728.518L212.803 727.336C212.181 725.886 210.999 724.981 209.83 724.427C208.671 723.878 207.304 723.562 205.858 723.381L205.486 726.358L205.114 729.335C206.227 729.474 206.9 729.678 207.261 729.849C207.612 730.015 207.43 730.03 207.288 729.7L210.046 728.518ZM205.486 726.358L205.864 723.382L192.664 721.702L192.286 724.678L191.907 727.654L205.107 729.334L205.486 726.358ZM407.474 832.918H410.474V830.276L407.853 829.942L407.474 832.918ZM407.474 839.638V842.638H410.474V839.638H407.474ZM342.914 839.638H339.914V842.638H342.914V839.638ZM342.914 832.918L342.535 829.942L339.914 830.276V832.918H342.914ZM356.114 831.238L355.742 828.261L355.735 828.262L356.114 831.238ZM360.674 829.318L363.357 830.66L363.396 830.581L363.431 830.5L360.674 829.318ZM356.354 734.998L353.81 736.588L353.839 736.635L353.87 736.681L356.354 734.998ZM332.354 729.478L333.379 732.297L333.413 732.285L333.447 732.272L332.354 729.478ZM321.554 736.678L319.48 734.51L319.456 734.533L319.432 734.557L321.554 736.678ZM312.194 752.278L309.404 751.175L309.194 751.707V752.278H312.194ZM312.914 829.318L310.156 830.5L310.191 830.581L310.23 830.66L312.914 829.318ZM317.474 831.238L317.853 828.262L317.846 828.261L317.474 831.238ZM330.674 832.918H333.674V830.276L331.053 829.942L330.674 832.918ZM330.674 839.638V842.638H333.674V839.638H330.674ZM266.114 839.638H263.114V842.638H266.114V839.638ZM266.114 832.918L265.735 829.942L263.114 830.276V832.918H266.114ZM279.314 831.238L278.942 828.261L278.935 828.262L279.314 831.238ZM283.874 829.318L286.557 830.66L286.596 830.581L286.631 830.5L283.874 829.318ZM283.874 728.518L281.116 729.7L281.151 729.781L281.19 729.86L283.874 728.518ZM279.314 726.358L278.935 729.334L278.942 729.335L279.314 726.358ZM266.114 724.678H263.114V727.32L265.735 727.654L266.114 724.678ZM266.114 717.958V714.958H263.114V717.958H266.114ZM310.754 717.958H313.754V714.958H310.754V717.958ZM310.754 739.078H307.754V750.423L313.362 740.561L310.754 739.078ZM328.514 721.318L329.879 723.989L329.89 723.984L329.901 723.978L328.514 721.318ZM378.674 726.838L376.46 728.863V728.863L378.674 726.838ZM389.714 829.318L386.956 830.5L386.991 830.581L387.03 830.66L389.714 829.318ZM394.274 831.238L394.653 828.262L394.646 828.261L394.274 831.238ZM407.474 832.918H404.474V839.638H407.474H410.474V832.918H407.474ZM407.474 839.638V836.638H342.914V839.638V842.638H407.474V839.638ZM342.914 839.638H345.914V832.918H342.914H339.914V839.638H342.914ZM342.914 832.918L343.293 835.894L356.493 834.214L356.114 831.238L355.735 828.262L342.535 829.942L342.914 832.918ZM356.114 831.238L356.486 834.215C357.903 834.038 359.224 833.752 360.338 833.283C361.419 832.828 362.664 832.046 363.357 830.66L360.674 829.318L357.99 827.976C358.204 827.55 358.449 827.568 358.01 827.753C357.603 827.924 356.884 828.118 355.742 828.261L356.114 831.238ZM360.674 829.318L363.431 830.5C363.897 829.414 364.089 827.827 364.206 826.237C364.333 824.493 364.394 822.231 364.394 819.478H361.394H358.394C358.394 822.165 358.334 824.264 358.222 825.799C358.166 826.568 358.099 827.157 358.028 827.589C357.951 828.062 357.892 828.193 357.916 828.136L360.674 829.318ZM361.394 819.478H364.394V758.998H361.394H358.394V819.478H361.394ZM361.394 758.998H364.394C364.394 747.793 362.715 739.04 358.838 733.316L356.354 734.998L353.87 736.681C356.712 740.877 358.394 748.123 358.394 758.998H361.394ZM356.354 734.998L358.898 733.408C355.111 727.349 349.313 724.318 341.954 724.318V727.318V730.318C347.394 730.318 351.197 732.407 353.81 736.588L356.354 734.998ZM341.954 727.318V724.318C338.731 724.318 335.145 725.164 331.261 726.684L332.354 729.478L333.447 732.272C336.923 730.912 339.736 730.318 341.954 730.318V727.318ZM332.354 729.478L331.329 726.659C327.304 728.122 323.359 730.8 319.48 734.51L321.554 736.678L323.627 738.846C327.109 735.516 330.363 733.394 333.379 732.297L332.354 729.478ZM321.554 736.678L319.432 734.557C315.517 738.472 312.208 744.082 309.404 751.175L312.194 752.278L314.984 753.381C317.62 746.714 320.551 741.924 323.675 738.799L321.554 736.678ZM312.194 752.278H309.194V819.478H312.194H315.194V752.278H312.194ZM312.194 819.478H309.194C309.194 822.231 309.254 824.493 309.382 826.237C309.498 827.827 309.691 829.414 310.156 830.5L312.914 829.318L315.671 828.136C315.695 828.193 315.637 828.062 315.559 827.589C315.489 827.157 315.422 826.568 315.366 825.799C315.253 824.264 315.194 822.165 315.194 819.478H312.194ZM312.914 829.318L310.23 830.66C310.924 832.046 312.169 832.828 313.25 833.283C314.363 833.752 315.684 834.038 317.102 834.215L317.474 831.238L317.846 828.261C316.703 828.118 315.984 827.924 315.578 827.753C315.139 827.568 315.384 827.55 315.597 827.976L312.914 829.318ZM317.474 831.238L317.095 834.214L330.295 835.894L330.674 832.918L331.053 829.942L317.853 828.262L317.474 831.238ZM330.674 832.918H327.674V839.638H330.674H333.674V832.918H330.674ZM330.674 839.638V836.638H266.114V839.638V842.638H330.674V839.638ZM266.114 839.638H269.114V832.918H266.114H263.114V839.638H266.114ZM266.114 832.918L266.493 835.894L279.693 834.214L279.314 831.238L278.935 828.262L265.735 829.942L266.114 832.918ZM279.314 831.238L279.686 834.215C281.103 834.038 282.424 833.752 283.538 833.283C284.619 832.828 285.864 832.046 286.557 830.66L283.874 829.318L281.19 827.976C281.404 827.55 281.649 827.568 281.21 827.753C280.803 827.924 280.084 828.118 278.942 828.261L279.314 831.238ZM283.874 829.318L286.631 830.5C287.097 829.414 287.289 827.827 287.406 826.237C287.533 824.493 287.594 822.231 287.594 819.478H284.594H281.594C281.594 822.165 281.534 824.264 281.422 825.799C281.366 826.568 281.299 827.157 281.228 827.589C281.151 828.062 281.092 828.193 281.116 828.136L283.874 829.318ZM284.594 819.478H287.594V738.118H284.594H281.594V819.478H284.594ZM284.594 738.118H287.594C287.594 735.367 287.533 733.122 287.405 731.414C287.341 730.561 287.257 729.797 287.145 729.146C287.043 728.56 286.88 727.823 286.557 727.176L283.874 728.518L281.19 729.86C281.107 729.693 281.154 729.716 281.233 730.17C281.3 730.559 281.366 731.115 281.422 731.862C281.534 733.354 281.594 735.429 281.594 738.118H284.594ZM283.874 728.518L286.631 727.336C286.009 725.886 284.827 724.981 283.658 724.427C282.499 723.878 281.132 723.562 279.686 723.381L279.314 726.358L278.942 729.335C280.055 729.474 280.728 729.678 281.089 729.849C281.44 730.015 281.258 730.03 281.116 729.7L283.874 728.518ZM279.314 726.358L279.693 723.382L266.493 721.702L266.114 724.678L265.735 727.654L278.935 729.334L279.314 726.358ZM266.114 724.678H269.114V717.958H266.114H263.114V724.678H266.114ZM266.114 717.958V720.958H310.754V717.958V714.958H266.114V717.958ZM310.754 717.958H307.754V739.078H310.754H313.754V717.958H310.754ZM310.754 739.078L313.362 740.561C317.76 732.826 323.28 727.362 329.879 723.989L328.514 721.318L327.148 718.647C319.347 722.634 313.028 729.01 308.146 737.595L310.754 739.078ZM328.514 721.318L329.901 723.978C336.888 720.332 343.776 718.558 350.594 718.558V715.558V712.558C342.692 712.558 334.859 714.624 327.126 718.658L328.514 721.318ZM350.594 715.558V718.558C361.741 718.558 370.242 722.066 376.46 728.863L378.674 726.838L380.887 724.813C373.345 716.57 363.126 712.558 350.594 712.558V715.558ZM378.674 726.838L376.46 728.863C382.68 735.661 385.994 745.481 385.994 758.758H388.994H391.994C391.994 744.515 388.428 733.055 380.887 724.813L378.674 726.838ZM388.994 758.758H385.994V819.478H388.994H391.994V758.758H388.994ZM388.994 819.478H385.994C385.994 822.231 386.054 824.493 386.182 826.237C386.298 827.827 386.491 829.414 386.956 830.5L389.714 829.318L392.471 828.136C392.495 828.193 392.437 828.062 392.359 827.589C392.289 827.157 392.222 826.568 392.166 825.799C392.053 824.264 391.994 822.165 391.994 819.478H388.994ZM389.714 829.318L387.03 830.66C387.724 832.046 388.969 832.828 390.05 833.283C391.163 833.752 392.484 834.038 393.902 834.215L394.274 831.238L394.646 828.261C393.503 828.118 392.784 827.924 392.378 827.753C391.939 827.568 392.184 827.55 392.397 827.976L389.714 829.318ZM394.274 831.238L393.895 834.214L407.095 835.894L407.474 832.918L407.853 829.942L394.653 828.262L394.274 831.238ZM523.885 811.078L526.79 811.825L527.521 808.984L524.697 808.19L523.885 811.078ZM507.805 835.078L509.333 837.66L509.352 837.648L509.371 837.637L507.805 835.078ZM437.245 825.478L434.967 827.43L434.974 827.439L434.981 827.447L437.245 825.478ZM436.285 732.118L433.972 730.207L433.964 730.217L433.956 730.228L436.285 732.118ZM501.085 721.318L499.697 723.978L499.732 723.996L499.766 724.013L501.085 721.318ZM518.605 737.398L516.022 738.924L516.035 738.946L516.048 738.967L518.605 737.398ZM524.605 770.758L521.626 770.408L521.615 770.494L521.61 770.582L524.605 770.758ZM523.405 778.918V781.918H525.781L526.325 779.605L523.405 778.918ZM452.365 778.918V775.918H449.365V778.918H452.365ZM459.565 822.598L457.036 824.212L457.044 824.225L457.052 824.237L459.565 822.598ZM500.365 827.638L502.286 829.943L502.308 829.924L502.33 829.905L500.365 827.638ZM508.525 806.758L509.337 803.87L505.774 802.868L505.531 806.562L508.525 806.758ZM458.125 734.758L460.772 736.17L458.125 734.758ZM452.365 770.518H449.365V773.518H452.365V770.518ZM495.805 770.518V773.518H498.264L498.747 771.106L495.805 770.518ZM497.005 761.638L494.023 761.307L494.015 761.384L494.01 761.462L497.005 761.638ZM523.885 811.078L520.98 810.331C518.241 820.98 513.253 828.225 506.239 832.52L507.805 835.078L509.371 837.637C518.037 832.331 523.769 823.576 526.79 811.825L523.885 811.078ZM507.805 835.078L506.277 832.496C498.962 836.826 490.385 839.038 480.445 839.038V842.038V845.038C491.305 845.038 500.968 842.611 509.333 837.66L507.805 835.078ZM480.445 842.038V839.038C461.825 839.038 448.374 833.704 439.509 823.51L437.245 825.478L434.981 827.447C445.316 839.332 460.665 845.038 480.445 845.038V842.038ZM437.245 825.478L439.523 823.526C430.496 812.994 425.845 798.945 425.845 781.078H422.845H419.845C419.845 800.011 424.794 815.562 434.967 827.43L437.245 825.478ZM422.845 781.078H425.845V776.278H422.845H419.845V781.078H422.845ZM422.845 776.278H425.845C425.845 758.361 430.202 744.374 438.614 734.009L436.285 732.118L433.956 730.228C424.448 741.942 419.845 757.395 419.845 776.278H422.845ZM436.285 732.118L438.598 734.029C447.035 723.815 459.226 718.558 475.645 718.558V715.558V712.558C457.824 712.558 443.775 718.341 433.972 730.207L436.285 732.118ZM475.645 715.558V718.558C484.838 718.558 492.828 720.394 499.697 723.978L501.085 721.318L502.473 718.658C494.622 714.562 485.652 712.558 475.645 712.558V715.558ZM501.085 721.318L499.766 724.013C506.773 727.442 512.168 732.401 516.022 738.924L518.605 737.398L521.188 735.872C516.722 728.315 510.437 722.555 502.404 718.623L501.085 721.318ZM518.605 737.398L516.048 738.967C520.02 745.441 522.085 753.43 522.085 763.078H525.085H528.085C528.085 752.566 525.83 743.435 521.162 735.829L518.605 737.398ZM525.085 763.078H522.085C522.085 765.346 521.934 767.788 521.626 770.408L524.605 770.758L527.584 771.109C527.916 768.288 528.085 765.61 528.085 763.078H525.085ZM524.605 770.758L521.61 770.582C521.461 773.125 521.086 775.675 520.485 778.231L523.405 778.918L526.325 779.605C527.004 776.722 527.429 773.831 527.6 770.934L524.605 770.758ZM523.405 778.918V775.918H452.365V778.918V781.918H523.405V778.918ZM452.365 778.918H449.365V785.878H452.365H455.365V778.918H452.365ZM452.365 785.878H449.365C449.365 802.975 451.757 815.942 457.036 824.212L459.565 822.598L462.094 820.984C457.773 814.214 455.365 802.701 455.365 785.878H452.365ZM459.565 822.598L457.052 824.237C462.533 832.64 471.367 836.638 482.845 836.638V833.638V830.638C472.883 830.638 466.197 827.276 462.078 820.959L459.565 822.598ZM482.845 833.638V836.638C490.351 836.638 496.891 834.438 502.286 829.943L500.365 827.638L498.444 825.333C494.239 828.838 489.099 830.638 482.845 830.638V833.638ZM500.365 827.638L502.33 829.905C507.995 824.996 510.854 817.091 511.519 806.954L508.525 806.758L505.531 806.562C504.916 815.945 502.335 821.96 498.4 825.371L500.365 827.638ZM508.525 806.758L507.713 809.646L523.073 813.966L523.885 811.078L524.697 808.19L509.337 803.87L508.525 806.758ZM475.645 723.958V720.958C471.25 720.958 467.269 721.973 463.811 724.104C460.359 726.232 457.6 729.367 455.478 733.346L458.125 734.758L460.772 736.17C462.49 732.95 464.571 730.684 466.959 729.212C469.341 727.743 472.2 726.958 475.645 726.958V723.958ZM458.125 734.758L455.478 733.346C451.269 741.238 449.365 753.797 449.365 770.518H452.365H455.365C455.365 753.959 457.301 742.678 460.772 736.17L458.125 734.758ZM452.365 770.518V773.518H495.805V770.518V767.518H452.365V770.518ZM495.805 770.518L498.747 771.106C499.409 767.796 499.83 764.697 500 761.814L497.005 761.638L494.01 761.462C493.86 764.02 493.481 766.84 492.863 769.93L495.805 770.518ZM497.005 761.638L499.987 761.969C500.316 759.001 500.485 756.249 500.485 753.718H497.485H494.485C494.485 755.988 494.334 758.515 494.023 761.307L497.005 761.638ZM497.485 753.718H500.485C500.485 743.193 498.448 734.828 493.79 729.238L491.485 731.158L489.18 733.079C492.522 737.089 494.485 743.764 494.485 753.718H497.485ZM491.485 731.158L493.79 729.238C489.188 723.715 483.044 720.958 475.645 720.958V723.958V726.958C481.366 726.958 485.782 729.001 489.18 733.079L491.485 731.158ZM542.676 724.678H539.676V727.32L542.297 727.654L542.676 724.678ZM542.676 717.958V714.958H539.676V717.958H542.676ZM587.316 717.958H590.316V714.958H587.316V717.958ZM587.316 737.638H584.316V747.591L589.817 739.296L587.316 737.638ZM636.516 720.358L634.813 722.828L634.842 722.848L634.872 722.867L636.516 720.358ZM648.036 737.638L649.46 740.279L651.731 739.054L650.86 736.626L648.036 737.638ZM626.676 749.158L623.837 750.128L624.982 753.48L628.1 751.799L626.676 749.158ZM618.756 735.958L616.836 738.263L616.905 738.32L616.977 738.373L618.756 735.958ZM588.756 748.198L586.16 746.695L585.756 747.392V748.198H588.756ZM589.476 829.318L586.719 830.5L586.754 830.581L586.793 830.66L589.476 829.318ZM594.036 831.238L593.664 834.215L593.711 834.221L593.757 834.225L594.036 831.238ZM612.036 832.918H615.036V830.185L612.315 829.931L612.036 832.918ZM612.036 839.638V842.638H615.036V839.638H612.036ZM542.676 839.638H539.676V842.638H542.676V839.638ZM542.676 832.918L542.297 829.942L539.676 830.276V832.918H542.676ZM555.876 831.238L555.504 828.261L555.497 828.262L555.876 831.238ZM560.436 829.318L563.12 830.66L563.159 830.581L563.194 830.5L560.436 829.318ZM560.436 728.518L557.679 729.7L557.714 729.781L557.753 729.86L560.436 728.518ZM555.876 726.358L555.497 729.334L555.504 729.335L555.876 726.358ZM542.676 724.678H545.676V717.958H542.676H539.676V724.678H542.676ZM542.676 717.958V720.958H587.316V717.958V714.958H542.676V717.958ZM587.316 717.958H584.316V737.638H587.316H590.316V717.958H587.316ZM587.316 737.638L589.817 739.296C599.215 725.12 609.99 718.558 622.116 718.558V715.558V712.558C607.363 712.558 594.937 720.716 584.816 735.98L587.316 737.638ZM622.116 715.558V718.558C626.387 718.558 630.603 719.924 634.813 722.828L636.516 720.358L638.219 717.888C633.149 714.392 627.765 712.558 622.116 712.558V715.558ZM636.516 720.358L634.872 722.867C638.72 725.388 642.266 730.432 645.212 738.65L648.036 737.638L650.86 736.626C647.727 727.884 643.593 721.408 638.16 717.849L636.516 720.358ZM648.036 737.638L646.612 734.998L625.252 746.518L626.676 749.158L628.1 751.799L649.46 740.279L648.036 737.638ZM626.676 749.158L629.515 748.189C627.22 741.468 624.332 736.34 620.536 733.543L618.756 735.958L616.977 738.373C619.26 740.056 621.652 743.728 623.837 750.128L626.676 749.158ZM618.756 735.958L620.677 733.653C617.324 730.86 613.54 729.358 609.396 729.358V732.358V735.358C611.973 735.358 614.428 736.257 616.836 738.263L618.756 735.958ZM609.396 732.358V729.358C605.2 729.358 601.19 730.703 597.412 733.222L599.076 735.718L600.74 738.214C603.682 736.253 606.552 735.358 609.396 735.358V732.358ZM599.076 735.718L597.412 733.222C593.484 735.841 589.764 740.47 586.16 746.695L588.756 748.198L591.353 749.701C594.789 743.766 597.949 740.075 600.74 738.214L599.076 735.718ZM588.756 748.198H585.756V819.478H588.756H591.756V748.198H588.756ZM588.756 819.478H585.756C585.756 822.231 585.817 824.493 585.944 826.237C586.061 827.827 586.253 829.414 586.719 830.5L589.476 829.318L592.234 828.136C592.258 828.193 592.199 828.062 592.122 827.589C592.051 827.157 591.984 826.568 591.928 825.799C591.816 824.264 591.756 822.165 591.756 819.478H588.756ZM589.476 829.318L586.793 830.66C587.486 832.046 588.731 832.828 589.812 833.283C590.926 833.752 592.247 834.038 593.664 834.215L594.036 831.238L594.408 828.261C593.266 828.118 592.547 827.924 592.14 827.753C591.701 827.568 591.946 827.55 592.16 827.976L589.476 829.318ZM594.036 831.238L593.757 834.225L611.757 835.905L612.036 832.918L612.315 829.931L594.315 828.251L594.036 831.238ZM612.036 832.918H609.036V839.638H612.036H615.036V832.918H612.036ZM612.036 839.638V836.638H542.676V839.638V842.638H612.036V839.638ZM542.676 839.638H545.676V832.918H542.676H539.676V839.638H542.676ZM542.676 832.918L543.055 835.894L556.255 834.214L555.876 831.238L555.497 828.262L542.297 829.942L542.676 832.918ZM555.876 831.238L556.248 834.215C557.666 834.038 558.987 833.752 560.1 833.283C561.181 832.828 562.426 832.046 563.12 830.66L560.436 829.318L557.753 827.976C557.966 827.55 558.211 827.568 557.772 827.753C557.366 827.924 556.647 828.118 555.504 828.261L555.876 831.238ZM560.436 829.318L563.194 830.5C563.659 829.414 563.852 827.827 563.968 826.237C564.096 824.493 564.156 822.231 564.156 819.478H561.156H558.156C558.156 822.165 558.097 824.264 557.984 825.799C557.928 826.568 557.861 827.157 557.791 827.589C557.713 828.062 557.655 828.193 557.679 828.136L560.436 829.318ZM561.156 819.478H564.156V738.118H561.156H558.156V819.478H561.156ZM561.156 738.118H564.156C564.156 735.367 564.096 733.122 563.968 731.414C563.904 730.561 563.82 729.797 563.707 729.146C563.606 728.56 563.443 727.823 563.12 727.176L560.436 728.518L557.753 729.86C557.67 729.693 557.717 729.716 557.795 730.17C557.863 730.559 557.929 731.115 557.985 731.862C558.097 733.354 558.156 735.429 558.156 738.118H561.156ZM560.436 728.518L563.194 727.336C562.572 725.886 561.39 724.981 560.221 724.427C559.062 723.878 557.695 723.562 556.248 723.381L555.876 726.358L555.504 729.335C556.618 729.474 557.291 729.678 557.652 729.849C558.003 730.015 557.821 730.03 557.679 729.7L560.436 728.518ZM555.876 726.358L556.255 723.382L543.055 721.702L542.676 724.678L542.297 727.654L555.497 729.334L555.876 726.358ZM672.016 692.758L669.841 694.824L669.867 694.852L669.894 694.879L672.016 692.758ZM672.016 668.518L669.894 666.397V666.397L672.016 668.518ZM696.016 668.518L698.082 666.343V666.343L696.016 668.518ZM696.016 692.758L698.082 694.933L698.11 694.907L698.137 694.879L696.016 692.758ZM651.856 724.678H648.856V727.32L651.477 727.654L651.856 724.678ZM651.856 717.958V714.958H648.856V717.958H651.856ZM697.936 717.958H700.936V714.958H697.936V717.958ZM693.856 870.118L696.646 871.221V871.221L693.856 870.118ZM680.656 886.678L678.962 884.202L678.94 884.217L678.918 884.233L680.656 886.678ZM633.856 886.438L632.106 888.875L633.856 886.438ZM622.336 863.638L621.457 860.77L619.024 861.515L619.362 864.037L622.336 863.638ZM637.216 859.078L640.206 858.844L639.915 855.113L636.337 856.21L637.216 859.078ZM642.976 879.478L645.246 877.517L645.223 877.491L645.2 877.465L642.976 879.478ZM665.776 877.798L663.266 876.154L663.246 876.185L663.227 876.216L665.776 877.798ZM669.616 728.518L666.858 729.7L666.893 729.781L666.932 729.86L669.616 728.518ZM665.056 726.358L664.677 729.334L664.684 729.335L665.056 726.358ZM684.016 697.318V694.318C679.719 694.318 676.527 693.027 674.137 690.637L672.016 692.758L669.894 694.879C673.584 698.569 678.392 700.318 684.016 700.318V697.318ZM672.016 692.758L674.191 690.692C671.747 688.12 670.456 684.812 670.456 680.518H667.456H664.456C664.456 686.144 666.204 690.996 669.841 694.824L672.016 692.758ZM667.456 680.518H670.456C670.456 676.221 671.747 673.03 674.137 670.639L672.016 668.518L669.894 666.397C666.204 670.087 664.456 674.895 664.456 680.518H667.456ZM672.016 668.518L674.137 670.639C676.527 668.249 679.719 666.958 684.016 666.958V663.958V660.958C678.392 660.958 673.584 662.707 669.894 666.397L672.016 668.518ZM684.016 663.958V666.958C688.12 666.958 691.358 668.231 693.949 670.693L696.016 668.518L698.082 666.343C694.273 662.725 689.511 660.958 684.016 660.958V663.958ZM696.016 668.518L693.949 670.693C696.477 673.094 697.816 676.268 697.816 680.518H700.816H703.816C703.816 674.848 701.955 670.022 698.082 666.343L696.016 668.518ZM700.816 680.518H697.816C697.816 684.766 696.475 688.056 693.894 690.637L696.016 692.758L698.137 694.879C701.956 691.06 703.816 686.19 703.816 680.518H700.816ZM696.016 692.758L693.949 690.583C691.358 693.045 688.12 694.318 684.016 694.318V697.318V700.318C689.511 700.318 694.273 698.551 698.082 694.933L696.016 692.758ZM651.856 724.678H654.856V717.958H651.856H648.856V724.678H651.856ZM651.856 717.958V720.958H697.936V717.958V714.958H651.856V717.958ZM697.936 717.958H694.936V847.798H697.936H700.936V717.958H697.936ZM697.936 847.798H694.936C694.936 855.451 693.636 862.514 691.066 869.015L693.856 870.118L696.646 871.221C699.515 863.962 700.936 856.145 700.936 847.798H697.936ZM693.856 870.118L691.066 869.015C688.565 875.341 684.545 880.382 678.962 884.202L680.656 886.678L682.35 889.154C688.926 884.654 693.706 878.655 696.646 871.221L693.856 870.118ZM680.656 886.678L678.918 884.233C673.497 888.085 666.088 890.158 656.416 890.158V893.158V896.158C666.903 896.158 675.655 893.911 682.393 889.124L680.656 886.678ZM656.416 893.158V890.158C648.149 890.158 641.263 888.063 635.605 884.001L633.856 886.438L632.106 888.875C638.928 893.773 647.083 896.158 656.416 896.158V893.158ZM633.856 886.438L635.605 884.001C630.272 880.172 626.685 873.481 625.309 863.239L622.336 863.638L619.362 864.037C620.866 875.235 624.959 883.744 632.106 888.875L633.856 886.438ZM622.336 863.638L623.215 866.506L638.095 861.946L637.216 859.078L636.337 856.21L621.457 860.77L622.336 863.638ZM637.216 859.078L634.225 859.312C634.634 864.548 635.337 869.019 636.369 872.673C637.391 876.294 638.795 879.329 640.751 881.491L642.976 879.478L645.2 877.465C644.116 876.267 643.04 874.222 642.143 871.043C641.255 867.897 640.597 863.848 640.206 858.844L637.216 859.078ZM642.976 879.478L640.705 881.439C644.212 885.5 648.518 887.758 653.536 887.758V884.758V881.758C650.553 881.758 647.819 880.496 645.246 877.517L642.976 879.478ZM653.536 884.758V887.758C659.896 887.758 664.92 884.865 668.325 879.38L665.776 877.798L663.227 876.216C660.871 880.011 657.735 881.758 653.536 881.758V884.758ZM665.776 877.798L668.285 879.442C671.851 873.999 673.336 864.794 673.336 852.598H670.336H667.336C667.336 864.722 665.78 872.317 663.266 876.154L665.776 877.798ZM670.336 852.598H673.336V738.118H670.336H667.336V852.598H670.336ZM670.336 738.118H673.336C673.336 735.367 673.275 733.122 673.147 731.414C673.083 730.561 672.999 729.797 672.887 729.146C672.785 728.56 672.622 727.823 672.299 727.176L669.616 728.518L666.932 729.86C666.849 729.693 666.896 729.716 666.975 730.17C667.042 730.559 667.108 731.115 667.164 731.862C667.276 733.354 667.336 735.429 667.336 738.118H670.336ZM669.616 728.518L672.373 727.336C671.751 725.886 670.569 724.981 669.4 724.427C668.241 723.878 666.874 723.562 665.428 723.381L665.056 726.358L664.684 729.335C665.797 729.474 666.47 729.678 666.831 729.849C667.182 730.015 667 730.03 666.858 729.7L669.616 728.518ZM665.056 726.358L665.434 723.382L652.234 721.702L651.856 724.678L651.477 727.654L664.677 729.334L665.056 726.358ZM744.008 692.758L741.833 694.824L741.86 694.852L741.887 694.879L744.008 692.758ZM744.008 668.518L741.887 666.397V666.397L744.008 668.518ZM768.008 668.518L770.074 666.343V666.343L768.008 668.518ZM768.008 692.758L770.074 694.933L770.102 694.907L770.129 694.879L768.008 692.758ZM723.848 724.678H720.848V727.32L723.469 727.654L723.848 724.678ZM723.848 717.958V714.958H720.848V717.958H723.848ZM769.928 717.958H772.928V714.958H769.928V717.958ZM770.648 829.318L767.891 830.5L767.925 830.581L767.965 830.66L770.648 829.318ZM775.208 831.238L775.587 828.262L775.58 828.261L775.208 831.238ZM788.408 832.918H791.408V830.276L788.787 829.942L788.408 832.918ZM788.408 839.638V842.638H791.408V839.638H788.408ZM723.848 839.638H720.848V842.638H723.848V839.638ZM723.848 832.918L723.469 829.942L720.848 830.276V832.918H723.848ZM737.048 831.238L736.676 828.261L736.669 828.262L737.048 831.238ZM741.608 829.318L744.291 830.66L744.331 830.581L744.366 830.5L741.608 829.318ZM741.608 728.518L738.851 729.7L738.885 729.781L738.925 729.86L741.608 728.518ZM737.048 726.358L736.669 729.334L736.676 729.335L737.048 726.358ZM756.008 697.318V694.318C751.711 694.318 748.52 693.027 746.129 690.637L744.008 692.758L741.887 694.879C745.577 698.569 750.385 700.318 756.008 700.318V697.318ZM744.008 692.758L746.183 690.692C743.74 688.12 742.448 684.812 742.448 680.518H739.448H736.448C736.448 686.144 738.196 690.996 741.833 694.824L744.008 692.758ZM739.448 680.518H742.448C742.448 676.221 743.739 673.03 746.129 670.639L744.008 668.518L741.887 666.397C738.197 670.087 736.448 674.895 736.448 680.518H739.448ZM744.008 668.518L746.129 670.639C748.52 668.249 751.711 666.958 756.008 666.958V663.958V660.958C750.385 660.958 745.577 662.707 741.887 666.397L744.008 668.518ZM756.008 663.958V666.958C760.113 666.958 763.351 668.231 765.942 670.693L768.008 668.518L770.074 666.343C766.266 662.725 761.504 660.958 756.008 660.958V663.958ZM768.008 668.518L765.942 670.693C768.469 673.094 769.808 676.268 769.808 680.518H772.808H775.808C775.808 674.848 773.947 670.022 770.074 666.343L768.008 668.518ZM772.808 680.518H769.808C769.808 684.766 768.467 688.056 765.887 690.637L768.008 692.758L770.129 694.879C773.949 691.06 775.808 686.19 775.808 680.518H772.808ZM768.008 692.758L765.942 690.583C763.351 693.045 760.113 694.318 756.008 694.318V697.318V700.318C761.504 700.318 766.266 698.551 770.074 694.933L768.008 692.758ZM723.848 724.678H726.848V717.958H723.848H720.848V724.678H723.848ZM723.848 717.958V720.958H769.928V717.958V714.958H723.848V717.958ZM769.928 717.958H766.928V819.478H769.928H772.928V717.958H769.928ZM769.928 819.478H766.928C766.928 822.231 766.988 824.493 767.116 826.237C767.232 827.827 767.425 829.414 767.891 830.5L770.648 829.318L773.406 828.136C773.43 828.193 773.371 828.062 773.294 827.589C773.223 827.157 773.156 826.568 773.1 825.799C772.988 824.264 772.928 822.165 772.928 819.478H769.928ZM770.648 829.318L767.965 830.66C768.658 832.046 769.903 832.828 770.984 833.283C772.098 833.752 773.419 834.038 774.836 834.215L775.208 831.238L775.58 828.261C774.438 828.118 773.719 827.924 773.312 827.753C772.873 827.568 773.118 827.55 773.331 827.976L770.648 829.318ZM775.208 831.238L774.829 834.214L788.029 835.894L788.408 832.918L788.787 829.942L775.587 828.262L775.208 831.238ZM788.408 832.918H785.408V839.638H788.408H791.408V832.918H788.408ZM788.408 839.638V836.638H723.848V839.638V842.638H788.408V839.638ZM723.848 839.638H726.848V832.918H723.848H720.848V839.638H723.848ZM723.848 832.918L724.227 835.894L737.427 834.214L737.048 831.238L736.669 828.262L723.469 829.942L723.848 832.918ZM737.048 831.238L737.42 834.215C738.838 834.038 740.159 833.752 741.272 833.283C742.353 832.828 743.598 832.046 744.291 830.66L741.608 829.318L738.925 827.976C739.138 827.55 739.383 827.568 738.944 827.753C738.538 827.924 737.818 828.118 736.676 828.261L737.048 831.238ZM741.608 829.318L744.366 830.5C744.831 829.414 745.024 827.827 745.14 826.237C745.268 824.493 745.328 822.231 745.328 819.478H742.328H739.328C739.328 822.165 739.268 824.264 739.156 825.799C739.1 826.568 739.033 827.157 738.963 827.589C738.885 828.062 738.827 828.193 738.851 828.136L741.608 829.318ZM742.328 819.478H745.328V738.118H742.328H739.328V819.478H742.328ZM742.328 738.118H745.328C745.328 735.367 745.268 733.122 745.14 731.414C745.076 730.561 744.992 729.797 744.879 729.146C744.778 728.56 744.615 727.823 744.291 727.176L741.608 728.518L738.925 729.86C738.841 729.693 738.889 729.716 738.967 730.17C739.034 730.559 739.1 731.115 739.157 731.862C739.268 733.354 739.328 735.429 739.328 738.118H742.328ZM741.608 728.518L744.366 727.336C743.744 725.886 742.562 724.981 741.392 724.427C740.234 723.878 738.866 723.562 737.42 723.381L737.048 726.358L736.676 729.335C737.79 729.474 738.463 729.678 738.824 729.849C739.175 730.015 738.992 730.03 738.851 729.7L741.608 728.518ZM737.048 726.358L737.427 723.382L724.227 721.702L723.848 724.678L723.469 727.654L736.669 729.334L737.048 726.358Z" fill="#2E7DA9" mask="url(#path-15-outside-1_1_20)"/>
<mask id="path-17-outside-2_1_20" maskUnits="userSpaceOnUse" x="805" y="672.638" width="155" height="170" fill="black">
<rect fill="white" x="805" y="672.638" width="155" height="170"/>
<path d="M855.52 832.918V839.638H808.24V832.918L821.44 831.238C823.04 830.918 824.24 830.598 825.04 830.278C826 829.798 827.04 828.838 828.16 827.398C829.44 825.798 831.2 823.158 833.44 819.478L869.68 761.878L834.16 696.598C832.24 692.918 830.8 690.358 829.84 688.918C828.88 687.318 827.92 686.278 826.96 685.798C826.16 685.318 824.88 684.998 823.12 684.838L809.92 683.158V676.438H878.56V683.158L865.36 684.838C862.96 685.158 861.76 685.878 861.76 686.998C861.76 687.958 863.2 691.158 866.08 696.598L890.08 740.758L917.68 696.598C921.04 691.158 922.72 687.958 922.72 686.998C922.88 685.878 921.68 685.158 919.12 684.838L905.92 683.158V676.438H953.2V683.158L940 684.838C938.4 684.998 937.12 685.318 936.16 685.798C935.36 686.278 934.4 687.318 933.28 688.918C932.16 690.358 930.4 692.918 928 696.598L894.88 749.638L932.56 819.478C934.48 822.998 935.92 825.558 936.88 827.158C937.84 828.758 938.8 829.798 939.76 830.278C940.72 830.598 942 830.918 943.6 831.238L956.8 832.918V839.638H888.4V832.918L901.6 831.238C904.16 830.918 905.44 830.278 905.44 829.318C905.44 828.198 903.92 824.918 900.88 819.478L874.24 770.518L843.76 819.478C840.4 824.918 838.64 828.198 838.48 829.318C838.48 830.278 839.76 830.918 842.32 831.238L855.52 832.918Z"/>
</mask>
<path d="M855.52 832.918V839.638H808.24V832.918L821.44 831.238C823.04 830.918 824.24 830.598 825.04 830.278C826 829.798 827.04 828.838 828.16 827.398C829.44 825.798 831.2 823.158 833.44 819.478L869.68 761.878L834.16 696.598C832.24 692.918 830.8 690.358 829.84 688.918C828.88 687.318 827.92 686.278 826.96 685.798C826.16 685.318 824.88 684.998 823.12 684.838L809.92 683.158V676.438H878.56V683.158L865.36 684.838C862.96 685.158 861.76 685.878 861.76 686.998C861.76 687.958 863.2 691.158 866.08 696.598L890.08 740.758L917.68 696.598C921.04 691.158 922.72 687.958 922.72 686.998C922.88 685.878 921.68 685.158 919.12 684.838L905.92 683.158V676.438H953.2V683.158L940 684.838C938.4 684.998 937.12 685.318 936.16 685.798C935.36 686.278 934.4 687.318 933.28 688.918C932.16 690.358 930.4 692.918 928 696.598L894.88 749.638L932.56 819.478C934.48 822.998 935.92 825.558 936.88 827.158C937.84 828.758 938.8 829.798 939.76 830.278C940.72 830.598 942 830.918 943.6 831.238L956.8 832.918V839.638H888.4V832.918L901.6 831.238C904.16 830.918 905.44 830.278 905.44 829.318C905.44 828.198 903.92 824.918 900.88 819.478L874.24 770.518L843.76 819.478C840.4 824.918 838.64 828.198 838.48 829.318C838.48 830.278 839.76 830.918 842.32 831.238L855.52 832.918Z" fill="#6DB545"/>
<path d="M855.52 832.918H858.52V830.276L855.899 829.942L855.52 832.918ZM855.52 839.638V842.638H858.52V839.638H855.52ZM808.24 839.638H805.24V842.638H808.24V839.638ZM808.24 832.918L807.861 829.942L805.24 830.276V832.918H808.24ZM821.44 831.238L821.819 834.214L821.924 834.201L822.028 834.18L821.44 831.238ZM825.04 830.278L826.154 833.063L826.27 833.017L826.382 832.961L825.04 830.278ZM828.16 827.398L825.817 825.524L825.805 825.54L825.792 825.556L828.16 827.398ZM833.44 819.478L830.901 817.88L830.889 817.899L830.877 817.918L833.44 819.478ZM869.68 761.878L872.219 763.476L873.155 761.988L872.315 760.444L869.68 761.878ZM834.16 696.598L831.5 697.986L831.512 698.009L831.525 698.032L834.16 696.598ZM829.84 688.918L827.268 690.462L827.304 690.523L827.344 690.582L829.84 688.918ZM826.96 685.798L825.417 688.371L825.515 688.43L825.618 688.481L826.96 685.798ZM823.12 684.838L822.741 687.814L822.795 687.821L822.848 687.826L823.12 684.838ZM809.92 683.158H806.92V685.8L809.541 686.134L809.92 683.158ZM809.92 676.438V673.438H806.92V676.438H809.92ZM878.56 676.438H881.56V673.438H878.56V676.438ZM878.56 683.158L878.939 686.134L881.56 685.8V683.158H878.56ZM865.36 684.838L864.981 681.862L864.972 681.863L864.964 681.864L865.36 684.838ZM866.08 696.598L863.429 698.002L863.436 698.016L863.444 698.031L866.08 696.598ZM890.08 740.758L887.444 742.191L889.899 746.708L892.624 742.348L890.08 740.758ZM917.68 696.598L920.224 698.188L920.228 698.181L920.232 698.175L917.68 696.598ZM922.72 686.998L919.75 686.574L919.72 686.785V686.998H922.72ZM919.12 684.838L918.741 687.814L918.748 687.815L919.12 684.838ZM905.92 683.158H902.92V685.8L905.541 686.134L905.92 683.158ZM905.92 676.438V673.438H902.92V676.438H905.92ZM953.2 676.438H956.2V673.438H953.2V676.438ZM953.2 683.158L953.579 686.134L956.2 685.8V683.158H953.2ZM940 684.838L940.299 687.823L940.339 687.819L940.379 687.814L940 684.838ZM936.16 685.798L934.818 683.115L934.715 683.166L934.617 683.226L936.16 685.798ZM933.28 688.918L935.648 690.76L935.694 690.7L935.738 690.638L933.28 688.918ZM928 696.598L925.487 694.959L925.471 694.984L925.455 695.009L928 696.598ZM894.88 749.638L892.335 748.049L891.412 749.528L892.24 751.063L894.88 749.638ZM932.56 819.478L929.92 820.903L929.926 820.915L932.56 819.478ZM936.88 827.158L934.308 828.702L934.308 828.702L936.88 827.158ZM939.76 830.278L938.418 832.961L938.609 833.057L938.811 833.124L939.76 830.278ZM943.6 831.238L943.012 834.18L943.116 834.201L943.221 834.214L943.6 831.238ZM956.8 832.918H959.8V830.276L957.179 829.942L956.8 832.918ZM956.8 839.638V842.638H959.8V839.638H956.8ZM888.4 839.638H885.4V842.638H888.4V839.638ZM888.4 832.918L888.021 829.942L885.4 830.276V832.918H888.4ZM901.6 831.238L901.228 828.261L901.221 828.262L901.6 831.238ZM900.88 819.478L898.245 820.912L898.253 820.927L898.261 820.942L900.88 819.478ZM874.24 770.518L876.875 769.084L874.414 764.562L871.693 768.933L874.24 770.518ZM843.76 819.478L841.213 817.893L841.208 817.902L843.76 819.478ZM838.48 829.318L835.51 828.894L835.48 829.105V829.318H838.48ZM842.32 831.238L842.699 828.262L842.692 828.261L842.32 831.238ZM855.52 832.918H852.52V839.638H855.52H858.52V832.918H855.52ZM855.52 839.638V836.638H808.24V839.638V842.638H855.52V839.638ZM808.24 839.638H811.24V832.918H808.24H805.24V839.638H808.24ZM808.24 832.918L808.619 835.894L821.819 834.214L821.44 831.238L821.061 828.262L807.861 829.942L808.24 832.918ZM821.44 831.238L822.028 834.18C823.679 833.85 825.095 833.487 826.154 833.063L825.04 830.278L823.926 827.493C823.385 827.709 822.401 827.986 820.852 828.296L821.44 831.238ZM825.04 830.278L826.382 832.961C827.93 832.187 829.3 830.819 830.528 829.24L828.16 827.398L825.792 825.556C824.78 826.857 824.07 827.409 823.698 827.595L825.04 830.278ZM828.16 827.398L830.503 829.272C831.909 827.514 833.752 824.735 836.003 821.038L833.44 819.478L830.877 817.918C828.648 821.581 826.971 824.083 825.817 825.524L828.16 827.398ZM833.44 819.478L835.979 821.076L872.219 763.476L869.68 761.878L867.141 760.28L830.901 817.88L833.44 819.478ZM869.68 761.878L872.315 760.444L836.795 695.164L834.16 696.598L831.525 698.032L867.045 763.312L869.68 761.878ZM834.16 696.598L836.82 695.21C834.899 691.53 833.395 688.841 832.336 687.254L829.84 688.918L827.344 690.582C828.205 691.875 829.581 694.306 831.5 697.986L834.16 696.598ZM829.84 688.918L832.412 687.375C831.349 685.603 830.024 683.976 828.302 683.115L826.96 685.798L825.618 688.481C825.816 688.58 826.411 689.033 827.268 690.462L829.84 688.918ZM826.96 685.798L828.503 683.226C827.106 682.387 825.269 682.021 823.392 681.85L823.12 684.838L822.848 687.826C824.491 687.975 825.214 688.249 825.417 688.371L826.96 685.798ZM823.12 684.838L823.499 681.862L810.299 680.182L809.92 683.158L809.541 686.134L822.741 687.814L823.12 684.838ZM809.92 683.158H812.92V676.438H809.92H806.92V683.158H809.92ZM809.92 676.438V679.438H878.56V676.438V673.438H809.92V676.438ZM878.56 676.438H875.56V683.158H878.56H881.56V676.438H878.56ZM878.56 683.158L878.181 680.182L864.981 681.862L865.36 684.838L865.739 687.814L878.939 686.134L878.56 683.158ZM865.36 684.838L864.964 681.864C863.611 682.045 862.235 682.374 861.117 683.046C859.874 683.791 858.76 685.112 858.76 686.998H861.76H864.76C864.76 687.288 864.672 687.604 864.498 687.872C864.341 688.112 864.19 688.199 864.203 688.191C864.22 688.18 864.339 688.116 864.618 688.035C864.89 687.956 865.264 687.877 865.757 687.812L865.36 684.838ZM861.76 686.998H858.76C858.76 687.787 859.01 688.586 859.195 689.119C859.416 689.758 859.726 690.509 860.104 691.349C860.863 693.035 861.977 695.26 863.429 698.002L866.08 696.598L868.731 695.194C867.303 692.496 866.257 690.401 865.576 688.887C865.234 688.127 865.004 687.558 864.865 687.157C864.69 686.65 864.76 686.689 864.76 686.998H861.76ZM866.08 696.598L863.444 698.031L887.444 742.191L890.08 740.758L892.716 739.326L868.716 695.166L866.08 696.598ZM890.08 740.758L892.624 742.348L920.224 698.188L917.68 696.598L915.136 695.008L887.536 739.168L890.08 740.758ZM917.68 696.598L920.232 698.175C921.926 695.433 923.228 693.204 924.116 691.513C924.558 690.671 924.924 689.912 925.187 689.261C925.399 688.736 925.72 687.876 925.72 686.998H922.72H919.72C919.72 686.6 919.831 686.5 919.623 687.015C919.466 687.404 919.202 687.966 918.804 688.724C918.012 690.232 916.794 692.323 915.128 695.022L917.68 696.598ZM922.72 686.998L925.69 687.422C925.816 686.536 925.676 685.605 925.197 684.757C924.742 683.952 924.089 683.409 923.483 683.046C922.339 682.359 920.895 682.037 919.492 681.861L919.12 684.838L918.748 687.815C919.287 687.882 919.692 687.963 919.985 688.044C920.288 688.128 920.4 688.193 920.397 688.191C920.391 688.187 920.168 688.054 919.973 687.709C919.754 687.321 919.704 686.9 919.75 686.574L922.72 686.998ZM919.12 684.838L919.499 681.862L906.299 680.182L905.92 683.158L905.541 686.134L918.741 687.814L919.12 684.838ZM905.92 683.158H908.92V676.438H905.92H902.92V683.158H905.92ZM905.92 676.438V679.438H953.2V676.438V673.438H905.92V676.438ZM953.2 676.438H950.2V683.158H953.2H956.2V676.438H953.2ZM953.2 683.158L952.821 680.182L939.621 681.862L940 684.838L940.379 687.814L953.579 686.134L953.2 683.158ZM940 684.838L939.701 681.853C937.902 682.033 936.225 682.411 934.818 683.115L936.16 685.798L937.502 688.481C938.015 688.225 938.898 687.963 940.299 687.823L940 684.838ZM936.16 685.798L934.617 683.226C933.239 684.052 931.977 685.548 930.822 687.198L933.28 688.918L935.738 690.638C936.823 689.088 937.481 688.504 937.704 688.371L936.16 685.798ZM933.28 688.918L930.912 687.076C929.707 688.625 927.887 691.279 925.487 694.959L928 696.598L930.513 698.237C932.913 694.557 934.613 692.091 935.648 690.76L933.28 688.918ZM928 696.598L925.455 695.009L892.335 748.049L894.88 749.638L897.425 751.227L930.545 698.187L928 696.598ZM894.88 749.638L892.24 751.063L929.92 820.903L932.56 819.478L935.2 818.054L897.52 748.214L894.88 749.638ZM932.56 819.478L929.926 820.915C931.849 824.44 933.314 827.045 934.308 828.702L936.88 827.158L939.452 825.615C938.526 824.071 937.111 821.557 935.194 818.042L932.56 819.478ZM936.88 827.158L934.308 828.702C935.371 830.473 936.696 832.1 938.418 832.961L939.76 830.278L941.102 827.595C940.904 827.496 940.309 827.043 939.452 825.615L936.88 827.158ZM939.76 830.278L938.811 833.124C939.938 833.5 941.354 833.848 943.012 834.18L943.6 831.238L944.188 828.296C942.646 827.988 941.502 827.696 940.709 827.432L939.76 830.278ZM943.6 831.238L943.221 834.214L956.421 835.894L956.8 832.918L957.179 829.942L943.979 828.262L943.6 831.238ZM956.8 832.918H953.8V839.638H956.8H959.8V832.918H956.8ZM956.8 839.638V836.638H888.4V839.638V842.638H956.8V839.638ZM888.4 839.638H891.4V832.918H888.4H885.4V839.638H888.4ZM888.4 832.918L888.779 835.894L901.979 834.214L901.6 831.238L901.221 828.262L888.021 829.942L888.4 832.918ZM901.6 831.238L901.972 834.215C903.364 834.041 904.725 833.75 905.822 833.201C906.92 832.652 908.44 831.447 908.44 829.318H905.44H902.44C902.44 828.829 902.623 828.398 902.857 828.104C903.054 827.858 903.214 827.797 903.138 827.835C903.073 827.868 902.894 827.942 902.552 828.028C902.218 828.111 901.782 828.192 901.228 828.261L901.6 831.238ZM905.44 829.318H908.44C908.44 828.508 908.198 827.694 907.991 827.094C907.755 826.411 907.424 825.624 907.022 824.757C906.215 823.016 905.034 820.761 903.499 818.015L900.88 819.478L898.261 820.942C899.767 823.635 900.865 825.74 901.578 827.279C901.936 828.052 902.175 828.635 902.319 829.053C902.492 829.552 902.44 829.568 902.44 829.318H905.44ZM900.88 819.478L903.515 818.044L876.875 769.084L874.24 770.518L871.605 771.952L898.245 820.912L900.88 819.478ZM874.24 770.518L871.693 768.933L841.213 817.893L843.76 819.478L846.307 821.064L876.787 772.104L874.24 770.518ZM843.76 819.478L841.208 817.902C839.515 820.642 838.198 822.881 837.277 824.6C836.817 825.457 836.435 826.22 836.15 826.873C835.895 827.458 835.611 828.187 835.51 828.894L838.48 829.318L841.45 829.742C841.429 829.889 841.425 829.788 841.65 829.273C841.845 828.826 842.143 828.219 842.563 827.437C843.402 825.875 844.645 823.754 846.312 821.055L843.76 819.478ZM838.48 829.318H835.48C835.48 831.447 837 832.652 838.098 833.201C839.195 833.75 840.556 834.041 841.948 834.215L842.32 831.238L842.692 828.261C842.138 828.192 841.702 828.111 841.368 828.028C841.026 827.942 840.847 827.868 840.782 827.835C840.706 827.797 840.866 827.858 841.063 828.104C841.297 828.398 841.48 828.829 841.48 829.318H838.48ZM842.32 831.238L841.941 834.214L855.141 835.894L855.52 832.918L855.899 829.942L842.699 828.262L842.32 831.238Z" fill="#6BA64A" mask="url(#path-17-outside-2_1_20)"/>
</svg>
